<?xml version="1.0" standalone="no"?>
<!DOCTYPE svg PUBLIC "-//W3C//DTD SVG 1.1//EN" "http://www.w3.org/Graphics/SVG/1.1/DTD/svg11.dtd" >
<svg>
<metadata>
Created by FontForge 20110222 at Mon Mar  7 10:36:43 2011
 By www-data
Converted by ALLTYPE
</metadata>
<defs>
<font id="MACCTimes" horiz-adv-x="2048" >
  <font-face 
    font-family="MAC C Times"
    font-weight="400"
    font-stretch="normal"
    units-per-em="4096"
    panose-1="2 2 114 0 0 0 0 0 0 0"
    ascent="3276"
    descent="-820"
    x-height="1925"
    cap-height="2826"
    bbox="-209 -979 4055 3772"
    underline-thickness="50"
    underline-position="-55"
    unicode-range="U+0020-25D9"
  />
    <missing-glyph />
    <glyph glyph-name="space" unicode=" " horiz-adv-x="1024" 
 />
    <glyph glyph-name="exclam" unicode="!" horiz-adv-x="1368" 
d="M684 442q49 -4 90 -20q41 -21 78 -53q33 -37 53 -78q17 -41 17 -90t-17 -90q-20 -45 -53 -78q-37 -33 -78 -49.5t-90 -16.5t-90 17q-45 16 -78 49q-37 33 -53 78q-17 41 -17 90t16.5 90t53.5 78q33 32 78 53q41 16 90 16v4zM643 766l-147 1339q-13 115 -25 234
q-12 115 -25 229q0 70 13 127q12 53 41 98q28 46 73 70q45 25 111 25q61 0 107 -25q45 -24 73 -70q29 -45 45 -98q13 -57 13 -127q0 -53 -4 -106q-5 -58 -13 -119.5t-16 -122.5t-17 -119l-147 -1335h-82z" />
    <glyph glyph-name="quotedbl" unicode="&#x22;" 
d="M614 2343q-4 53 -8 98q-8 41 -12 65.5t-4 49.5v49q0 45 8 86t25 70q20 32 49 49q24 12 61 12t66 -12q24 -17 41 -49q20 -29 28 -70q9 -41 9 -86v-57q-5 -37 -13 -82q-4 -45 -8 -74q-4 -33 -4 -53l-53 -492q-4 -57 -21 -82q-20 -28 -45 -28q-28 0 -41 28q-16 25 -24 78z
M1196 2343q-4 53 -8 98q-8 41 -12.5 65.5t-4.5 49.5v49q0 45 8.5 86t24.5 70q21 32 49 49q25 12 62 12t65 -12q25 -17 41 -49q21 -29 29 -70t8 -86v-57q-4 -37 -12 -82q-4 -45 -8 -74q-4 -33 -4 -53l-54 -492q-4 -57 -20 -82q-21 -28 -45 -28q-29 0 -41 28q-17 25 -25 78z
" />
    <glyph glyph-name="numbersign" unicode="#" 
d="M1954 1745h-434l-78 -623h405v-204h-434l-115 -918h-204l114 918h-503l-119 -918h-205l115 918h-402v204h434l78 623h-409v205h434l114 876h205l-114 -876h507l111 876h205l-111 -876h406v-205zM811 1745l-78 -623h504l78 623h-504z" />
    <glyph glyph-name="dollar" unicode="$" 
d="M1081 82q99 8 181 53q77 41 134.5 110.5t86 160t28.5 200.5q0 94 -24 176q-29 82 -86 148q-53 69 -131 143q-82 70 -189 148v-1139zM1081 2867q78 -4 160 -16q78 -12 156 -37q82 -25 164 -53q81 -33 163 -74v-606h-82q-16 127 -61 241q-45 115 -115 209q-73 95 -168 148
q-98 49 -217 61v-1069q119 -82 217 -151q99 -70 177 -131q73 -62 143 -136q65 -73 119 -159q57 -86 86 -185q24 -102 24 -213q0 -159 -57 -290q-57 -136 -176 -242q-115 -103 -246 -152q-135 -53 -287 -53v-373h-180v373q-98 0 -188 8q-95 8 -181 29q-86 16 -163 53
q-82 33 -164 86v586h102q0 -123 45 -234q41 -110 131 -208q86 -103 193 -152q102 -49 221 -49v1241q-201 139 -336 250q-139 106 -213 184t-110.5 196.5t-36.5 282.5q0 144 53 258q49 115 152 201q106 86 229 131q123 41 262 41v270h184v-266zM897 2744q-78 -4 -147 -32
q-70 -33 -127 -95q-54 -61 -82.5 -139t-28.5 -172q0 -86 25 -152q20 -69 61 -118q45 -49 123 -115q74 -70 176 -152v975z" />
    <glyph glyph-name="percent" unicode="%" horiz-adv-x="4096" 
d="M2265 651q0 152 49 275t147.5 221t225.5 147q123 49 270 49q144 0 266.5 -49t225.5 -147q98 -98 151 -221q50 -127 50 -279q0 -160 -46 -287q-45 -127 -139 -221q-90 -90 -217 -135t-291 -45t-291 45q-126 45 -221 135q-90 94 -135 221t-45 287v4zM3314 664
q0 114 -17 217q-20 98 -57 176q-37 82 -107 123q-69 41 -176 41q-102 0 -172 -41q-73 -45 -110 -127t-54 -181q-20 -98 -20 -213q0 -159 25 -270q20 -115 69 -180.5t114.5 -98t147.5 -32.5q107 0 181 41q69 41 106 123q33 82 53 188q17 102 17 229v5zM446 2171
q0 151 49.5 274t147.5 221q98 99 225 148q123 49 271 49q143 0 266 -49t225 -148q99 -98 152 -221q49 -127 49 -278q0 -160 -45 -287t-139 -221q-91 -90 -217 -135q-127 -49 -291 -49t-291 49q-127 45 -221 135q-90 94 -135.5 221t-45.5 287v4zM1495 2183q0 115 -16 217
q-21 99 -58 176q-37 82 -106.5 123t-175.5 41q-103 0 -172 -41q-74 -45 -111 -127t-53 -180q-21 -98 -21 -213q0 -160 25 -270q20 -115 69.5 -180.5t114.5 -98.5q66 -33 148 -33q106 0 180 41q70 41 106 123q33 82 54 189q16 102 16 229v4zM1327 -41h-209l1614 2908h209z
" />
    <glyph glyph-name="ampersand" unicode="&#x26;" horiz-adv-x="3412" 
d="M1225 188h32q58 0 115 13q74 16 143.5 49t139.5 82q69 45 135 106q-90 90 -176 205q-90 111 -176 246t-164 282q-78 148 -152 308q-123 -66 -213 -140q-94 -73 -164 -151q-65 -78 -98 -172q-37 -98 -37 -209q0 -139 41 -250q41 -115 127 -201t197 -127q110 -45 250 -45v4
zM3043 1745q-90 -4 -155 -29q-66 -24 -103 -69q-37 -50 -86 -131q-53 -82 -123 -201q-65 -119 -127 -221q-61 -107 -118 -197q-54 -90 -103 -152q-49 -65 -86 -102q78 -90 164 -164q82 -73 172 -131q90 -57 180 -86q86 -29 172 -29q58 0 107 13q49 8 90 24q20 9 41 25
q20 12 45 33q20 20 41 45q20 20 41 49l65 -41q-61 -94 -131 -168q-69 -74 -151 -135q-78 -62 -160 -90q-86 -29 -172 -29q-111 0 -209 25q-102 24 -196 73q-91 49 -181 123q-94 74 -180 164q-102 -102 -209 -176q-106 -74 -217 -119t-237 -65q-132 -25 -279 -25
q-152 0 -283 41q-135 37 -245 123q-111 82 -164 205q-53 118 -53 270q0 172 61 320q57 143 176 258q119 118 279 225q159 102 360 196q-33 70 -57 144q-29 69 -49 139q-17 70 -25 143q-12 70 -12 136q0 159 49 290q45 127 139 221.5t229 143.5q132 49 304 49q110 0 200 -29
q90 -32 164 -90q74 -61 111 -139q37 -82 37 -188q0 -115 -37 -209q-41 -99 -123 -180q-78 -78 -209 -173q-131 -98 -311 -204q45 -90 110 -205q62 -119 148 -254q86 -139 168 -250q77 -111 151 -197q66 86 131 189q66 102 131 221q66 119 99 217q32 94 32 168q0 57 -12 94
q-16 37 -49 62q-29 20 -74 33q-49 12 -106 12v86h835v-82zM1430 1778q118 65 212 139q91 70 152 139q61 70 94 160q33 86 33 192q0 70 -16 127q-21 58 -58 107t-94 74q-61 24 -147 24q-78 0 -136 -24q-61 -29 -102 -82.5t-61 -114.5q-21 -65 -21 -139t12 -148q9 -73 25 -147
q20 -74 45 -152t62 -159v4z" />
    <glyph glyph-name="quotesingle" unicode="'" horiz-adv-x="1139" 
d="M840 2732q28 25 57 49q25 25 53 41q29 21 58 33q28 8 57 8q33 0 57 -8q25 -12 41 -33q21 -20 29 -45q8 -24 8 -53q0 -45 -29 -86q-32 -41 -90 -78l-639 -397h-163z" />
    <glyph glyph-name="parenleft" unicode="(" horiz-adv-x="1593" 
d="M1376 -979q-164 115 -307 242q-143 123 -262 254q-115 131 -213 290q-98 160 -172 349q-74 192 -111 413q-37 222 -37 475q0 254 37 476q37 217 111 405q74 193 172 352q94 160 217 295q119 135 262 262q139 123 303 238l58 -66q-222 -180 -373 -389q-152 -213 -234 -463
q-77 -249 -118 -524q-41 -278 -41 -586q0 -311 41 -589q36 -283 114 -521q82 -245 234 -454q151 -213 377 -389z" />
    <glyph glyph-name="parenright" unicode=")" horiz-adv-x="1593" 
d="M160 -909q221 176 372 389q152 209 230 459q82 241 123 519.5t41 585.5q0 316 -37 594q-41 275 -123 521q-78 245 -229 458q-152 209 -377 385l57 74q168 -119 311 -242q140 -127 254 -258q119 -131 217 -290q95 -160 168 -353q74 -188 115 -409q37 -226 37 -480
q0 -249 -37 -471q-37 -221 -111 -413q-73 -185 -172 -344q-98 -160 -217 -295q-123 -135 -262 -258q-143 -127 -303 -242z" />
    <glyph glyph-name="asterisk" unicode="*" 
d="M995 2150q0 66 -12 140q-16 73 -45 151t-41 131q-16 54 -16 82q0 37 8 65.5t24 53.5q21 25 50 37q24 12 61 12q33 0 61 -12q29 -12 45 -37q21 -25 29 -53q8 -33 8 -66q0 -16 -12 -69q-16 -54 -45 -148q-29 -90 -41 -164q-16 -73 -16 -127v-102l106 57q33 13 90 66
q54 49 131 135q82 86 140 131q53 41 90 41t65 -8q29 -12 49 -33q21 -16 33 -41q12 -29 12 -61q0 -41 -8 -70t-28 -45q-17 -16 -50 -29q-36 -16 -81 -24q-25 -4 -46 -9q-24 -8 -49 -12q-24 -8 -49 -12q-24 -4 -49 -12q-53 -13 -106 -29q-58 -21 -115 -53l-94 -45l102 -54
q57 -32 143 -61t201 -49q115 -25 172 -70q57 -49 57 -119q0 -28 -12 -53q-12 -29 -33 -49q-24 -20 -53 -29q-29 -12 -61 -12q-37 0 -94 45q-62 41 -144 131q-78 86 -131 139q-57 50 -82 66l-106 61v-106q0 -78 16 -152q12 -73 41 -155q33 -78 49 -127q12 -54 12 -78
q0 -37 -8 -66q-12 -32 -33 -57q-16 -25 -45 -33q-28 -12 -61 -12q-37 0 -61 12q-29 8 -50 33q-16 25 -24 57q-12 29 -12 66q0 16 16 70q12 53 41 143q33 94 49 168q12 74 12 127v110l-106 -57q-29 -20 -82 -74q-57 -53 -139 -139q-78 -86 -136 -127q-61 -45 -94 -45
q-37 0 -65 12q-33 9 -54 25q-20 20 -28 49q-12 25 -12 57q0 70 57 115q53 45 164 70q110 20 200 49q86 29 152 61l102 58l-94 49q-53 20 -110.5 40.5t-123 37t-114.5 28.5q-53 13 -86 21q-37 8 -61 20q-29 13 -50 29q-16 16 -24 45q-12 29 -12 70q0 32 12 57q8 25 33 45
q20 21 49 33q28 8 65 8q33 0 94 -45q58 -45 136 -131q82 -86 139 -135q53 -54 82 -66l106 -53v106z" />
    <glyph glyph-name="plus" unicode="+" horiz-adv-x="2458" 
d="M1126 2073h205v-934h934v-205h-934v-934h-205v934h-933v205h933v934z" />
    <glyph glyph-name="comma" unicode="," horiz-adv-x="1024" 
d="M328 -582q73 41 138.5 98.5t123 127t90.5 143.5q29 74 29 156q0 41 -17 57q-20 16 -57 16h-33q-20 -4 -45 -12q-29 -4 -41 -4h-24q-46 0 -82 12q-41 8 -74 37q-29 29 -45.5 66t-16.5 86t17 94q16 41 49 73.5t82 53.5q45 16 98 16q74 0 135 -28q62 -29 111 -86
q45 -58 70 -123q24 -70 24 -144q0 -110 -33 -209q-32 -102 -102 -188q-66 -86 -156 -160q-90 -78 -200 -143z" />
    <glyph glyph-name="hyphen" unicode="-" horiz-adv-x="1364" 
d="M184 827v279h996v-279h-996z" />
    <glyph glyph-name="period" unicode="." horiz-adv-x="1024" 
d="M512 442q49 -4 90 -20q41 -21 78 -53q33 -37 53 -78q17 -41 17 -90t-17 -90q-20 -45 -53 -78q-37 -33 -78 -49.5t-90 -16.5t-90 17q-45 16 -78 49q-37 33 -53 78q-17 41 -17 90t16.5 90t53.5 78q33 32 78 53q41 16 90 16v4z" />
    <glyph glyph-name="slash" unicode="/" horiz-adv-x="1139" 
d="M238 -66h-213l876 2958h213z" />
    <glyph glyph-name="zero" unicode="0" 
d="M1024 2765q-172 -4 -283 -103q-110 -98 -155 -290.5t-66 -421.5q-24 -234 -24 -500q0 -217 8 -389q4 -176 16 -307t49 -250q33 -123 90 -230q58 -110 152 -163q90 -54 213 -54q172 0 283 99q110 94 155 282q45 193 70 447q20 250 20 565q0 266 -24 496q-25 225 -70 421
q-45 197 -151 295q-111 99 -283 99v4zM1024 2867q242 -4 418 -114q172 -115 282 -336q111 -222 168 -463q54 -242 54 -504q0 -307 -50 -569q-53 -267 -155.5 -488t-282.5 -327.5t-434 -106.5q-258 0 -434 107q-180 106 -283 327q-102 217 -151 484q-54 262 -54 573
q0 262 53.5 503.5t163.5 463.5q107 221 283 336q176 110 422 110v4z" />
    <glyph glyph-name="one" unicode="1" 
d="M319 0v82h82h70q102 0 172 8q94 12 135 41q37 29 58 111q20 77 20 204v1762q0 82 -8 139q-8 53 -25 82q-16 25 -37 41q-24 12 -57 12t-94.5 -24.5t-155.5 -73.5q-90 -49 -139 -74q-53 -24 -61 -24l-41 81q147 74 270 144q123 65 221 127q98 57 209 131q106 70 221 156
l33 -33v-2441q0 -127 29 -201q24 -78 77 -111q54 -28 136 -45q77 -16 188 -16l90 4v-82h-1393z" />
    <glyph glyph-name="two" unicode="2" 
d="M78 0v70l794 893q152 167 254 307q99 139 152 246q49 106 78 208q24 99 24 197q0 152 -37 270q-36 115 -110 197t-184 123q-115 41 -263 41q-114 0 -213 -37q-98 -37 -180 -107q-82 -69 -139 -159q-61 -95 -98 -213l-90 20q32 180 110 328q74 147 197 258t278 168
q152 53 340 53q168 0 307 -49q136 -53 238 -156q102 -102 156 -237q49 -140 49 -307q0 -107 -21 -205q-24 -99 -69 -185q-45 -90 -107 -180q-61 -94 -139 -192.5t-143 -175.5q-66 -82 -123 -144q-54 -61 -152 -168q-102 -106 -246 -258l-299 -327h910h41q86 0 151 12
q82 12 135 41q54 33 103 98q49 62 94 164l78 -12l-234 -582h-1642z" />
    <glyph glyph-name="three" unicode="3" 
d="M614 1495h21q123 0 237 45q123 45 234 135q111 94 168 209q53 111 53 246q0 106 -29 188q-32 82 -94 144q-61 61 -143 94q-82 29 -184 29q-119 0 -218 -25q-98 -29 -172 -82q-77 -53 -143 -131q-70 -82 -131 -193l-74 58q70 155 160 278q86 123 192.5 205t245.5 127
q140 41 307 41q119 0 226 -37q106 -41 200 -114q95 -74 144 -168.5t49 -204.5q0 -94 -25 -180q-28 -86 -86 -160q-53 -78 -127 -152q-77 -78 -172 -151q127 -41 230 -107q102 -69 180 -159.5t119 -196.5q37 -107 37 -234q0 -249 -86 -442q-86 -197 -258 -332t-385 -200
q-218 -66 -476 -66q-90 0 -176 16q-86 17 -168 41q-86 33 -127 86q-41 54 -41 127q0 29 12.5 53.5t41.5 49.5q24 20 53 32.5t57 12.5q66 0 143.5 -33t168.5 -102q90 -66 167 -99q74 -37 140 -37q135 0 245 46q111 41 201 131q86 86 131 200q45 111 45 246q0 184 -61 315
q-66 132 -189 209q-122 78 -282 119q-164 37 -361 37v86z" />
    <glyph glyph-name="four" unicode="4" 
d="M1212 2408l-970 -1421h970v1421zM1933 709h-385v-709h-336v709h-1134v303l1282 1855h188v-1880h385v-278z" />
    <glyph glyph-name="five" unicode="5" 
d="M713 2826h819h16q74 0 131 29q62 29 103 90l57 -16l-180 -414h-938l-184 -410q262 -41 483 -123q221 -86 397 -217q180 -131 271 -315q86 -188 86 -430q0 -258 -86 -455q-86 -196 -254 -336q-172 -139 -385 -204q-218 -66 -484 -66q-73 0 -147 16q-78 17 -156 41
q-78 33 -115 82q-41 45 -41 111q0 53 12.5 86t41.5 49q24 16 57 24.5t70 8.5q57 0 127 -33q65 -33 139 -102q74 -66 152 -99q73 -37 151 -37q131 0 246 50q110 45 201 135q94 94 139 225t45 303q0 156 -37 283q-41 123 -123 217q-78 94 -172 164q-98 65 -209 106
q-110 41 -205 70q-98 29 -184 45t-164 33l-164 32z" />
    <glyph glyph-name="six" unicode="6" 
d="M1827 2826q-238 -24 -447 -127q-209 -106 -393 -291q-184 -184 -287 -393q-102 -209 -122 -442l8 -4q61 65 127 114q65 50 139 78q74 33 160 49q82 13 180 13q176 0 311 -62q131 -65 221 -188q95 -123 140 -279q45 -155 45 -340q0 -209 -54 -385q-53 -176 -159 -323
q-103 -148 -254 -217q-156 -70 -352 -70q-238 0 -414 90q-180 86 -299 262q-119 181 -176 398q-62 217 -62 471q0 217 49 417q45 201 144 377q98 180 217 320q115 139 254 241q139 99 266 168q127 70 242 111q114 37 241 65q123 29 258 46zM1106 61h16q111 0 189 45
q86 46 135 144t78 217q24 115 24 250q0 180 -24 340q-29 155 -86 291q-54 135 -152 204q-102 66 -246 66q-143 0 -241 -37q-99 -41 -156 -115q-53 -77 -82 -176q-29 -102 -29 -233q0 -189 29 -361q29 -176 90 -331q62 -152 176 -230q115 -78 279 -78v4z" />
    <glyph glyph-name="seven" unicode="7" 
d="M311 2826h1594l-971 -2867h-266l876 2531h-991q-78 -4 -135 -20q-58 -21 -103 -53q-41 -33 -86 -103q-45 -73 -90 -180l-90 16z" />
    <glyph glyph-name="eight" unicode="8" 
d="M1077 61h21q94 0 180 33q90 33 168 107q74 69 115 159q36 91 36 197q0 135 -69 258q-70 119 -213 221q-139 107 -254 189t-201 147q-98 -53 -172 -123q-74 -73 -131 -168q-53 -90 -78 -192q-28 -107 -28 -217q0 -144 41 -254q40 -115 126 -197q82 -82 197 -123t262 -41v4
zM1122 1634q95 41 168 107q74 65 127 151q58 82 86 176q29 91 29 189q0 119 -33 213q-33 90 -102 156q-66 69 -156 102q-94 33 -213 33q-102 0 -192 -33q-95 -33 -168.5 -98.5t-110.5 -147.5t-37 -188q0 -111 66 -213q65 -107 196 -205t217 -160q82 -61 123 -86v4zM774 1425
q-127 74 -225 156q-103 78 -172 164q-74 82 -107 184q-37 103 -37 221q0 168 61.5 299t188.5 226q123 94 275 143q147 45 323 45q148 0 279 -37q127 -41 237 -123q111 -77 168 -188q54 -115 54 -258q0 -123 -37 -221q-41 -99 -119 -168.5t-193 -143.5q-114 -73 -262 -147
q181 -123 316 -225q131 -107 217 -193q82 -86 127 -201q41 -114 41 -258q0 -172 -66 -307q-69 -139 -201 -237q-135 -103 -290 -148q-156 -49 -336 -49q-176 0 -332 41t-287 131q-127 86 -192.5 217t-65.5 303q0 135 45 250q41 115 131 209q86 94 205 172q115 78 254 139v4z
" />
    <glyph glyph-name="nine" unicode="9" 
d="M233 16q238 21 443 119q201 98 373 271q168 172 274 376q102 201 139 439l-8 12q-41 -57 -102 -98q-62 -45 -140 -74q-77 -29 -151 -41q-78 -12 -160 -12q-192 0 -336 69q-143 66 -237.5 201t-139.5 303q-49 164 -49 361q0 200 62 368q57 164 176 291q119 131 282 197
q160 65 361 65q229 0 397 -82q164 -82 275 -250q106 -164 163 -360q54 -201 54 -430q0 -197 -37 -381q-37 -189 -107 -369q-69 -176 -168 -327q-98 -152 -221 -271q-127 -119 -258 -205q-135 -90 -278 -147q-140 -49 -291 -78q-156 -29 -316 -29v82zM1450 1327q20 21 37 70
q12 49 16 127q8 78 13 151v144q0 184 -29 352q-29 164 -86 303q-58 143 -164 217q-111 70 -270 70q-136 0 -226 -54q-94 -57 -143 -163q-49 -111 -74 -238q-24 -131 -24 -278q0 -164 32 -312q33 -147 99 -278q69 -127 180 -193q111 -65 270 -65q49 0 103 8q49 8 102 24
q49 21 94 50q41 24 70 61v4z" />
    <glyph glyph-name="colon" unicode=":" horiz-adv-x="1024" 
d="M512 442q49 -4 90 -20q41 -21 78 -53q33 -37 53 -78q17 -41 17 -90t-17 -90q-20 -45 -53 -78q-37 -33 -78 -49.5t-90 -16.5t-90 17q-45 16 -78 49q-37 33 -53 78q-17 41 -17 90t16.5 90t53.5 78q33 32 78 53q41 16 90 16v4zM512 1966q49 -4 90 -20q41 -21 78 -54
q33 -37 53 -77q17 -41 17 -91q0 -49 -17 -90q-20 -45 -53 -78q-37 -36 -78 -53q-41 -16 -90 -16t-90 16q-45 17 -78 53q-37 33 -53 78q-17 41 -17 90q0 50 16.5 90.5t53.5 77.5q33 33 78 54q41 16 90 16v4z" />
    <glyph glyph-name="semicolon" unicode=";" horiz-adv-x="1024" 
d="M328 -582q73 41 138.5 98.5t123 127t90.5 143.5q29 74 29 156q0 41 -17 57q-20 16 -57 16h-33q-20 -4 -45 -12q-29 -4 -41 -4h-24q-46 0 -82 12q-41 8 -74 37q-29 29 -45.5 66t-16.5 86t17 94q16 41 49 73.5t82 53.5q45 16 98 16q74 0 135 -28q62 -29 111 -86
q45 -58 70 -123q24 -70 24 -144q0 -110 -33 -209q-32 -102 -102 -188q-66 -86 -156 -160q-90 -78 -200 -143zM512 1966q49 -4 90 -20q41 -21 78 -54q33 -37 53 -77q17 -41 17 -91q0 -49 -17 -90q-20 -45 -53 -78q-37 -36 -78 -53q-41 -16 -90 -16t-90 16q-45 17 -78 53
q-37 33 -53 78q-17 41 -17 90q0 50 16.5 90.5t53.5 77.5q33 33 78 54q41 16 90 16v4z" />
    <glyph glyph-name="less" unicode="&#x3c;" horiz-adv-x="2458" 
d="M2265 -41l-2072 959v237l2072 959v-230l-1835 -848l1835 -848v-229z" />
    <glyph glyph-name="equal" unicode="=" horiz-adv-x="2458" 
d="M2265 1335h-2072v205h2072v-205zM2265 532h-2072v205h2072v-205z" />
    <glyph glyph-name="greater" unicode="&#x3e;" horiz-adv-x="2458" 
d="M2028 1036l-1835 848v230l2072 -959v-237l-2072 -959v229z" />
    <glyph glyph-name="question" unicode="?" 
d="M934 729q0 107 29 229q28 123 81 250q58 131 115 254q53 123 107 246q57 143 90 270q28 123 28 234q0 110 -28.5 208.5t-86 180.5t-139.5 123q-86 41 -192 41q-78 0 -143 -21q-66 -20 -123 -57q-58 -41 -86.5 -86t-28.5 -98q0 -25 12 -58q13 -37 41 -86q25 -49 41 -98
q13 -49 13 -94q0 -41 -13 -74q-12 -37 -37 -57q-24 -25 -53 -33q-29 -12 -61 -12q-54 0 -94 20q-41 17 -74 57q-29 41 -45.5 90.5t-16.5 102.5q0 143 57.5 258t172.5 201q114 82 250 127q131 41 282 41q144 0 275 -49q127 -50 241 -144q115 -94 172 -209q58 -119 58 -262
q0 -139 -25 -242q-24 -106 -74 -172q-49 -65 -127 -159q-77 -99 -184 -221q-78 -99 -135 -185t-98 -164q-41 -77 -66 -168q-25 -90 -33 -188zM995 442q49 -4 90 -20q41 -21 78 -53q33 -37 54 -78q16 -41 16 -90t-16 -90q-21 -45 -54 -78q-37 -33 -78 -49.5t-90 -16.5t-90 17
q-45 16 -78 49q-36 33 -53 78q-16 41 -16 90t16 90q17 41 53 78q33 32 78 53q41 16 90 16v4z" />
    <glyph glyph-name="at" unicode="@" horiz-adv-x="4096" 
d="M1827 1393l-742 -889q-65 -86 -110 -139q-49 -58 -70 -91q-20 -28 -28 -53q-13 -24 -13 -45q0 -24 13 -41q12 -20 41 -33q24 -12 81 -16q58 -8 144 -8v-78h-1102v82h29q28 0 53 4q33 4 61 20q29 17 66 54q37 33 82 86l1118 1360l-758 766q-94 90 -176 159
q-82 66 -151 107q-66 45 -140 69q-73 25 -155 33v86h974v-82q-61 -8 -110 -16q-53 -12 -94 -21q-41 -12 -62 -32q-20 -25 -20 -62q0 -28 12 -57q12 -33 41 -66q29 -36 90 -102q62 -66 160 -160l766 -766v877q0 115 -21 196q-24 82 -69 123t-123 62q-82 20 -193 20v86h1254
v-82q-115 -4 -193 -24q-82 -21 -127 -62q-41 -41 -61 -118q-25 -82 -25 -205v-873l766 770q94 90 155.5 156t90.5 102q29 37 45 70q12 29 12 53q0 33 -24.5 57.5t-69.5 36.5q-25 9 -49.5 13t-44.5 8q-25 4 -49 8q-25 0 -49 4v86h974v-82q-139 -20 -295 -110
q-159 -94 -327 -267l-758 -761l1118 -1356q45 -57 82 -90q33 -37 62 -54q28 -16 65 -20q37 -8 82 -8v-78h-1102v82h58q53 0 90 4q57 4 82 16q24 13 36 33q13 17 13 41q0 17 -13 41q-12 25 -36.5 61.5t-65.5 94.5q-45 53 -106 127l-734 893l-8 -906q0 -127 25 -204
q20 -82 65 -123t123 -62q78 -20 193 -20v-78h-1254v82h37q90 0 160 16q78 17 119 58q45 41 69 123q21 81 21 204v910z" />
    <glyph glyph-name="A" unicode="A" horiz-adv-x="3432" 
d="M1032 1102h1073l-540 1175zM1663 2867h102l1143 -2441q29 -66 66 -123t82 -115q45 -53 118 -82q70 -28 172 -28v-78h-1208v82h41h37q57 0 102 8q54 12 82 37q33 25 49 57q17 33 17 70q0 45 -25 119q-28 69 -78 172q-49 106 -94 200q-45 95 -86 181l-1233 4
q-61 -144 -106 -258q-49 -115 -82 -201t-49 -139q-17 -58 -17 -82q0 -41 17 -70q12 -33 40.5 -57.5t90.5 -32.5q57 -12 147 -12l33 4v-82h-938v82h29q45 0 86 8q49 12 90 41q41 25 74 57q28 33 45 70q20 37 49 98q28 58 69 144z" />
    <glyph glyph-name="B" unicode="B" horiz-adv-x="2957" 
d="M578 2339q0 119 -25 201q-25 77 -74 118t-131 62q-86 20 -209 20v86h2228l25 -708h-94q-49 180 -107 295q-57 114 -118 163q-62 45 -197 70q-139 25 -348 25q-185 0 -291 -5q-111 -8 -147.5 -20t-53.5 -49q-16 -41 -16 -103v-917h410q303 -4 532 -49q225 -45 377 -139
q155 -91 233 -238q74 -152 74 -356q0 -197 -74 -344q-73 -148 -217 -250q-147 -103 -323 -152q-181 -49 -398 -49h-1495v82h41q99 0 172 16q86 17 131 58q45 37 70 118q25 82 25 209v1856zM1020 393q0 -82 16 -131q13 -49 41 -69q33 -25 111 -33q78 -13 205 -13
q217 0 368 50q152 45 238 135q86 94 131 196q41 103 41 217q0 222 -74 365q-78 139 -229.5 196.5t-364.5 86t-483 28.5v-1028z" />
    <glyph glyph-name="C" unicode="C" horiz-adv-x="3416" 
d="M553 2339q0 119 -25 201q-24 77 -73 118t-131 62q-86 20 -209 20v86h1319v-82q-127 -4 -213 -24q-91 -21 -136 -58q-45 -41 -65 -122q-25 -82 -25 -205v-1860q0 -86 25 -143q20 -62 65 -94q45 -37 115 -54q66 -16 156 -16l700 4h37q70 0 127 12q66 17 111 49q45 33 69 95
q21 57 21 143v1868q0 119 -25 201q-24 77 -74 118q-49 41 -131 62q-86 20 -209 20v86h1319v-82q-127 -4 -213 -24q-90 -21 -135 -58q-45 -41 -65 -122q-25 -82 -25 -205v-1848q0 -127 25 -208q20 -82 69 -123t135 -58q86 -20 209 -20v-856h-82q-65 270 -131 434
q-65 164 -122 225q-58 62 -152 90q-98 29 -229 29h-2470v82h41q98 0 172 16q86 17 131 58q45 37 69 118q25 82 25 209v1856z" />
    <glyph glyph-name="D" unicode="D" horiz-adv-x="2957" 
d="M1614 152h33q86 0 147 16q70 20 102 61q33 41 50 123q16 78 16 197v1745q0 102 -20.5 176t-65.5 115q-41 45 -139 65q-103 21 -258 21q-185 0 -299 -25q-119 -29 -168 -82t-70 -172q-24 -119 -24 -303q0 -533 -13 -864q-12 -336 -37 -480q-24 -139 -82 -290
q-57 -152 -147 -308zM115 82h53h25q81 0 155 29q82 32 147.5 97.5t106.5 197.5q41 126 57 315q21 192 33 397q13 205 21 418q8 217 16 377q4 160 4 270q0 180 -20.5 295t-57.5 164q-41 49 -127 73.5t-221 24.5v86h2536v-82q-127 -4 -213 -24q-90 -21 -136 -58
q-45 -41 -65 -122q-25 -82 -25 -205v-1848q0 -127 25 -208q20 -82 69.5 -123t135.5 -58q86 -20 209 -20v-856h-82q-86 270 -152 434q-69 164 -119 225q-49 62 -147 90q-98 29 -246 29h-1253q-131 0 -226 -29q-98 -28 -159 -90q-62 -57 -127 -221q-66 -168 -135 -438h-82v860
z" />
    <glyph glyph-name="E" unicode="E" horiz-adv-x="2957" 
d="M528 2339q0 119 -24 201q-25 77 -74 118t-131 62q-86 20 -209 20v86h2450l32 -618h-73q-17 119 -58 209q-41 86 -106.5 135t-163.5 74q-103 24 -234 24l-782 4q-65 -4 -106 -16t-54 -37q-12 -25 -16 -82q-8 -61 -8 -156v-786h864h33q86 0 147 20q70 21 111 62
q41 45 69 119q25 73 37 184l82 4v-958h-82q-12 102 -37 180q-24 78 -69 123q-41 45 -115 69q-74 21 -176 21l-864 4v-889q0 -106 8 -176q8 -74 25 -107q20 -32 65 -49q41 -16 107 -16l860 4h24q119 0 217 33q111 33 201 106q86 74 156 176q65 103 106 230l78 -25l-221 -692
h-2507v82h41q98 0 172 16q86 17 131 58q45 37 70 118q24 82 24 209v1856z" />
    <glyph glyph-name="F" unicode="F" horiz-adv-x="3416" 
d="M1487 492h-33q-278 0 -500 61q-233 65 -397 196.5t-242 299.5q-82 163 -82 360q0 193 82 356q82 164 246 299q164 131 397 201q230 66 529 66v131q0 78 -25 135q-28 53 -86 82q-53 33 -131 49q-82 12 -188 12v86h1302v-82q-106 -4 -184 -16q-82 -16 -139 -49
q-54 -29 -78 -82q-29 -57 -29 -139v-123q303 -4 533 -70q229 -70 393 -201t246 -295q82 -163 82 -360t-82 -360.5t-246 -294.5q-164 -136 -393 -201q-234 -66 -533 -66v-122q0 -82 29 -136q29 -57 82 -90q57 -28 139 -45q78 -16 180 -16v-78h-1302v82h41q82 0 147 12
q78 12 131 41q58 33 86 90q25 54 25 135v132zM1487 2212q-193 -4 -336 -62q-147 -57 -246 -176q-98 -114 -147 -254q-49 -143 -49 -311q0 -172 49 -311q45 -144 143 -258q94 -115 241.5 -172.5t344.5 -57.5v1602zM1929 614h25q176 0 315 54q144 57 242 172q98 118 147 262
q49 139 49 307t-49 311q-49 144 -143 258q-98 115 -242 172q-147 58 -344 58v-1594z" />
    <glyph glyph-name="G" unicode="G" horiz-adv-x="2503" 
d="M553 2339q0 119 -25 201q-24 77 -73 118t-131 62q-86 20 -209 20v86h2265l78 -741h-95q-36 143 -86 254q-49 110 -118 176q-66 70 -156 102q-94 33 -209 33l-614 4q-66 -4 -107 -16t-53 -37t-16 -82q-9 -61 -9 -156v-1876q0 -127 24.5 -208.5t74 -122.5t143.5 -58
q90 -20 225 -20v-78h-1347v82h41q98 0 172 16q86 17 131 58q45 37 69 118q25 82 25 209v1856z" />
    <glyph glyph-name="H" unicode="H" horiz-adv-x="3187" 
d="M94 2826h1299v-82q-78 -4 -136 -8q-57 -4 -98 -12t-61 -29q-21 -24 -21 -61q0 -25 4 -41q4 -21 9 -37q8 -16 28 -45q21 -33 58 -78l507 -684q156 172 275 315q119 144 209 258q86 115 131 189t45 106q0 37 -25 62q-24 24 -73.5 36.5t-98.5 20.5q-49 4 -106 4v86h1032v-82
h-29q-98 -4 -172 -24q-78 -21 -135 -62q-53 -41 -135 -123q-82 -86 -188 -213l-631 -725l766 -1036q106 -143 184 -237q78 -99 127 -148t119 -74q69 -24 160 -24v-78h-1278v82h49q45 0 86 4q57 4 106 16q49 13 74 41q25 29 25 70q0 20 -33 82q-33 57 -94 147
q-62 95 -107 164q-49 66 -82 115l-385 541q-78 -99 -164 -197t-172 -205q-86 -102 -164 -201q-81 -102 -151 -196t-103 -156q-36 -65 -36 -98q0 -37 24 -62q21 -24 62 -41q45 -16 102 -20q53 -8 127 -8v-78h-975v82h17q98 0 188 45q94 45 180 135q70 82 123 144
q49 61 90 106l737 881q-102 139 -200 282q-103 140 -209 283q-103 143 -197 270q-98 127 -184 230q-86 106 -148 168q-61 61 -98 77q-37 21 -98.5 29t-155.5 8v86z" />
    <glyph glyph-name="I" unicode="I" horiz-adv-x="3416" 
d="M553 2339q0 119 -25 201q-24 77 -73 118t-131 62q-86 20 -209 20v86h1319v-82q-127 -4 -213 -24q-91 -21 -136 -58q-45 -41 -65 -122q-25 -82 -25 -205v-1622l1426 1786q0 57 -25 106q-29 45 -78 74q-53 33 -135 49q-82 12 -201 12v86h1319v-82q-127 -4 -213 -24
q-90 -21 -135 -58q-45 -41 -65 -122q-25 -82 -25 -205v-1848q0 -127 25 -208q20 -82 69 -123t135 -58q86 -20 209 -20v-78h-1319v82h41q99 0 172 16q86 17 132 58q45 37 69 118q25 82 25 209v1712l-1426 -1781q0 -95 24.5 -160.5t74 -102t135.5 -53.5q82 -20 205 -20v-78
h-1319v82h41q98 0 172 16q86 17 131 58q45 37 69 118q25 82 25 209v1856z" />
    <glyph glyph-name="J" unicode="J" horiz-adv-x="1819" 
d="M848 2339q0 119 -25 201q-24 77 -73.5 118t-131.5 62q-86 20 -208 20v86h1319v-82q-127 -4 -213 -24q-91 -21 -136 -58q-45 -41 -65 -122q-25 -82 -25 -205v-1491q0 -205 -41 -369q-45 -164 -127 -291t-221 -188.5t-336 -61.5q-102 0 -192 25q-90 21 -172 57
q-78 45 -119 115t-41 160q0 37 12 69q13 29 37 54q25 20 57 32q29 13 70 13q53 0 94 -13q37 -12 62 -36q12 -13 24 -29q13 -16 29 -33q12 -20 25 -41q12 -24 24 -49q25 -49 45 -82q17 -37 33 -57q16 -17 45 -25q25 -12 66 -12q57 0 98 24q37 25 53 74t25 131q8 78 8 185
v1843z" />
    <glyph glyph-name="K" unicode="K" horiz-adv-x="3187" 
d="M553 2339q0 119 -25 201q-24 77 -73 118t-131 62q-86 20 -209 20v86h1319v-82q-127 -4 -213 -24q-91 -21 -136 -58q-45 -41 -65 -122q-25 -82 -25 -205v-865h66l864 869q49 45 86 86t57 69q21 29 33 54q8 24 8 49q0 45 -20.5 73.5t-65.5 41.5q-41 12 -90 20t-106 8v86
h1110v-82q-119 -4 -225 -37q-111 -32 -205 -94q-94 -65 -213 -172q-123 -106 -271 -258l-573 -581l1237 -1233q70 -74 131 -123q57 -53 106.5 -86t102.5 -54q53 -20 111 -28v-78h-1283v82h66q16 -2 31 -2q16 0 30 2q58 4 107 16q45 8 70 33q24 21 24 53q0 13 -4 29
q-8 16 -20.5 36.5t-28.5 45.5q-16 20 -37 41l-1016 1012h-82v-861q0 -127 25 -208q20 -82 69.5 -123t135.5 -58q86 -20 209 -20v-78h-1319v82h41q98 0 172 16q86 17 131 58q45 37 69 118q25 82 25 209v1856z" />
    <glyph glyph-name="L" unicode="L" horiz-adv-x="2957" 
d="M1962 2335q0 82 -20 147q-25 66 -70 107t-135 61q-95 21 -230 21q-172 0 -274 -29q-107 -33 -143.5 -90.5t-53.5 -212.5q-20 -156 -20 -410q0 -610 -33 -1011q-33 -406 -94 -599q-66 -196 -176 -290q-115 -95 -279 -95q-98 0 -172 25t-123 66q-53 45 -78 102
q-24 57 -24 123q0 123 57 188q53 62 164 62q53 0 94 -13q41 -16 70 -49q29 -28 45 -69q12 -41 12 -86q0 -74 24.5 -111t74.5 -37q45 0 86 37q36 37 65 115t45 159q12 82 12 168q9 131 21 279q8 143 12 295q8 155 12 356v443q0 249 -20 405t-61 221q-41 62 -127 94
q-91 33 -230 33v86h2450v-82q-127 -4 -213 -24q-90 -21 -136 -58q-45 -41 -65 -122q-25 -82 -25 -205v-1848q0 -127 25 -208q20 -82 69.5 -123t135.5 -58q86 -20 209 -20v-78h-1319v82h41q98 0 172 16q86 17 131 58q45 37 69 118q25 82 25 209v1852z" />
    <glyph glyph-name="M" unicode="M" horiz-adv-x="3867" 
d="M90 2826h840l1016 -2154l1011 2154h820v-82q-119 -4 -201 -24.5t-127 -65.5q-41 -41 -62 -119q-24 -81 -24 -200v-1848q0 -127 24 -204q21 -82 62 -123q45 -41 127 -62q78 -20 201 -20v-78h-1246v82h37q94 0 164 16q82 21 123 62q45 45 70 127q20 78 20 196v1905
l-1090 -2388h-69l-1090 2294l-8 -1807q0 -127 25 -204q20 -82 61 -123q45 -41 127 -62q78 -20 201 -20v-78h-1012v82h37q94 0 164 16q82 21 123 62q45 45 69 127q21 78 21 196v1856q0 115 -21 196q-20 82 -65 123q-41 41 -123 62q-86 20 -205 20v86z" />
    <glyph glyph-name="N" unicode="N" horiz-adv-x="3416" 
d="M971 487q0 -127 24 -208q21 -82 70 -123t135 -58q86 -20 209 -20v-78h-1319v82h41q98 0 172 16q86 17 131 58q45 37 70 118q24 82 24 209v1856q0 119 -24 201q-25 77 -74 118t-131 62q-86 20 -209 20v86h1319v-82q-127 -4 -213 -24q-90 -21 -135 -58q-45 -41 -66 -122
q-24 -82 -24 -205v-799h1474v803q0 119 -24 201q-25 77 -74 118t-131 62q-86 20 -209 20v86h1319v-82q-127 -4 -213 -24q-90 -21 -135 -58q-45 -41 -66 -122q-24 -82 -24 -205v-1848q0 -127 24 -208q21 -82 70 -123t135 -58q86 -20 209 -20v-78h-1319v82h41q98 0 172 16
q86 17 131 58q45 37 70 118q24 82 24 209v881h-1474v-877z" />
    <glyph glyph-name="O" unicode="O" horiz-adv-x="3416" 
d="M2703 1450q0 274 -61 504q-66 229 -188 413q-127 185 -312 279q-188 90 -434 90q-250 0 -434 -94q-189 -94 -311 -279q-127 -184 -189 -413q-61 -230 -61 -504q0 -295 57 -541t172 -438q119 -193 311 -287q189 -98 455 -98t459 98q188 94 303 291q119 197 176 442
q57 242 57 533v4zM3203 1389q0 -324 -106.5 -586t-319.5 -467q-213 -201 -479 -299q-270 -103 -590 -103q-324 0 -590 103q-266 98 -479 299q-213 205 -320 467q-106 258 -106 581q0 336 106 607q103 270 312 479t479 315q270 103 598 103t598 -103q266 -106 475 -315
t315.5 -479.5t106.5 -606.5v5z" />
    <glyph glyph-name="P" unicode="P" horiz-adv-x="3416" 
d="M553 2339q0 119 -25 201q-24 77 -73 118t-131 62q-86 20 -209 20v86h3186v-82q-127 -4 -213 -24q-90 -21 -135 -58q-45 -41 -65 -122q-25 -82 -25 -205v-1848q0 -127 25 -208q20 -82 69 -123t135 -58q86 -20 209 -20v-78h-1319v82h41q99 0 172 16q86 17 132 58
q45 37 69 118q25 82 25 209v1868q0 78 -21 135q-24 58 -69 94q-45 33 -111 54q-70 16 -160 16l-700 4q-90 -4 -160 -20q-70 -21 -115 -54q-45 -32 -65 -90q-25 -61 -25 -143v-1860q0 -127 25 -208q20 -82 69.5 -123t135.5 -58q86 -20 209 -20v-78h-1319v82h41q98 0 172 16
q86 17 131 58q45 37 69 118q25 82 25 209v1856z" />
    <glyph glyph-name="Q" unicode="Q" horiz-adv-x="4096" 
d="M2355 270q0 -32 12 -53q9 -24 33 -41q25 -16 82 -20q53 -9 144 -9q213 0 360 49.5t233 147.5q82 98 127 209q41 111 41 238q0 143 -53 258q-57 114 -168 200q-110 86 -311 131q-205 41 -500 41v-1151zM1913 2335q0 82 -21 147q-20 62 -65 103q-41 45 -123 65
q-82 21 -205 21q-172 0 -274 -29q-107 -33 -144 -90.5t-53 -212.5q-20 -156 -20 -410q0 -610 -33 -1011q-33 -406 -94 -599q-66 -196 -176 -290q-115 -95 -279 -95q-98 0 -172 25t-123 66q-53 45 -78 102q-24 57 -24 123q0 123 57 188q53 62 164 62q53 0 94 -13
q41 -16 70 -49q28 -28 45 -69q12 -41 12 -86q0 -74 24.5 -111t73.5 -37q45 0 86 37q37 37 66 115t45 159q12 82 12 168q8 131 21 279q8 143 12 295q8 155 12 356v443q0 249 -20.5 405t-61.5 221q-41 62 -127 94q-90 33 -229 33v86h2408v-82q-127 -4 -213 -24
q-90 -21 -135 -58q-45 -41 -65 -122q-25 -82 -25 -205v-758h348q254 -4 463 -45q205 -41 369 -123t246 -238q82 -155 82 -385q0 -217 -74 -368q-78 -156 -234 -246q-151 -90 -315 -131t-336 -41h-1429v82h41q98 0 172 16q86 17 131 58q45 37 69 118q25 82 25 209v1852z" />
    <glyph glyph-name="R" unicode="R" horiz-adv-x="2503" 
d="M971 487q0 -127 24 -208q21 -82 70 -123t135 -58q86 -20 209 -20v-78h-1319v82h41q98 0 172 16q86 17 131 58q45 37 70 118q24 82 24 209v1856q0 119 -24 201q-25 77 -74 118t-131 62q-86 20 -209 20v86h1270q254 -4 450 -53q193 -53 320 -152q131 -102 196.5 -233
t65.5 -299q0 -213 -74 -365q-77 -155 -233 -254q-152 -98 -348 -143q-197 -49 -434 -49l-332 4v-795zM971 1434h172h33q159 0 290 32q140 37 242 111q107 74 160 201q49 123 49 295q0 143 -41 254q-45 106 -131 184q-86 82 -197 123q-114 37 -258 37q-114 0 -184 -13
q-74 -12 -94.5 -32.5t-28.5 -85.5q-12 -66 -12 -177v-929z" />
    <glyph glyph-name="S" unicode="S" horiz-adv-x="2957" 
d="M2867 1950h-102q-41 176 -127 319q-86 144 -217 250q-127 107 -283 164q-160 53 -344 53q-262 0 -463 -94t-340 -287q-139 -188 -209 -413q-69 -230 -69 -496q0 -311 73 -561q74 -250 221.5 -434.5t348.5 -274.5q196 -94 442 -94q168 0 316 37q147 33 270 102
q123 70 242 176q114 103 225 242l69 -61q-135 -189 -274 -316q-143 -127 -295 -196q-151 -66 -299 -99q-147 -33 -291 -33q-327 0 -602 95q-278 90 -500 278q-225 193 -335.5 459t-110.5 614q0 328 111 598q106 271 327 484t496 319q274 107 606 107q94 0 193 -13
q98 -16 200 -41q107 -28 213 -53q103 -28 213 -53q54 0 86 33q29 32 37 98l82 4z" />
    <glyph glyph-name="T" unicode="T" horiz-adv-x="2736" 
d="M1147 2474q0 57 -8.5 98t-28.5 58q-16 20 -66 32q-49 9 -131 9q-221 0 -360 -25q-143 -25 -213 -70q-66 -45 -119 -163.5t-90 -311.5l-70 4l25 721h2564l25 -721h-70q-37 189 -86 308q-53 114 -123 163q-65 45 -209 70q-147 25 -364 25q-82 0 -131 -9q-50 -8 -70 -28
q-16 -17 -25 -58q-8 -41 -8 -106v-1983q0 -127 25 -208q20 -82 69 -123q50 -41 136 -58q86 -20 209 -20v-78h-1319v82h41q98 0 172 16q86 17 131 58q45 37 69 118q25 82 25 209v1991z" />
    <glyph glyph-name="U" unicode="U" horiz-adv-x="3187" 
d="M614 2380q-73 102 -135 172q-61 65 -114 94q-54 33 -127 57q-74 21 -172 37v86h1339v-82q-86 -4 -152 -12q-69 -8 -118.5 -20.5t-73.5 -36.5q-25 -29 -25 -74q0 -21 8 -41q5 -25 21 -49.5t41 -61.5q24 -41 61 -94l713 -1069l528 1057q17 29 37 65q17 37 37 82
q21 45 33 74q8 29 8 45q0 33 -24 57q-29 25 -82 41q-54 17 -103 25t-94 8v86h934v-82q-98 -4 -172 -28q-78 -29 -135 -86q-58 -54 -127 -160q-74 -107 -160 -266l-893 -1700q-98 -189 -180 -307.5t-152 -167.5q-69 -41 -151 -66q-86 -29 -185 -29q-102 0 -180 25t-131 66
q-53 45 -78 102q-28 53 -28 115q0 49 16 90t49 69q33 33 74 49.5t82 16.5q69 0 127 -37q57 -41 98 -119q45 -78 86 -114.5t78 -36.5q25 0 45 8q16 4 33 16q12 13 41 49q24 37 65 103q41 61 111 188q65 123 164 307z" />
    <glyph glyph-name="V" unicode="V" horiz-adv-x="2957" 
d="M971 1536h348h41q147 0 270 29q135 28 237.5 93.5t155.5 180.5q50 111 50 275q0 180 -58 294q-57 115 -168 164q-110 49 -266 74q-160 25 -364 25q-66 0 -111 -9q-45 -8 -78 -24q-29 -17 -41 -49q-16 -33 -16 -78v-975zM528 2339q0 119 -24 201q-25 77 -74 118t-131 62
q-86 20 -209 20v86h1446q197 -4 369 -45q168 -45 315 -127t221 -213q74 -135 74 -315q0 -123 -41 -225.5t-123 -184.5q-78 -78 -180 -131q-107 -57 -238 -86l9 -4q167 -41 299 -98q131 -62 229 -144q98 -86 147 -204q49 -123 49 -279q0 -197 -77 -344q-82 -147 -238 -242
q-160 -94 -344 -139t-401 -45h-1516v82h41q98 0 172 16q86 17 131 58q45 37 70 118q24 82 24 209v1856zM971 311q0 -53 16 -86q12 -32 41 -49q29 -16 78 -20q45 -9 111 -9l204 5h33q152 0 275 32q135 37 237 111q98 74 152 197q49 118 49 286q0 152 -58 266
q-57 111 -176 185q-114 74 -254 114q-139 37 -303 37l-405 4v-1073z" />
    <glyph glyph-name="W" unicode="W" horiz-adv-x="4096" 
d="M2470 389q0 -86 8 -135t25 -70q16 -16 61 -24q45 -13 123 -13l86 5h25q151 0 262 45q114 45 184 143q70 94 107 205q36 106 36 221q0 156 -45 266q-45 111 -131 185q-86 69 -192.5 106t-237.5 37l-311 4v-975zM553 2339q0 119 -25 201q-24 77 -73 118t-131 62
q-86 20 -209 20v86h1257v-82q-102 -4 -172 -24q-74 -21 -119 -62q-41 -41 -61 -123q-25 -81 -25 -200v-799h1033v803q0 115 -21 196q-20 82 -65 123q-41 41 -115 61.5t-176 20.5v86h1257v-82q-127 -4 -213 -24q-90 -21 -135 -58q-45 -41 -66 -122q-24 -82 -24 -205v-799h315
q283 -4 492 -57q205 -58 332 -168.5t192 -245.5q62 -135 62 -299q0 -148 -58 -279q-57 -135 -176 -254q-115 -118 -291 -176q-176 -57 -405 -57h-1282v82h32q82 0 144 16q74 21 115 62q45 41 65 123q21 77 21 200v881h-1033v-877q0 -127 25 -204q20 -82 61 -123
q45 -41 119 -62q70 -20 172 -20v-78h-1257v82h41q98 0 172 16q86 17 131 58q45 37 69 118q25 82 25 209v1856z" />
    <glyph glyph-name="X" unicode="X" horiz-adv-x="3416" 
d="M1511 0h-1396v82h41q98 0 172 16q86 17 131 58q45 37 69 118q25 82 25 209v1856q0 119 -25 201q-24 77 -73 118t-131 62q-86 20 -209 20v86h1319v-82q-127 -4 -213 -24q-91 -21 -136 -58q-45 -41 -65 -122q-25 -82 -25 -205v-1856q0 -94 21 -155q20 -66 61 -103t127 -53
q86 -21 213 -21l582 5h41q102 0 176 16q82 16 123 53t61 103q21 61 21 151v1864q0 119 -25 201q-24 77 -74 118q-49 41 -131 62q-86 20 -209 20v86h1319v-82q-127 -4 -213 -24q-90 -21 -135 -58q-45 -41 -65 -122q-25 -82 -25 -205v-1848q0 -127 25 -208q20 -82 69 -123
t135 -58q86 -20 209 -20v-78h-1396v-569h-394v569z" />
    <glyph glyph-name="Y" unicode="Y" horiz-adv-x="2277" 
d="M184 836h82q74 -168 164 -299q90 -136 193 -242q106 -107 233 -160t279 -53q114 0 213 33q94 28 172 94q77 61 118 147q37 86 37 189q0 106 -28 192q-33 86 -91 152q-61 61 -188 147t-319 197q-197 110 -340 217q-148 102 -246 200.5t-144 217.5q-49 119 -49 254
q0 172 62 315q57 139 172 242q119 106 266 160q148 49 324 49q86 0 180 -17q90 -16 180 -49q94 -33 155.5 -49t98.5 -16t57 16q17 16 17 49v12v9q-4 4 -4 8v8l82 4l94 -844h-90q-45 148 -115 279q-74 127 -172 229q-98 107 -221 160q-123 49 -266 49q-99 0 -177 -33
q-82 -32 -151 -94q-66 -61 -98 -139q-33 -82 -33 -176q0 -111 53 -201q53 -94 160 -168q106 -78 245.5 -164t307.5 -184t299 -193q127 -98 217 -192q90 -98 135 -213t45 -250q0 -172 -61 -311q-66 -144 -189 -258q-127 -115 -282 -168q-156 -58 -340 -58q-70 0 -148 13
q-82 8 -176 28q-90 17 -180 37q-90 17 -180 37q-21 0 -37 -4q-21 -8 -37.5 -20.5t-24.5 -24.5q-12 -16 -12 -41h-78z" />
    <glyph glyph-name="Z" unicode="Z" horiz-adv-x="2732" 
d="M958 1536h50q176 0 323 25q164 28 295 81q131 58 197 185q65 123 65 323q0 131 -37 238q-41 102 -122 184q-78 82 -193 123t-258 41q-164 0 -303 -49t-254 -147.5t-209 -249.5q-94 -156 -168 -365l-82 4l70 963h78q8 -45 16 -78q4 -33 12 -57.5t33 -37t61 -12.5
q119 37 230 70q106 29 209 57q106 25 213 41q106 13 221 13q225 0 397 -54q172 -57 291 -163q119 -111 180 -238q58 -127 58 -270q0 -123 -45 -230q-45 -106 -136 -200q-90 -95 -225 -156q-139 -61 -323 -86q184 -4 340 -53q151 -54 266 -160q119 -102 176 -229t57 -271
q0 -176 -69 -323q-74 -152 -218 -275q-139 -127 -344 -184q-204 -62 -471 -62q-213 0 -389 37t-319 111q-139 78 -275 184q-135 107 -258 242l123 115q94 -107 209 -193q111 -90 238 -160q131 -65 266 -98q131 -37 270 -37q172 0 311.5 45t241.5 135q107 95 160 209
q49 115 49 254q0 197 -70 320q-73 123 -217 176q-143 53 -323 82q-180 24 -398 24v156z" />
    <glyph glyph-name="bracketleft" unicode="[" horiz-adv-x="4096" 
d="M553 2339q0 119 -25 201q-24 77 -73 118t-131 62q-86 20 -209 20v86h1196v-82q-94 -4 -156 -20q-65 -17 -98 -49q-29 -29 -45 -86q-17 -62 -17 -144v-1994q0 -86 25 -144q20 -61 65 -94t127 -49.5t201 -16.5t201 16.5t123 49.5q45 33 69 90q21 57 21 143v2003
q0 82 -12 144q-17 57 -50 86q-28 33 -94 49q-65 12 -160 12v86h1074v-82q-95 -4 -156 -20q-66 -17 -98 -49q-29 -29 -45 -86q-17 -62 -17 -144v-1994q0 -86 25 -144q20 -61 65 -94t127 -49.5t197 -16.5q119 0 201 16.5t127 49.5t69 90q21 57 21 143v2003q0 82 -13 144
q-16 57 -49 86q-28 33 -94 49q-66 12 -160 12v86h1196v-82q-127 -4 -213 -24q-90 -21 -135 -58q-45 -41 -65 -122q-25 -82 -25 -205v-1848q0 -127 25 -208q20 -82 69 -123t135 -58q86 -20 209 -20v-78h-3866v82h41q98 0 172 16q86 17 131 58q45 37 69 118q25 82 25 209v1856
z" />
    <glyph glyph-name="backslash" unicode="\" horiz-adv-x="2503" 
d="M553 2339q0 119 -25 201q-24 77 -73 118t-131 62q-86 20 -209 20v86h2265l78 -741h-95q-36 143 -86 254q-49 110 -118 176q-66 70 -156 102q-94 33 -209 33l-614 4q-66 -4 -107 -16t-53 -37t-16 -82q-9 -61 -9 -156v-1876q0 -127 24.5 -208.5t74 -122.5t143.5 -58
q90 -20 225 -20v-78h-1347v82h41q98 0 172 16q86 17 131 58q45 37 69 118q25 82 25 209v1856zM1401 3641q29 25 57 49q25 25 53 41q29 21 58 33q28 8 57 8q33 0 57 -8q25 -12 41 -33q21 -20 29 -45q8 -24 8 -53q0 -45 -28 -86q-33 -41 -91 -78l-638 -397h-164z" />
    <glyph glyph-name="bracketright" unicode="]" horiz-adv-x="3187" 
d="M553 2339q0 119 -25 201q-24 77 -73 118t-131 62q-86 20 -209 20v86h1319v-82q-127 -4 -213 -24q-91 -21 -136 -58q-45 -41 -65 -122q-25 -82 -25 -205v-865h66l864 869q49 45 86 86t57 69q21 29 33 54q8 24 8 49q0 45 -20.5 73.5t-65.5 41.5q-41 12 -90 20t-106 8v86
h1110v-82q-119 -4 -225 -37q-111 -32 -205 -94q-94 -65 -213 -172q-123 -106 -271 -258l-573 -581l1237 -1233q70 -74 131 -123q57 -53 106.5 -86t102.5 -54q53 -20 111 -28v-78h-1283v82h66q16 -2 31 -2q16 0 30 2q58 4 107 16q45 8 70 33q24 21 24 53q0 13 -4 29
q-8 16 -20.5 36.5t-28.5 45.5q-16 20 -37 41l-1016 1012h-82v-861q0 -127 25 -208q20 -82 69.5 -123t135.5 -58q86 -20 209 -20v-78h-1319v82h41q98 0 172 16q86 17 131 58q45 37 69 118q25 82 25 209v1856zM1864 3641q28 25 57 49q25 25 53 41q29 21 58 33q28 8 57 8
q33 0 57 -8q25 -12 41 -33q21 -20 29 -45q8 -24 8 -53q0 -45 -29 -86q-32 -41 -90 -78l-639 -397h-163z" />
    <glyph glyph-name="asciicircum" unicode="^" horiz-adv-x="3187" 
d="M2146 1348q-127 -50 -233 -82q-107 -37 -193 -58q-90 -24 -188 -32q-102 -13 -221 -13q-176 0 -320 37q-143 33 -250 103q-106 69 -159 192q-54 119 -54 283v561q0 119 -24 201q-25 77 -74 118t-131 62q-86 20 -209 20v86h1258v-82q-103 -4 -172 -24q-74 -21 -119 -62
q-41 -41 -62 -123q-24 -81 -24 -200v-520q0 -242 131 -361q127 -119 389 -119q94 0 172 8q74 5 139 17q66 12 152 36.5t192 61.5v881q0 115 -20 196q-21 82 -66 123q-41 41 -114.5 61.5t-176.5 20.5v86h1258v-82q-127 -4 -213 -24q-90 -21 -135 -58q-45 -41 -66 -122
q-24 -82 -24 -205v-1848q0 -127 24 -208q21 -82 70 -123t135 -58q86 -20 209 -20v-78h-1319v82h41q98 0 172 16q86 17 131 58q45 37 70 118q24 82 24 209v865z" />
    <glyph glyph-name="underscore" unicode="_" 
d="M0 -512v205h2048v-205h-2048z" />
    <glyph glyph-name="grave" unicode="`" horiz-adv-x="3187" 
d="M1413 926q-16 -8 -33 -17q-16 -12 -37 -32q-20 -17 -45 -37q-24 -25 -49 -54l-454 -491q-29 -33 -50 -57l-36 -45q-17 -17 -25 -29q-8 -17 -8 -29q0 -16 12 -24q8 -13 25 -21q20 -4 57 -8t90 -4v-78h-840v82h33q29 0 49 4q29 4 45 16q17 13 41 37q25 21 58 58l819 884
l-754 664q-37 29 -61 49q-29 16 -49 25q-17 8 -49 16q-37 4 -86 4v86h786v-82h-139q-45 -4 -66 -20q-24 -21 -24 -58q0 -28 32 -77q29 -54 94.5 -123.5t233.5 -221.5q164 -155 430 -389v648q0 69 -16 118q-21 45 -54 70q-36 25 -94 37q-57 12 -139 12v86h967v-82
q-82 -4 -140 -16q-61 -12 -94 -37q-37 -25 -53 -70q-16 -49 -16 -123v-639q278 246 450 402q168 156 225 217q58 61 86 111q29 45 29 77q0 37 -20 58q-25 16 -70 16l-139 4v82h786v-82q-53 -4 -86 -4q-37 -4 -53 -12q-16 -4 -41 -25q-29 -24 -66 -61l-753 -660l819 -880
q33 -37 57 -62q21 -24 37 -37q17 -12 49 -16q33 -8 82 -8v-78h-839v82q49 -4 86 -4q32 0 52.5 4t33.5 16q12 13 12 37q0 12 -29 53q-33 37 -90 103l-455 500q-16 12 -36 32q-21 21 -50 45q-28 25 -45 37q-20 13 -32 17v-598q0 -78 16 -127.5t53 -73.5q33 -25 94 -33
q58 -12 140 -12v-78h-967v82h37q57 0 102 8q58 8 94 33q33 24 54 74q16 49 16 122v607z" />
    <glyph glyph-name="a" unicode="a" 
d="M1298 1118q-200 -86 -344 -151q-147 -70 -233 -119q-86 -53 -127 -135q-45 -86 -45 -205q0 -86 24 -148q21 -65 66 -110t111 -66q61 -24 147 -24q45 0 90 12q41 8 86 25q45 20 82 40.5t62 45.5q24 20 40 41q17 16 25 28q8 13 12 33q4 21 4 45v688zM1659 356q0 -45 4 -82
q4 -36 16 -61q13 -29 37 -41q25 -12 62 -12q20 0 41 8q20 4 36 16q21 13 41 29q17 16 33 41l49 -41q-82 -131 -188 -193q-111 -61 -242 -61q-53 0 -94 21q-45 20 -78 57q-37 41 -53 90q-16 45 -16 98q-86 -61 -164 -110q-82 -49 -164 -86q-78 -33 -160 -49q-86 -21 -172 -21
q-98 0 -180 28.5t-148 94.5q-65 61 -98 143t-33 181q0 151 66 270q65 115 192 201q132 81 345 167q208 86 507 177v217q0 106 -20 188q-21 78 -61.5 123t-106.5 70q-66 20 -160 20q-53 0 -106 -8q-53 -12 -103 -33q-49 -20 -73 -53q-25 -37 -25 -82l8 -131q0 -53 -12 -90
q-12 -41 -33 -74q-24 -29 -61 -41q-37 -16 -90 -16q-41 0 -74 12q-37 12 -57.5 41t-28.5 66q-12 36 -12 81q0 111 57 197q57 82 172 139q115 58 233 86q119 29 242 29q180 0 311 -41q127 -45 205 -127q78 -86 119 -209q37 -123 37 -282v-947z" />
    <glyph glyph-name="b" unicode="b" horiz-adv-x="2277" 
d="M2032 2892q0 -94 -21 -168q-20 -78 -61 -139.5t-90.5 -102.5t-106.5 -61.5t-147 -32.5q-95 -12 -226 -12q-127 -4 -241 -9q-115 -8 -213.5 -20t-192.5 -86t-184 -217q-90 -139 -135 -287q-45 -151 -45 -307l8 -4q82 115 164 209q77 94 163.5 163.5t196.5 106.5
q107 37 234 37q233 0 417 -70q181 -69 308 -204q131 -136 196 -320q66 -184 66 -418q0 -209 -70 -385q-74 -180 -217 -323q-139 -144 -315.5 -213.5t-384.5 -69.5q-172 0 -328 66q-160 65 -307 204q-148 136 -221.5 357t-73.5 520q0 311 61 586q62 274 184.5 511.5
t323.5 356.5q197 119 471 119l397 4h33q54 0 99 8q53 8 85.5 28.5t57.5 65.5q20 41 33 103zM1212 82h17q114 0 205 53q94 53 159 164q70 111 103 233q33 123 33 259q0 204 -37 389q-37 180 -107 340q-69 159 -184 241q-119 78 -287 78q-139 0 -242 -53q-106 -57 -176 -164
q-65 -111 -98 -242t-33 -286q0 -189 41 -361q41 -176 119 -336q82 -159 205 -237q119 -82 282 -82v4z" />
    <glyph glyph-name="c" unicode="c" horiz-adv-x="2277" 
d="M389 1602q0 69 -16 118q-21 45 -54 70q-36 25 -94 37q-57 12 -139 12v86h946v-82q-78 -4 -131 -16t-86 -37t-49 -70q-16 -49 -16 -123v-1204q0 -78 16 -127q12 -53 41 -86q29 -28 78 -45q45 -16 110 -16l287 4h25q53 0 90 12q45 12 73 41q29 33 46 86q12 49 12 127v1213
q0 65 -17 114q-20 49 -53 74t-86 37t-127 12v86h946v-82q-82 -4 -139 -16q-61 -12 -94 -37q-37 -25 -53 -70q-17 -49 -17 -123v-1273q0 -78 16.5 -127.5t53.5 -73.5q33 -25 94 -33q57 -12 139 -12v-721h-102q-74 233 -123 373q-49 135 -82 180q-29 45 -82 70q-57 20 -135 20
h-1581v82h37q57 0 102 8q58 8 94 33q33 24 54 74q16 49 16 122v1283z" />
    <glyph glyph-name="d" unicode="d" 
d="M1008 123h24q58 0 103 16q49 17 77 54q29 36 45 90q13 49 13 114v1184q0 53 -13 98q-12 41 -36.5 65.5t-73.5 41.5q-53 12 -127 12q-107 0 -176 -12q-74 -17 -107 -41q-32 -25 -49 -78q-16 -57 -16 -143q0 -291 -8.5 -512t-28.5 -377q-17 -152 -53 -279
q-37 -131 -95 -237zM86 82h25q53 0 98 16q53 17 94 58t74 110q29 66 49 156q20 94 33 188q12 95 16 197q8 102 12 291v454q0 90 -12 148q-16 57 -45 86q-29 24 -98 41q-70 12 -176 12v86h1777v-82q-82 -4 -139 -16q-61 -12 -94 -37q-37 -25 -53 -70q-17 -49 -17 -123v-1306
q0 -70 12 -111q13 -41 41 -61q25 -21 74 -29q49 -12 123 -12v-725h-102q-41 192 -86 323q-50 127 -99 192.5t-114.5 98.5t-147.5 33h-700q-78 0 -144 -29q-69 -32 -118.5 -98t-94.5 -192q-45 -132 -86 -328h-102v729z" />
    <glyph glyph-name="e" unicode="e" 
d="M1409 1307q0 118 -25 217q-28 94 -77 168q-54 73 -136 110q-86 37 -204 37q-99 0 -185 -41q-86 -45 -159 -127q-74 -86 -111 -176q-37 -94 -37 -192zM467 1184v-17q-4 -8 -4 -12v-12v-17v-24v-21q0 -82 16 -168q17 -90 45 -184q33 -94 86 -176q54 -82 131 -152
q78 -65 177 -98q94 -37 208 -37q119 0 226 29q102 29 188 90t160 139t135 172l70 -41q-70 -151 -160 -274q-94 -127 -205 -225q-110 -103 -237 -148q-127 -49 -271 -49q-205 0 -364 66q-160 61 -279 188q-115 131 -172 299q-61 164 -61 373q0 221 61 409q57 189 176 348
q119 160 287 242q168 78 381 78q164 0 299 -57q131 -58 233 -168q107 -111 160 -250q49 -139 49 -307z" />
    <glyph glyph-name="f" unicode="f" horiz-adv-x="3187" 
d="M1413 201q-57 -70 -110.5 -115t-102.5 -74q-49 -24 -106 -37q-62 -16 -131 -16q-205 0 -357 86q-155 82 -254 258q-98 176 -147 348t-49 344q0 217 49 393.5t147 307.5q99 131 234 200q131 66 295 66q94 0 172 -16q73 -21 135 -58q57 -37 115 -82q57 -49 110 -110v737
q0 57 -12 102q-17 41 -45.5 66t-73.5 41q-49 12 -119 12l-53 4v82q78 8 168 33q90 20 192 53q103 33 181 58q73 24 123 41v-1225q57 57 114 106q54 49 107 86q57 33 135 54q78 16 176 16q160 0 291 -66q127 -69 229 -200q103 -135 156 -307q49 -177 49 -394q0 -172 -49 -344
t-148 -348q-98 -176 -249 -258q-156 -86 -361 -86q-70 0 -127 16q-61 13 -110 37q-50 29 -103 74t-110 111v-828q0 -74 16 -119q16 -49 53 -73q33 -25 94 -37q58 -12 140 -12v-82h-967v82q82 0 139 12q58 12 94 37q33 24 54 73q16 45 16 119v832zM1413 1389q0 86 -29 155
q-28 66 -86 115q-57 49 -122 74q-70 24 -144 24q-114 0 -205 -57q-90 -58 -151 -176q-66 -115 -94 -271q-33 -159 -33 -352q0 -201 33 -348q32 -152 97.5 -250t147.5 -147q78 -50 172 -50q99 0 177 33q73 29 127 94q57 66 86 160q24 90 24 213v783zM1774 610q0 -127 28 -221
q25 -94 78 -156q53 -65 131 -94q74 -33 176 -33q94 0 176 50q78 45 143.5 143t98.5 249.5t33 352.5q0 193 -33 352q-33 156 -94 271q-62 118 -148 176q-90 57 -209 57q-77 0 -143 -24q-65 -25 -123 -74q-57 -49 -86 -115q-28 -69 -28 -160v-774z" />
    <glyph glyph-name="g" unicode="g" horiz-adv-x="1819" 
d="M389 1602q0 69 -16 118q-21 45 -54 70q-36 25 -94 37q-57 12 -139 12v86h1622l25 -631h-70q-37 140 -78 234q-45 94 -98 143t-168 73.5t-295 24.5q-98 0 -156 -4q-57 -4 -77 -12q-21 -4 -29 -24q-12 -21 -12 -54v-1351q0 -78 20 -127q16 -50 57 -74.5t115 -32.5
q70 -12 172 -12v-78h-1028v82h37q57 0 102 8q58 8 94 33q33 24 54 74q16 49 16 122v1283z" />
    <glyph glyph-name="h" unicode="h" 
d="M864 922l-368 553q-123 180 -226 274q-102 90 -184 90v86h922v-82q-54 -4 -90 -8q-41 -8 -66 -20q-29 -13 -41 -33.5t-12 -52.5q0 -17 4 -37q4 -25 16 -45q12 -25 32.5 -58t49.5 -78l189 -294l180 253q33 46 57 82q25 33 37 57.5t20 49.5q5 24 5 53t-13 53q-12 21 -33 37
q-24 21 -61 29t-86 8v86h750v-82q-78 -4 -144 -28q-65 -25 -119 -70q-53 -49 -114 -119q-62 -74 -135 -172l-263 -340l406 -631q74 -118 127 -196t90 -123q37 -41 86 -62q49 -24 111 -24v-78h-910v82h62q16 -2 30 -2q15 0 27 2q45 4 70 16q20 13 32.5 29t12.5 41
q0 33 -33 94q-33 62 -94 160l-250 381l-283 -397q-61 -91 -90 -148q-28 -61 -28 -94q0 -41 49 -62q45 -24 143 -24v-78h-672v82h21q53 0 98 16q49 17 90 58q37 41 90 102q50 61 115 148z" />
    <glyph glyph-name="i" unicode="i" horiz-adv-x="2277" 
d="M389 1602q0 69 -16 118q-21 45 -54 70q-36 25 -94 37q-57 12 -139 12v86h967v-82q-82 -4 -140 -16q-61 -12 -94 -37q-37 -25 -53 -70q-16 -49 -16 -123v-1077l778 1114q0 58 -17 99q-20 41 -57 61q-37 21 -90 33q-57 12 -139 12v86h966v-82q-82 -4 -139 -16
q-61 -12 -94 -37q-37 -25 -53 -70q-17 -49 -17 -123v-1273q0 -78 16.5 -127.5t53.5 -73.5q33 -25 94 -33q57 -12 139 -12v-78h-966v82h37q57 0 102 8q57 8 94 33q33 24 53 74q17 49 17 122v1086l-778 -1114q0 -66 16 -107q16 -45 53 -65.5t99 -28.5q57 -12 135 -12v-78h-967
v82h37q57 0 102 8q58 8 94 33q33 24 54 74q16 49 16 122v1283z" />
    <glyph glyph-name="j" unicode="j" horiz-adv-x="1139" 
d="M389 1470q0 58 -12 103q-17 41 -45 65q-29 25 -74 41q-49 13 -119 13l-53 4v82q78 8 168 32q90 21 192 54q103 32 181 57q73 25 123 41v-1860q0 -147 -13 -278q-16 -135 -49 -258q-29 -123 -74 -209q-49 -90 -110.5 -143.5t-110.5 -86t-90 -49.5q-41 -16 -86 -24
q-49 -8 -106 -8q-62 0 -107 20q-45 21 -86 57q-41 37 -61 78q-21 37 -21 82q0 41 12 78q9 33 29 53q21 25 49 37q29 8 62 8q53 0 90 -28q33 -29 49 -90q16 -58 28.5 -95t24.5 -49q13 -12 33 -20q16 -8 45 -8q37 0 61 24q25 21 41 66q13 41 21 102t8 139v1970zM569 2929
q45 -4 86 -21q41 -16 70 -49q33 -29 49 -70q17 -41 17 -86q0 -49 -17 -86q-16 -41 -49 -73q-29 -29 -70 -45.5t-86 -16.5q-49 0 -86 17q-41 16 -73 45q-29 32 -45 73q-17 37 -17 86q0 45 16.5 86t45.5 70q32 33 73 49q37 17 86 17v4z" />
    <glyph glyph-name="k" unicode="k" horiz-adv-x="2277" 
d="M418 1602q0 69 -17 118q-20 45 -53 70q-37 25 -94 37t-139 12v86h966v-82q-82 -4 -139 -16q-61 -12 -94 -37q-37 -25 -53 -70q-17 -49 -17 -123v-626q37 8 139.5 98t266.5 254l258 258q86 90 98 107l16 32q5 13 5 25q0 33 -17 53q-20 17 -57 25t-78 12t-90 4v86h827v-82
q-65 -4 -118 -16q-58 -12 -99 -33q-41 -20 -110 -78q-70 -61 -177 -155l-520 -471l828 -861q37 -45 69 -73q33 -29 57.5 -41.5t65.5 -24.5t99 -24v-66h-930v70h61q14 -2 27 -2q14 0 26 2q41 0 58 4q20 8 28 16q9 8 9 25q0 8 -25 45q-29 37 -78 102q-53 62 -139 160
q-86 94 -205 221t-192.5 192.5t-102.5 69.5v-581q0 -78 16.5 -127.5t53.5 -73.5q33 -25 94 -33q57 -12 139 -12v-78h-966v82h37q57 0 102 8q57 8 94 33q33 24 53 74q17 49 17 122v1283z" />
    <glyph glyph-name="l" unicode="l" horiz-adv-x="2277" 
d="M1819 324q0 -78 16 -127.5t53 -73.5q33 -25 94 -33q58 -12 140 -12v-78h-967v82h37q57 0 102 8q58 8 95 33q32 24 53 74q16 49 16 122v1217q0 70 -12 119q-16 45 -49 69q-29 21 -90.5 33t-151.5 12q-57 0 -98 -4q-45 -8 -70 -16q-29 -8 -49 -25q-20 -16 -37 -41
q-16 -24 -29 -61q-12 -37 -20 -90t-12 -143q-4 -91 -4 -222q0 -348 -25 -585q-29 -238 -86 -369q-53 -127 -139 -188q-86 -66 -205 -66q-66 0 -123 21q-57 16 -106 45q-54 36 -78.5 89.5t-24.5 123.5q0 45 12 77q13 33 37 62q25 24 54 41q28 12 65 12q70 0 115 -33
q41 -32 61 -102q21 -66 45 -98q25 -37 49 -37q50 0 86 78q37 77 62 229q24 156 37 356q12 197 12 443v147q0 119 -12 205q-17 86 -49 131q-29 45 -99 70q-73 20 -184 20v86h1782v-82q-82 -4 -140 -16q-61 -12 -94 -37q-37 -25 -53 -70q-16 -49 -16 -123v-1273z" />
    <glyph glyph-name="m" unicode="m" horiz-adv-x="2736" 
d="M389 1602q0 69 -16 118q-21 45 -54 70q-36 25 -94 37q-57 12 -139 12v86h623l684 -1409l594 1409h663v-82q-82 -4 -139 -16q-62 -12 -94 -37q-37 -25 -54 -70q-16 -49 -16 -123v-1273q0 -78 16 -127q17 -50 54 -74q32 -25 94 -33q57 -12 139 -12v-78h-967v82h37
q58 0 103 8q57 8 94 33q33 24 53 74q17 49 17 122v1237l-701 -1556h-45l-692 1446l-8 -1122q0 -78 16 -127.5t53 -73.5q33 -25 95 -33q57 -12 139 -12v-78h-758v82h37q57 0 102 8q58 8 94 33q33 24 54 74q16 49 16 122v1283z" />
    <glyph glyph-name="n" unicode="n" horiz-adv-x="2277" 
d="M389 1602q0 69 -16 118q-21 45 -54 70q-36 25 -94 37q-57 12 -139 12v86h946v-82q-78 -4 -131 -16t-86 -37t-49 -70q-16 -49 -16 -123v-536h778v541q0 65 -17 114q-20 49 -53 74t-86 37t-127 12v86h946v-82q-82 -4 -139 -16q-61 -12 -94 -37q-37 -25 -53 -70
q-17 -49 -17 -123v-1273q0 -78 16.5 -127.5t53.5 -73.5q33 -25 94 -33q57 -12 139 -12v-78h-946v82h33q53 0 98 8q54 8 86 33q33 24 49 74q17 49 17 122v590h-778v-585q0 -78 16 -123q16 -49 49 -74t90 -37q53 -12 127 -12v-78h-946v82h37q57 0 102 8q58 8 94 33
q33 24 54 74q16 49 16 122v1283z" />
    <glyph glyph-name="o" unicode="o" horiz-adv-x="2277" 
d="M1212 82h17q114 0 205 53q94 53 159 164q70 111 103 233q33 123 33 259q0 204 -37 389q-37 180 -107 340q-74 159 -192 241q-119 78 -287 78q-148 0 -250 -53q-106 -57 -176 -164q-66 -106 -98 -238q-33 -135 -33 -290q0 -189 41 -361q41 -176 119 -336q82 -159 209 -237
q122 -82 294 -82v4zM1135 1966q233 -4 417 -74q181 -69 308 -204q131 -136 196 -320q66 -184 66 -418q0 -209 -70 -385q-74 -180 -217 -323q-139 -144 -315.5 -213.5t-384.5 -69.5q-213 0 -390 70q-180 69 -315 209q-139 143 -205 323q-69 176 -69 389q0 209 69 389
q70 177 209 324q144 147 320 225q172 74 381 74v4z" />
    <glyph glyph-name="p" unicode="p" horiz-adv-x="2277" 
d="M389 1602q0 69 -16 118q-21 45 -54 70q-36 25 -94 37q-57 12 -139 12v86h2105v-82q-82 -4 -139 -16q-61 -12 -94 -37q-37 -25 -53 -70q-17 -49 -17 -123v-1273q0 -78 16.5 -127.5t53.5 -73.5q33 -25 94 -33q57 -12 139 -12v-78h-946v82h33q53 0 98 8q54 8 86 33
q33 24 49 74q17 49 17 122v1209q0 69 -12 123q-17 53 -46 82q-28 32 -73 49q-49 12 -115 12l-287 4q-65 -4 -114 -16q-50 -17 -78 -49q-29 -29 -41 -82.5t-12 -126.5v-1200q0 -78 16 -123q16 -49 49 -74t90 -37q53 -12 127 -12v-78h-946v82h37q57 0 102 8q58 8 94 33
q33 24 54 74q16 49 16 122v1283z" />
    <glyph glyph-name="q" unicode="q" horiz-adv-x="3187" 
d="M1495 1536q0 70 -12 119q-17 45 -49 69q-29 21 -91 33q-61 12 -151 12q-57 0 -98 -4q-45 -8 -70 -16q-29 -8 -49 -25q-21 -16 -37 -41q-16 -24 -29 -61q-12 -37 -20 -90t-12.5 -143.5t-4.5 -221.5q0 -348 -24 -585q-29 -238 -86 -369q-53 -127 -139 -188
q-86 -66 -205 -66q-66 0 -123 21q-57 16 -107 45q-53 36 -77.5 89.5t-24.5 123.5q0 45 12 77q13 33 37 62q25 24 53 41q29 12 66 12q70 0 115 -33q41 -32 61 -102q21 -66 45 -98q25 -37 49 -37q49 0 86 77.5t62 229.5q24 156 37 356q12 197 12 443v147q0 119 -12 205
q-17 86 -50 131q-28 45 -98 70q-74 20 -184 20v86h1782v-82q-82 -4 -140 -16q-61 -12 -94 -37q-37 -25 -53 -70q-17 -49 -17 -123v-536h373q185 -4 332 -37t254 -94q106 -66 164 -164q53 -102 53 -246q0 -127 -49 -221q-53 -98 -156 -168q-102 -65 -229 -98t-279 -33h-1126
v82h37q57 0 102 8q58 8 94 33q33 24 54 74q16 49 16 122v1217zM1855 238q0 -45 12.5 -70t37 -33t77.5 -12q54 -4 140 -4q135 0 233 33q99 32 160 97.5t94 139.5q29 74 29 156q0 90 -37 160q-41 69 -115 122q-78 54 -184 82q-107 25 -242 25l-205 4v-700z" />
    <glyph glyph-name="r" unicode="r" horiz-adv-x="2277" 
d="M713 352q24 -65 73 -114q45 -50 115 -86.5t139 -53.5q70 -20 144 -20q143 0 250 61q106 62 180 184.5t110 262.5q37 135 37 286q0 168 -37 316q-36 143 -110 270q-74 123 -189 189q-114 61 -270 61q-78 0 -151 -25q-74 -24 -144 -73q-65 -49 -102 -99q-37 -49 -45 -102
v-1057zM352 1470q0 58 -12 103q-16 41 -45 65q-29 25 -74 41q-49 13 -119 13l-53 4v82q78 8 168 32q90 21 192.5 53.5t180.5 57.5q74 25 123 41v-340q57 70 131 131q69 62 147 111q82 49 168 73q82 25 172 25q180 0 328 -61q143 -66 250 -197q106 -127 159 -283
q54 -159 54 -348q0 -221 -62 -418q-65 -196 -196 -364q-127 -168 -295 -250q-172 -82 -389 -82q-78 0 -140 8q-65 8 -122 21q-54 12 -103 37q-53 24 -102 65v-721q0 -74 16 -119q16 -49 53 -73q33 -25 95 -37q57 -12 139 -12v-82h-967v82q82 0 139 12q58 12 95 37
q32 24 53 73q16 45 16 119v2101z" />
    <glyph glyph-name="s" unicode="s" horiz-adv-x="1819" 
d="M1806 614q-86 -168 -176 -290.5t-188.5 -204.5t-220.5 -119q-127 -41 -283 -41q-147 0 -279 57q-135 58 -258 181q-122 122 -184 311q-61 188 -61 438q0 217 65 402q66 180 201 323q135 144 307 217q168 74 377 74q119 0 225 -25q107 -28 201 -77.5t143 -123t49 -171.5
q0 -49 -12 -86q-16 -37 -45 -70q-29 -29 -61 -45q-37 -16 -78 -16q-49 0 -86 16q-41 12 -74 41q-29 33 -45 78t-16 106q0 58 -21 99q-20 36 -61 65t-90 45q-50 12 -111 12q-127 0 -225 -53q-103 -57 -172 -164q-66 -110 -99 -233q-36 -123 -36 -258q0 -164 40 -311
q41 -148 127 -275q82 -127 205 -188q119 -62 275 -62q94 0 180 29q82 24 159.5 77.5t139 123t106.5 159.5z" />
    <glyph glyph-name="t" unicode="t" 
d="M508 82h45q65 0 115 8q65 8 102 32.5t57 74.5q17 49 17 122v1393q0 21 -4 41q-9 16 -21 24.5t-33 16.5q-24 4 -61 4q-127 0 -225 -37q-99 -41 -168 -119q-74 -77 -107 -176q-37 -98 -37 -217l-98 4l33 672h1802l33 -672h-98q0 115 -37 213q-37 95 -107 172
q-74 82 -172 123q-98 37 -221 37q-41 0 -66 -4q-24 -4 -32 -12q-13 -8 -17 -25q-4 -20 -4 -49v-1384q0 -78 21 -127q16 -50 53 -74.5t106 -32.5q66 -12 156 -12v-78h-1032v82z" />
    <glyph glyph-name="u" unicode="u" 
d="M315 1585q-28 62 -57 111t-53 78q-25 32 -62 48.5t-86 16.5v86h881v-82q-123 -4 -180 -37q-62 -32 -62 -98q0 -16 4 -41q5 -25 13 -49q8 -29 20 -57q8 -33 25 -66l434 -1040l340 987q20 45 33 90q12 41 16 70q8 32 12 61q4 25 4 45q0 45 -20 74q-21 24 -57 37
q-41 8 -78 16q-37 4 -70 4v86h619v-82q-54 -12 -90 -33q-41 -24 -62 -57q-20 -37 -49 -98.5t-61 -155.5l-586 -1589q-86 -229 -164 -393q-82 -164 -156 -267q-73 -102 -172 -151q-98 -53 -217 -53q-61 0 -110 16q-50 12 -91 37q-40 29 -61 65q-20 37 -20 82q0 41 12 78
t41 62q24 28 61 40.5t78 12.5q33 0 74 -8q41 -13 82 -33q45 -21 78 -29q32 -12 57 -12q49 0 94 33q41 28 74 86q33 61 74 151t86 209l49 131z" />
    <glyph glyph-name="v" unicode="v" 
d="M750 233q0 -40 8 -61q4 -25 20 -33q17 -12 53 -16q37 -4 91 -4q290 0 433.5 98t143.5 295q0 131 -41 217q-45 82 -131 123t-197 61q-110 21 -241 21h-25h-24q-13 -4 -21 -4h-24q-25 0 -33 -8q-12 -13 -12 -33v-656zM750 1118q0 -33 28 -45q29 -16 90 -16q131 0 234 20
q98 17 176 58q74 36 115 110q37 74 37 176q0 99 -33 172q-33 74 -99 115q-65 45 -155 70q-90 20 -209 20q-53 0 -90 -4q-37 -8 -58 -16q-16 -9 -24 -21q-12 -12 -12 -33v-606zM389 1602q0 69 -16 118q-21 45 -54 70q-36 25 -94 37q-57 12 -139 12v86h1065q152 -4 270 -33
q115 -28 201 -86q82 -57 127 -143q41 -90 41 -209q0 -86 -25 -156q-28 -69 -82 -122q-53 -54 -135 -91q-86 -41 -205 -65q156 -29 267 -74q106 -49 163.5 -110.5t90.5 -139.5q28 -82 28 -176q0 -131 -53 -229t-160 -164q-102 -66 -241 -94q-140 -33 -312 -33h-1040v82h37
q57 0 102 8q58 8 94 33q33 24 54 74q16 49 16 122v1283z" />
    <glyph glyph-name="w" unicode="w" horiz-adv-x="3187" 
d="M418 1602q0 69 -17 118q-20 45 -53 70q-37 25 -94 37t-139 12v86h946v-82q-78 -4 -131 -16t-86 -37t-49 -70q-17 -49 -17 -123v-536h803v541q0 65 -16 114q-21 49 -54 74q-32 25 -86 37q-53 12 -127 12v86h947v-82q-82 -4 -140 -16q-61 -12 -94 -37q-37 -25 -53 -70
q-16 -49 -16 -123v-536h327q185 -4 332 -37t254 -94q106 -66 164 -164q53 -102 53 -246q0 -127 -49 -221q-53 -98 -156 -168q-102 -65 -229 -98t-279 -33h-1061v82h33q53 0 99 8q53 8 85.5 32.5t49 74t16.5 122.5v590h-803v-585q0 -78 17 -123q16 -49 49 -74t90 -37
q53 -12 127 -12v-78h-946v82h37q57 0 102 8q57 8 94 33q33 24 53 74q17 49 17 122v1283zM1942 238q0 -45 12 -70q8 -25 28 -33q21 -8 66 -12q41 -4 106 -4q140 0 242 33q98 32 159.5 97.5t94.5 139.5q29 74 29 156q0 90 -37 160q-41 69 -115 122q-78 54 -184 82
q-107 25 -242 25l-159 4v-700z" />
    <glyph glyph-name="x" unicode="x" horiz-adv-x="2277" 
d="M389 1602q0 69 -16 118q-21 45 -54 70q-36 25 -94 37q-57 12 -139 12v86h967v-82q-82 -4 -140 -16q-61 -12 -94 -37q-37 -25 -53 -70q-16 -49 -16 -123v-1298q0 -94 45 -135q41 -45 131 -45l426 4h16q74 0 115 41q45 41 45 131v1307q0 69 -17 118q-20 45 -53 70
q-37 25 -94 37t-139 12v86h966v-82q-82 -4 -139 -16q-61 -12 -94 -37q-37 -25 -53 -70q-17 -49 -17 -123v-1273q0 -78 16.5 -127.5t53.5 -73.5q33 -25 94 -33q57 -12 139 -12v-78h-884v-512h-336v512h-885v82h37q57 0 102 8q58 8 94 33q33 24 54 74q16 49 16 122v1283z" />
    <glyph glyph-name="y" unicode="y" horiz-adv-x="1597" 
d="M1311 1384h-78q-37 107 -78 193q-45 82 -98 143q-53 58 -131 90q-78 29 -181 29q-65 0 -118 -16q-58 -17 -103 -49.5t-65 -77.5q-25 -45 -25 -103q0 -86 37 -147q33 -66 102 -111q70 -45 181 -106q106 -62 245 -135q144 -74 234 -140q90 -69 131 -127q45 -61 65.5 -139
t20.5 -176q0 -119 -45 -217t-135 -180q-90 -78 -193 -115q-106 -41 -225 -41q-53 0 -115 8q-61 8 -131 25q-33 4 -65 12q-37 4 -70 12q-37 9 -70 21q-36 8 -69 16q-29 0 -41 -12q-12 -16 -12 -41h-82l-25 643h94q0 -115 41 -213t119 -184q82 -86 180 -127q94 -41 205 -41
q70 0 131 20q62 17 115 53.5t82 90.5q24 53 24 123q0 94 -37 163q-36 66 -106 111q-74 45 -176 102q-103 58 -234 127q-135 70 -225 144q-90 69 -139 135q-49 70 -74 147q-25 74 -25 160q0 119 46 213q40 94 131 160q90 69 196 102q107 33 234 33h53q24 -4 49 -12
q12 -4 25 -4q12 -4 20 -4q12 -5 25 -5l16 -8t21 -4q8 -4 20 -4q12 -4 25 -4l24 -8l58 -8q24 -5 49 -5q32 0 57 17q21 16 25 49l73 4z" />
    <glyph glyph-name="z" unicode="z" horiz-adv-x="1819" 
d="M193 397q49 -57 118 -106q66 -49 152 -86q86 -41 164 -58q73 -20 139 -20q94 0 176 24.5t148 73.5q69 49 102 127t33 185q0 131 -45 221q-50 86 -144 127q-90 45 -196 65q-111 21 -230 21v106h33q111 0 201 25q98 24 172 77.5t114 135.5q37 78 37 188q0 180 -82 271
q-86 86 -254 86q-118 0 -208 -41q-95 -41 -160.5 -123t-114.5 -180.5t-82 -217.5l-65 5l32 659h66q0 -20 8 -33q4 -16 12 -28q9 -13 25 -17q12 -8 29 -8q61 16 131 33q69 12 143 24q74 13 147.5 21t143.5 8q143 0 258 -29q111 -32 197 -90q82 -57 127 -147q41 -90 41 -213
q0 -176 -119 -287t-357 -152q115 -20 213 -61q99 -45 181 -106.5t123 -147.5q40 -90 40 -201q0 -143 -53 -249q-57 -111 -168 -181q-110 -73 -237 -106q-131 -33 -287 -33q-115 0 -217 25q-102 20 -197 61q-94 45 -184 119q-94 69 -184 168z" />
    <glyph glyph-name="braceleft" unicode="{" horiz-adv-x="3416" 
d="M389 1602q0 69 -16 118q-21 45 -54 70q-36 25 -94 37q-57 12 -139 12v86h946v-82q-78 -4 -131 -16t-86 -37t-49 -70q-16 -49 -16 -123v-1232q0 -82 16 -132q12 -53 41 -73.5t111 -28.5q81 -12 221 -12q135 0 217 12q82 8 110 29q33 20 50 73q12 50 12 127v1242
q0 69 -17 118q-20 45 -53 70q-37 25 -94 37t-139 12v86h966v-82q-82 -4 -139 -16q-61 -12 -94 -37q-37 -25 -53 -70q-17 -49 -17 -123v-1232q0 -82 17 -132q12 -53 40.5 -73.5t110.5 -28.5q82 -12 221 -12q136 0 217 12q82 8 111 29q33 20 49 73q12 50 12 127v1242
q0 65 -16 114q-20 49 -53 74t-86 37t-127 12v86h946v-82q-82 -4 -139 -16q-62 -12 -94 -37q-37 -25 -54 -70q-16 -49 -16 -123v-1273q0 -78 16 -127q17 -50 54 -74q32 -25 94 -33q57 -12 139 -12v-78h-3244v82h37q57 0 102 8q58 8 94 33q33 24 54 74q16 49 16 122v1283z" />
    <glyph glyph-name="bar" unicode="|" horiz-adv-x="1819" 
d="M1090 2732q28 25 57 49q24 25 53 41q29 21 57 33q29 8 58 8q33 0 57 -8q25 -12 41 -33q21 -20 29 -45q8 -24 8 -53q0 -45 -29 -86q-32 -41 -90 -78l-639 -397h-164zM389 1602q0 69 -16 118q-21 45 -54 70q-36 25 -94 37q-57 12 -139 12v86h1622l25 -631h-70
q-37 140 -78 234q-45 94 -98 143t-168 73.5t-295 24.5q-98 0 -156 -4q-57 -4 -77 -12q-21 -4 -29 -24q-12 -21 -12 -54v-1351q0 -78 20 -127q16 -50 57 -74.5t115 -32.5q70 -12 172 -12v-78h-1028v82h37q57 0 102 8q58 8 94 33q33 24 54 74q16 49 16 122v1283z" />
    <glyph glyph-name="braceright" unicode="}" horiz-adv-x="2277" 
d="M418 1602q0 69 -17 118q-20 45 -53 70q-37 25 -94 37t-139 12v86h966v-82q-82 -4 -139 -16q-61 -12 -94 -37q-37 -25 -53 -70q-17 -49 -17 -123v-626q37 8 139.5 98t266.5 254l258 258q86 90 98 107l16 32q5 13 5 25q0 33 -17 53q-20 17 -57 25t-78 12t-90 4v86h827v-82
q-65 -4 -118 -16q-58 -12 -99 -33q-41 -20 -110 -78q-70 -61 -177 -155l-520 -471l828 -861q37 -45 69 -73q33 -29 57.5 -41.5t65.5 -24.5t99 -24v-66h-930v70h61q14 -2 27 -2q14 0 26 2q41 0 58 4q20 8 28 16q9 8 9 25q0 8 -25 45q-29 37 -78 102q-53 62 -139 160
q-86 94 -205 221t-192.5 192.5t-102.5 69.5v-581q0 -78 16.5 -127.5t53.5 -73.5q33 -25 94 -33q57 -12 139 -12v-78h-966v82h37q57 0 102 8q57 8 94 33q33 24 53 74q17 49 17 122v1283zM1413 2732q29 25 57 49q25 25 54 41q28 21 57 33q29 8 57 8q33 0 58 -8q24 -12 41 -33
q20 -20 28 -45q9 -24 9 -53q0 -45 -29 -86q-33 -41 -90 -78l-639 -397h-164z" />
    <glyph glyph-name="asciitilde" unicode="~" horiz-adv-x="2277" 
d="M86 1925h946v-82q-78 -4 -131 -16t-86 -37t-49 -70q-16 -49 -16 -123v-368q0 -90 24 -152q21 -65 62 -102q45 -41 127 -57q77 -21 200 -21q58 0 107 4t98 12q49 9 90 25q37 12 66 29v635q0 65 -17 114q-20 49 -53 74t-86 37t-127 12v86h946v-82q-82 -4 -139 -16
q-61 -12 -94 -37q-37 -25 -53 -70q-17 -49 -17 -123v-1273q0 -78 16.5 -127.5t53.5 -73.5q33 -25 94 -33q57 -12 139 -12v-78h-966v82h36q58 0 103 8q57 8 94 33q33 24 53 74q17 49 17 122v562q-62 -29 -127 -50q-66 -20 -140 -32q-73 -13 -143 -17q-70 -8 -139 -8
q-127 0 -234 29q-106 24 -188 78q-82 57 -123 126.5t-41 155.5v439q0 69 -16 118q-21 45 -54 70q-36 25 -94 37q-57 12 -139 12v86z" />
    <glyph glyph-name="Adieresis" unicode="&#xc4;" horiz-adv-x="1139" 
d="M840 2732q28 25 57 49q25 25 53 41q29 21 58 33q28 8 57 8q33 0 57 -8q25 -12 41 -33q21 -20 29 -45q8 -24 8 -53q0 -45 -29 -86q-32 -41 -90 -78l-639 -397h-163z" />
    <glyph glyph-name="Aring" unicode="&#xc5;" horiz-adv-x="2957" 
d="M1937 1372h-1224q0 -266 61 -483q62 -217 189 -397q127 -177 315 -267t438 -90q180 0 328 33q143 29 253.5 90t221.5 148q107 81 209 184l86 -66q-115 -147 -246 -258q-135 -110 -278.5 -184t-307.5 -111q-163 -37 -348 -37q-372 0 -643 111q-270 107 -438 328
q-172 221 -254 475q-86 254 -86 536q0 336 106 607q103 270 312 479t479 315q270 103 598 103q94 0 188 -13q95 -16 193 -41l98 -24t99 -25q49 -16 98 -28.5t98 -24.5q33 0 53 12q21 9 37 25q17 20 29 49t20 70l74 4l17 -971h-66q-41 188 -115 340q-77 152 -196 258
q-115 107 -271 164q-155 53 -348 53q-233 0 -418 -86q-184 -86 -319 -258t-201 -373q-65 -204 -65 -446l1224 4v-205z" />
    <glyph glyph-name="Ccedilla" unicode="&#xc7;" horiz-adv-x="4096" 
d="M553 2339q0 119 -25 201q-24 77 -73 118t-131 62q-86 20 -209 20v86h1196v-82q-94 -4 -156 -20q-65 -17 -98 -49q-29 -29 -45 -86q-17 -62 -17 -144v-1994q0 -86 25 -144q20 -61 65 -94t127 -49.5t201 -16.5t201 16.5t123 49.5q45 33 69 90q21 57 21 143v2003
q0 82 -12 144q-17 57 -50 86q-28 33 -94 49q-65 12 -160 12v86h1074v-82q-95 -4 -156 -20q-66 -17 -98 -49q-29 -29 -45 -86q-17 -62 -17 -144v-1994q0 -86 25 -144q20 -61 65 -94t127 -49.5t197 -16.5q119 0 201 16.5t127 49.5t69 90q21 57 21 143v2003q0 82 -13 144
q-16 57 -49 86q-28 33 -94 49q-66 12 -160 12v86h1196v-82q-127 -4 -213 -24q-90 -21 -135 -58q-45 -41 -65 -122q-25 -82 -25 -205v-1848q0 -127 25 -208q20 -82 69 -123t135 -58q86 -20 209 -20v-856h-82q-65 270 -131 434q-65 164 -123 225q-57 62 -151 90
q-98 29 -229 29h-3150v82h41q98 0 172 16q86 17 131 58q45 37 69 118q25 82 25 209v1856z" />
    <glyph glyph-name="Eacute" unicode="&#xc9;" horiz-adv-x="3432" 
d="M1032 1102h1073l-540 1175zM1663 2867h102l1143 -2441q29 -66 66 -123t82 -115q45 -53 118 -82q70 -28 172 -28v-78h-1208v82h41h37q57 0 102 8q54 12 82 37q33 25 49 57q17 33 17 70q0 45 -25 119q-28 69 -78 172q-49 106 -94 200q-45 95 -86 181l-1233 4
q-61 -144 -106 -258q-49 -115 -82 -201t-49 -139q-17 -58 -17 -82q0 -41 17 -70q12 -33 40.5 -57.5t90.5 -32.5q57 -12 147 -12l33 4v-82h-938v82h29q45 0 86 8q49 12 90 41q41 25 74 57q28 33 45 70q20 37 49 98q28 58 69 144zM1978 3641q29 25 58 49q24 25 53 41
q29 21 57 33q29 8 58 8q32 0 57 -8q25 -12 41 -33q20 -20 29 -45q8 -24 8 -53q0 -45 -29 -86q-33 -41 -90 -78l-639 -397h-164z" />
    <glyph glyph-name="Ntilde" unicode="&#xd1;" horiz-adv-x="2957" 
d="M1753 3641q29 25 57 49q25 25 54 41q28 21 57 33q29 8 57 8q33 0 58 -8q24 -12 41 -33q20 -20 28 -45q9 -24 9 -53q0 -45 -29 -86q-33 -41 -90 -78l-639 -397h-164zM528 2339q0 119 -24 201q-25 77 -74 118t-131 62q-86 20 -209 20v86h2450l32 -618h-73q-17 119 -58 209
q-41 86 -106.5 135t-163.5 74q-103 24 -234 24l-782 4q-65 -4 -106 -16t-54 -37q-12 -25 -16 -82q-8 -61 -8 -156v-786h864h33q86 0 147 20q70 21 111 62q41 45 69 119q25 73 37 184l82 4v-958h-82q-12 102 -37 180q-24 78 -69 123q-41 45 -115 69q-74 21 -176 21l-864 4
v-889q0 -106 8 -176q8 -74 25 -107q20 -32 65 -49q41 -16 107 -16l860 4h24q119 0 217 33q111 33 201 106q86 74 156 176q65 103 106 230l78 -25l-221 -692h-2507v82h41q98 0 172 16q86 17 131 58q45 37 70 118q24 82 24 209v1856z" />
    <glyph glyph-name="Odieresis" unicode="&#xd6;" horiz-adv-x="2957" 
d="M1937 1372h-1224q0 -266 61 -483q62 -217 189 -397q127 -177 315 -267t438 -90q180 0 328 33q143 29 253.5 90t221.5 148q107 81 209 184l86 -66q-115 -147 -246 -258q-135 -110 -278.5 -184t-307.5 -111q-163 -37 -348 -37q-372 0 -643 111q-270 107 -438 328
q-172 221 -254 475q-86 254 -86 536q0 336 106 607q103 270 312 479t479 315q270 103 598 103q94 0 188 -13q95 -16 193 -41l98 -24t99 -25q49 -16 98 -28.5t98 -24.5q33 0 53 12q21 9 37 25q17 20 29 49t20 70l74 4l17 -971h-66q-41 188 -115 340q-77 152 -196 258
q-115 107 -271 164q-155 53 -348 53q-233 0 -418 -86q-184 -86 -319 -258t-201 -373q-65 -204 -65 -446l1224 4v-205zM1729 3641q28 25 57 49q24 25 53 41q29 21 57 33q29 8 58 8q33 0 57 -8q25 -12 41 -33q21 -20 29 -45q8 -24 8 -53q0 -45 -29 -86q-32 -41 -90 -78
l-639 -397h-164z" />
    <glyph glyph-name="Udieresis" unicode="&#xdc;" horiz-adv-x="3416" 
d="M553 2339q0 119 -25 201q-24 77 -73 118t-131 62q-86 20 -209 20v86h1319v-82q-127 -4 -213 -24q-91 -21 -136 -58q-45 -41 -65 -122q-25 -82 -25 -205v-1622l1426 1786q0 57 -25 106q-29 45 -78 74q-53 33 -135 49q-82 12 -201 12v86h1319v-82q-127 -4 -213 -24
q-90 -21 -135 -58q-45 -41 -65 -122q-25 -82 -25 -205v-1848q0 -127 25 -208q20 -82 69 -123t135 -58q86 -20 209 -20v-78h-1319v82h41q99 0 172 16q86 17 132 58q45 37 69 118q25 82 25 209v1712l-1426 -1781q0 -95 24.5 -160.5t74 -102t135.5 -53.5q82 -20 205 -20v-78
h-1319v82h41q98 0 172 16q86 17 131 58q45 37 69 118q25 82 25 209v1856zM1978 3641q29 25 58 49q24 25 53 41q29 21 57 33q29 8 58 8q32 0 57 -8q25 -12 41 -33q20 -20 29 -45q8 -24 8 -53q0 -45 -29 -86q-33 -41 -90 -78l-639 -397h-164z" />
    <glyph glyph-name="aacute" unicode="&#xe1;" 
d="M1294 2732q29 25 58 49q24 25 53 41q29 21 57 33q29 8 58 8q32 0 57 -8q25 -12 41 -33q20 -20 29 -45q8 -24 8 -53q0 -45 -29 -86q-33 -41 -90 -78l-639 -397h-164zM1298 1118q-200 -86 -344 -151q-147 -70 -233 -119q-86 -53 -127 -135q-45 -86 -45 -205q0 -86 24 -148
q21 -65 66 -110t111 -66q61 -24 147 -24q45 0 90 12q41 8 86 25q45 20 82 40.5t62 45.5q24 20 40 41q17 16 25 28q8 13 12 33q4 21 4 45v688zM1659 356q0 -45 4 -82q4 -36 16 -61q13 -29 37 -41q25 -12 62 -12q20 0 41 8q20 4 36 16q21 13 41 29q17 16 33 41l49 -41
q-82 -131 -188 -193q-111 -61 -242 -61q-53 0 -94 21q-45 20 -78 57q-37 41 -53 90q-16 45 -16 98q-86 -61 -164 -110q-82 -49 -164 -86q-78 -33 -160 -49q-86 -21 -172 -21q-98 0 -180 28.5t-148 94.5q-65 61 -98 143t-33 181q0 151 66 270q65 115 192 201q132 81 345 167
q208 86 507 177v217q0 106 -20 188q-21 78 -61.5 123t-106.5 70q-66 20 -160 20q-53 0 -106 -8q-53 -12 -103 -33q-49 -20 -73 -53q-25 -37 -25 -82l8 -131q0 -53 -12 -90q-12 -41 -33 -74q-24 -29 -61 -41q-37 -16 -90 -16q-41 0 -74 12q-37 12 -57.5 41t-28.5 66
q-12 36 -12 81q0 111 57 197q57 82 172 139q115 58 233 86q119 29 242 29q180 0 311 -41q127 -45 205 -127q78 -86 119 -209q37 -123 37 -282v-947z" />
    <glyph glyph-name="agrave" unicode="&#xe0;" 
d="M1298 922h-114l-697 -922h-471v70q37 4 61.5 12t41.5 16q12 8 36.5 33t53.5 62l573 741q-123 8 -225 45q-102 33 -184 86q-82 57 -123 139t-41 197q0 131 49 229q45 94 139 160q95 65 238 98q139 33 323 33l1004 4v-82q-82 -4 -139 -16q-62 -12 -94 -37q-37 -25 -54 -70
q-16 -49 -16 -123v-1273q0 -78 16 -127q17 -50 54 -74q32 -25 94 -33q57 -12 139 -12v-78h-946v82h33q53 0 98 8q53 8 86 32.5t49 74t16 122.5v603zM1298 1737q0 12 -12 24q-12 13 -33 21q-20 8 -61 12q-45 4 -115 4q-123 0 -213 -24.5t-147.5 -73.5t-85.5 -111
q-29 -65 -29 -143q0 -111 37 -189q37 -77 111 -122q73 -50 163 -70q91 -25 197 -25l188 17v680zM1290 2732q29 25 58 49q24 25 53 41q29 21 57 33q29 8 58 8q32 0 57 -8q24 -12 41 -33q20 -20 28 -45q9 -24 9 -53q0 -45 -29 -86q-33 -41 -90 -78l-639 -397h-164z" />
    <glyph glyph-name="acircumflex" unicode="&#xe2;" horiz-adv-x="3416" 
d="M2703 1450q0 274 -61 504q-66 229 -188 413q-127 185 -312 279q-188 90 -434 90q-250 0 -434 -94q-189 -94 -311 -279q-127 -184 -189 -413q-61 -230 -61 -504q0 -295 57 -541t172 -438q119 -193 311 -287q189 -98 455 -98t459 98q188 94 303 291q119 197 176 442
q57 242 57 533v4zM3203 1389q0 -324 -106.5 -586t-319.5 -467q-213 -201 -479 -299q-270 -103 -590 -103q-324 0 -590 103q-266 98 -479 299q-213 205 -320 467q-106 258 -106 581q0 336 106 607q103 270 312 479t479 315q270 103 598 103t598 -103q266 -106 475 -315
t315.5 -479.5t106.5 -606.5v5zM1978 3641q29 25 58 49q24 25 53 41q29 21 57 33q29 8 58 8q32 0 57 -8q25 -12 41 -33q20 -20 29 -45q8 -24 8 -53q0 -45 -29 -86q-33 -41 -90 -78l-639 -397h-164z" />
    <glyph glyph-name="adieresis" unicode="&#xe4;" horiz-adv-x="3187" 
d="M614 2380q-73 102 -135 172q-61 65 -114 94q-54 33 -127 57q-74 21 -172 37v86h1339v-82q-86 -4 -152 -12q-69 -8 -118.5 -20.5t-73.5 -36.5q-25 -29 -25 -74q0 -21 8 -41q5 -25 21 -49.5t41 -61.5q24 -41 61 -94l713 -1069l528 1057q17 29 37 65q17 37 37 82
q21 45 33 74q8 29 8 45q0 33 -24 57q-29 25 -82 41q-54 17 -103 25t-94 8v86h934v-82q-98 -4 -172 -28q-78 -29 -135 -86q-58 -54 -127 -160q-74 -107 -160 -266l-893 -1700q-98 -189 -180 -307.5t-152 -167.5q-69 -41 -151 -66q-86 -29 -185 -29q-102 0 -180 25t-131 66
q-53 45 -78 102q-28 53 -28 115q0 49 16 90t49 69q33 33 74 49.5t82 16.5q69 0 127 -37q57 -41 98 -119q45 -78 86 -114.5t78 -36.5q25 0 45 8q16 4 33 16q12 13 41 49q24 37 65 103q41 61 111 188q65 123 164 307zM2109 3641q29 25 58 49q24 25 53 41q29 21 57 33
q29 8 58 8q32 0 57 -8q25 -12 41 -33q21 -20 29 -45q8 -24 8 -53q0 -45 -29 -86q-33 -41 -90 -78l-639 -397h-164z" />
    <glyph glyph-name="atilde" unicode="&#xe3;" horiz-adv-x="3641" 
d="M1282 2499q0 57 -12.5 94t-37 49t-85.5 20q-66 9 -172 9q-217 0 -357 -25q-143 -25 -212 -70q-66 -49 -127 -163q-62 -119 -115 -304l-78 5l49 712h2028v-82q-127 -4 -213 -24q-90 -21 -135 -58q-46 -41 -66 -122q-25 -82 -25 -205v-758h410q303 -4 532 -49
q226 -45 377 -139q156 -91 234 -238q74 -152 74 -356q0 -197 -74 -344.5t-217 -249.5q-148 -103 -324 -152q-180 -49 -397 -49h-1495v82h41q98 0 172 16q86 17 131 58q45 37 69 118q25 82 25 209v2016zM1724 393q0 -82 17 -131q12 -49 41 -69q33 -25 110 -33q78 -13 205 -13
q217 0 369 50q147 45 233 139t131 196q45 103 45 218q0 221 -73 360q-78 139 -234 197q-151 57 -360 86q-213 28 -484 28v-1028zM1888 3641q29 25 58 49q24 25 53 41q29 21 57 33q29 8 58 8q32 0 57 -8q24 -12 41 -33q20 -20 29 -45q8 -24 8 -53q0 -45 -29 -86
q-33 -41 -90 -78l-639 -397h-164z" />
    <glyph glyph-name="aring" unicode="&#xe5;" 
d="M1413 954h-823q0 -168 49 -295q45 -127 139 -217t201 -131q106 -45 229 -45q107 0 205 29t184 82q86 57 160 126.5t139 147.5l66 -24q-70 -144 -160 -262q-94 -119 -205 -218q-114 -98 -241 -143t-271 -45q-213 0 -372 78q-164 74 -271 229q-106 156 -159 340
q-54 180 -54 381q0 205 66 381q65 172 197 311q131 144 286 213q152 70 328 70q70 0 135 -12q66 -13 131 -37q62 -25 107 -37q41 -12 57 -12q29 0 49 4q17 4 29 16q8 12 20 33q8 16 17 41l73 4l107 -606h-86q-41 114 -107 209q-65 90 -147 151q-82 62 -168 94
q-86 29 -172 29q-119 0 -217 -45q-103 -45 -184 -139q-78 -90 -119 -225.5t-41 -307.5l823 4v-172z" />
    <glyph glyph-name="ccedilla" unicode="&#xe7;" horiz-adv-x="3416" 
d="M389 1602q0 69 -16 118q-21 45 -54 70q-36 25 -94 37q-57 12 -139 12v86h946v-82q-78 -4 -131 -16t-86 -37t-49 -70q-16 -49 -16 -123v-1232q0 -82 16 -132q12 -53 41 -73.5t111 -28.5q81 -12 221 -12q135 0 217 12q82 8 110 29q33 20 50 73q12 50 12 127v1242
q0 69 -17 118q-20 45 -53 70q-37 25 -94 37t-139 12v86h966v-82q-82 -4 -139 -16q-61 -12 -94 -37q-37 -25 -53 -70q-17 -49 -17 -123v-1232q0 -82 17 -132q12 -53 40.5 -73.5t110.5 -28.5q82 -12 221 -12q136 0 217 12q82 8 111 29q33 20 49 73q12 50 12 127v1242
q0 65 -16 114q-20 49 -53 74t-86 37t-127 12v86h946v-82q-82 -4 -139 -16q-62 -12 -94 -37q-37 -25 -54 -70q-16 -49 -16 -123v-1273q0 -78 16 -127q17 -50 54 -74q32 -25 94 -33q57 -12 139 -12v-721h-102q-74 233 -123 373q-49 135 -82 180q-29 45 -82 70q-57 20 -135 20
h-2720v82h37q57 0 102 8q58 8 94 33q33 24 54 74q16 49 16 122v1283z" />
    <glyph glyph-name="eacute" unicode="&#xe9;" 
d="M1409 1307q0 118 -25 217q-28 94 -77 168q-54 73 -136 110q-86 37 -204 37q-99 0 -185 -41q-86 -45 -159 -127q-74 -86 -111 -176q-37 -94 -37 -192zM467 1184v-17q-4 -8 -4 -12v-12v-17v-24v-21q0 -82 16 -168q17 -90 45 -184q33 -94 86 -176q54 -82 131 -152
q78 -65 177 -98q94 -37 208 -37q119 0 226 29q102 29 188 90t160 139t135 172l70 -41q-70 -151 -160 -274q-94 -127 -205 -225q-110 -103 -237 -148q-127 -49 -271 -49q-205 0 -364 66q-160 61 -279 188q-115 131 -172 299q-61 164 -61 373q0 221 61 409q57 189 176 348
q119 160 287 242q168 78 381 78q164 0 299 -57q131 -58 233 -168q107 -111 160 -250q49 -139 49 -307zM1294 2732q29 25 58 49q24 25 53 41q29 21 57 33q29 8 58 8q32 0 57 -8q25 -12 41 -33q20 -20 29 -45q8 -24 8 -53q0 -45 -29 -86q-33 -41 -90 -78l-639 -397h-164z" />
    <glyph glyph-name="egrave" unicode="&#xe8;" 
d="M635 1126h823q0 172 -37 308q-41 131 -123 221q-77 94 -176 139q-102 45 -225 45q-86 0 -172 -29q-86 -32 -168 -94q-86 -61 -147 -151q-62 -95 -107 -213l-86 4l107 606h73q9 -41 21 -57q8 -21 20 -29q8 -4 29 -8q16 -4 45 -4q16 0 57 12q37 12 103 37q61 24 131 37
q65 12 139 12q176 0 332 -70q151 -69 282 -213q132 -139 197 -311q66 -176 66 -381q0 -201 -54 -381q-53 -180 -159 -336q-107 -159 -267 -233q-159 -78 -376 -78q-144 0 -271 45q-131 45 -241 143q-111 99 -201 218q-94 118 -164 258l66 32q81 -106 167 -180
q87 -78 173 -123q45 -20 90 -37q41 -16 86 -28q41 -8 86 -13q45 -8 86 -8q123 0 233 45q107 41 197 131q94 86 143 217q45 127 45 291l-823 4v172zM1212 2732q29 25 58 49q24 25 53 41q29 21 57 33q29 8 58 8q32 0 57 -8q25 -12 41 -33q20 -20 29 -45q8 -24 8 -53
q0 -45 -29 -86q-33 -41 -90 -78l-639 -397h-164z" />
    <glyph glyph-name="ecircumflex" unicode="&#xea;" 
d="M1413 954h-823q0 -168 49 -295q45 -127 139 -217t201 -131q106 -45 229 -45q107 0 205 29t184 82q86 57 160 126.5t139 147.5l66 -24q-70 -144 -160 -262q-94 -119 -205 -218q-114 -98 -241 -143t-271 -45q-213 0 -372 78q-164 74 -271 229q-106 156 -159 340
q-54 180 -54 381q0 205 66 381q65 172 197 311q131 144 286 213q152 70 328 70q70 0 135 -12q66 -13 131 -37q62 -25 107 -37q41 -12 57 -12q29 0 49 4q17 4 29 16q8 12 20 33q8 16 17 41l73 4l107 -606h-86q-41 114 -107 209q-65 90 -147 151q-82 62 -168 94
q-86 29 -172 29q-119 0 -217 -45q-103 -45 -184 -139q-78 -90 -119 -225.5t-41 -307.5l823 4v-172zM1286 2732q29 25 57 49q25 25 54 41q28 21 57 33q29 8 57 8q33 0 58 -8q24 -12 41 -33q20 -20 28 -45q9 -24 9 -53q0 -45 -29 -86q-33 -41 -90 -78l-639 -397h-164z" />
    <glyph glyph-name="edieresis" unicode="&#xeb;" 
d="M1409 1307q0 118 -25 217q-28 94 -77 168q-54 73 -136 110q-86 37 -204 37q-99 0 -185 -41q-86 -45 -159 -127q-74 -86 -111 -176q-37 -94 -37 -192zM467 1184v-17q-4 -8 -4 -12v-12v-17v-24v-21q0 -82 16 -168q17 -90 45 -184q33 -94 86 -176q54 -82 131 -152
q78 -65 177 -98q94 -37 208 -37q119 0 226 29q102 29 188 90t160 139t135 172l70 -41q-70 -151 -160 -274q-94 -127 -205 -225q-110 -103 -237 -148q-127 -49 -271 -49q-205 0 -364 66q-160 61 -279 188q-115 131 -172 299q-61 164 -61 373q0 221 61 409q57 189 176 348
q119 160 287 242q168 78 381 78q164 0 299 -57q131 -58 233 -168q107 -111 160 -250q49 -139 49 -307zM1495 2580q45 -4 82 -16q37 -16 65 -49q33 -29 50 -66q12 -36 12 -82q0 -40 -12 -77q-17 -37 -50 -70q-28 -29 -65 -45t-82 -16q-41 0 -78 16t-69 45q-29 33 -45.5 70
t-16.5 77q0 46 17 82q16 37 45 66q32 33 69 49q37 12 78 12v4zM676 2580q45 -4 82 -16q37 -16 65 -49q33 -29 49 -66q13 -36 13 -82q0 -40 -13 -77q-16 -37 -49 -70q-28 -29 -65 -45t-82 -16q-41 0 -78 16t-70 45q-28 33 -45 70q-16 37 -16 77q0 46 16 82q17 37 45 66
q33 33 70 49q37 12 78 12v4z" />
    <glyph glyph-name="iacute" unicode="&#xed;" horiz-adv-x="2277" 
d="M1409 2732q29 25 57 49q25 25 54 41q28 21 57 33q29 8 57 8q33 0 58 -8q24 -12 41 -33q20 -20 28 -45q8 -24 8 -53q0 -45 -28 -86q-33 -41 -90 -78l-639 -397h-164zM389 1602q0 69 -16 118q-21 45 -54 70q-36 25 -94 37q-57 12 -139 12v86h967v-82q-82 -4 -140 -16
q-61 -12 -94 -37q-37 -25 -53 -70q-16 -49 -16 -123v-1077l778 1114q0 58 -17 99q-20 41 -57 61q-37 21 -90 33q-57 12 -139 12v86h966v-82q-82 -4 -139 -16q-61 -12 -94 -37q-37 -25 -53 -70q-17 -49 -17 -123v-1273q0 -78 16.5 -127.5t53.5 -73.5q33 -25 94 -33
q57 -12 139 -12v-78h-966v82h37q57 0 102 8q57 8 94 33q33 24 53 74q17 49 17 122v1086l-778 -1114q0 -66 16 -107q16 -45 53 -65.5t99 -28.5q57 -12 135 -12v-78h-967v82h37q57 0 102 8q58 8 94 33q33 24 54 74q16 49 16 122v1283z" />
    <glyph glyph-name="igrave" unicode="&#xec;" horiz-adv-x="3187" 
d="M418 1602q0 69 -17 118q-20 45 -53 70q-37 25 -94 37t-139 12v86h966v-82q-82 -4 -139 -16q-61 -12 -94 -37q-37 -25 -53 -70q-17 -49 -17 -123v-536h373q184 -4 331.5 -37t254.5 -94q106 -66 164 -164q53 -102 53 -246q0 -127 -49 -221q-54 -98 -156 -168
q-102 -65 -229 -98t-279 -33h-1126v82h37q57 0 102 8q57 8 94 33q33 24 53 74q17 49 17 122v1283zM778 238q0 -45 12.5 -70t36.5 -33q25 -8 78 -12t139 -4q136 0 234 32.5t159.5 98t94.5 139.5q29 74 29 156q0 90 -37 160q-41 69 -115 122q-78 54 -184 82q-107 25 -242 25
l-205 4v-700zM2388 1602q0 69 -16 118q-21 45 -54 70q-37 25 -94 37t-139 12v86h946v-82q-78 -4 -131 -16t-86 -37t-49 -70q-17 -49 -17 -123v-1273q0 -78 17 -123q16 -49 49 -74t90 -37q53 -12 127 -12v-78h-946v82h37q57 0 102 8q57 8 94 33q33 24 54 74q16 49 16 122
v1283z" />
    <glyph glyph-name="icircumflex" unicode="&#xee;" 
d="M1409 1307q0 118 -25 217q-28 94 -77 168q-54 73 -136 110q-86 37 -204 37q-99 0 -185 -41q-86 -45 -159 -127q-74 -86 -111 -176q-37 -94 -37 -192zM467 1184v-17q-4 -8 -4 -12v-12v-17v-24v-21q0 -82 16 -168q17 -90 45 -184q33 -94 86 -176q54 -82 131 -152
q78 -65 177 -98q94 -37 208 -37q119 0 226 29q102 29 188 90t160 139t135 172l70 -41q-70 -151 -160 -274q-94 -127 -205 -225q-110 -103 -237 -148q-127 -49 -271 -49q-205 0 -364 66q-160 61 -279 188q-115 131 -172 299q-61 164 -61 373q0 221 61 409q57 189 176 348
q119 160 287 242q168 78 381 78q164 0 299 -57q131 -58 233 -168q107 -111 160 -250q49 -139 49 -307zM1294 2732q29 25 58 49q24 25 53 41q29 21 57 33q29 8 58 8q32 0 57 -8q25 -12 41 -33q20 -20 29 -45q8 -24 8 -53q0 -45 -29 -86q-33 -41 -90 -78l-639 -397h-164z" />
    <glyph glyph-name="idieresis" unicode="&#xef;" 
d="M1413 954h-823q0 -168 49 -295q45 -127 139 -217t201 -131q106 -45 229 -45q107 0 205 29t184 82q86 57 160 126.5t139 147.5l66 -24q-70 -144 -160 -262q-94 -119 -205 -218q-114 -98 -241 -143t-271 -45q-213 0 -372 78q-164 74 -271 229q-106 156 -159 340
q-54 180 -54 381q0 205 66 381q65 172 197 311q131 144 286 213q152 70 328 70q70 0 135 -12q66 -13 131 -37q62 -25 107 -37q41 -12 57 -12q29 0 49 4q17 4 29 16q8 12 20 33q8 16 17 41l73 4l107 -606h-86q-41 114 -107 209q-65 90 -147 151q-82 62 -168 94
q-86 29 -172 29q-119 0 -217 -45q-103 -45 -184 -139q-78 -90 -119 -225.5t-41 -307.5l823 4v-172zM1286 2732q29 25 57 49q25 25 54 41q28 21 57 33q29 8 57 8q33 0 58 -8q24 -12 41 -33q20 -20 28 -45q9 -24 9 -53q0 -45 -29 -86q-33 -41 -90 -78l-639 -397h-164z" />
    <glyph glyph-name="ntilde" unicode="&#xf1;" horiz-adv-x="2277" 
d="M1409 2732q29 25 57 49q25 25 54 41q28 21 57 33q29 8 57 8q33 0 58 -8q24 -12 41 -33q20 -20 28 -45q8 -24 8 -53q0 -45 -28 -86q-33 -41 -90 -78l-639 -397h-164zM389 1602q0 69 -16 118q-21 45 -54 70q-36 25 -94 37q-57 12 -139 12v86h967v-82q-82 -4 -140 -16
q-61 -12 -94 -37q-37 -25 -53 -70q-16 -49 -16 -123v-1077l778 1114q0 58 -17 99q-20 41 -57 61q-37 21 -90 33q-57 12 -139 12v86h966v-82q-82 -4 -139 -16q-61 -12 -94 -37q-37 -25 -53 -70q-17 -49 -17 -123v-1273q0 -78 16.5 -127.5t53.5 -73.5q33 -25 94 -33
q57 -12 139 -12v-78h-966v82h37q57 0 102 8q57 8 94 33q33 24 53 74q17 49 17 122v1086l-778 -1114q0 -66 16 -107q16 -45 53 -65.5t99 -28.5q57 -12 135 -12v-78h-967v82h37q57 0 102 8q58 8 94 33q33 24 54 74q16 49 16 122v1283z" />
    <glyph glyph-name="oacute" unicode="&#xf3;" horiz-adv-x="1139" 
d="M389 1470q0 58 -12 103q-17 41 -45 65q-29 25 -74 41q-49 13 -119 13l-53 4v82q78 8 168 32q90 21 192 54q103 32 181 57q73 25 123 41v-1638q0 -78 16 -127.5t53 -73.5q33 -25 94 -33q58 -12 140 -12v-78h-967v82h37q57 0 102 8q58 8 94 33q33 24 54 74q16 49 16 122
v1151zM840 2732q28 25 57 49q25 25 53 41q29 21 58 33q28 8 57 8q33 0 57 -8q25 -12 41 -33q21 -20 29 -45q8 -24 8 -53q0 -45 -29 -86q-32 -41 -90 -78l-639 -397h-163z" />
    <glyph glyph-name="ograve" unicode="&#xf2;" horiz-adv-x="1139" 
d="M573 2720q37 69 91 106q49 37 114 37q33 0 58 -8q24 -12 41 -33q20 -20 28 -45q8 -24 8 -53q0 -25 -4 -41q-8 -21 -16 -41q-12 -16 -29 -41q-20 -29 -53 -61l-369 -377h-163zM-4 2580q45 -4 82 -16q37 -16 65 -49q33 -29 50 -66q12 -36 12 -82q0 -40 -12 -77
q-17 -37 -50 -70q-28 -29 -65 -45t-78 -16q-45 0 -82 16t-65 45q-33 33 -46 70q-16 37 -16 77q0 46 16 82q13 37 46 66q28 33 65 49q37 12 82 12zM389 1470q0 58 -12 103q-17 41 -45 65q-29 25 -74 41q-49 13 -119 13l-53 4v82q78 8 168 32q90 21 192 54q103 32 181 57
q73 25 123 41v-1638q0 -78 16 -127.5t53 -73.5q33 -25 94 -33q58 -12 140 -12v-78h-967v82h37q57 0 102 8q58 8 94 33q33 24 54 74q16 49 16 122v1151zM1143 2580q45 -4 82 -16q37 -16 65 -49q33 -29 49 -66q13 -36 13 -82q0 -40 -13 -77q-16 -37 -49 -70q-28 -29 -65 -45
t-82 -16q-41 0 -78 16t-70 45q-28 33 -45 70q-16 37 -16 77q0 46 16 82q17 37 45 66q33 33 70 49q37 12 78 12v4z" />
    <glyph glyph-name="ocircumflex" unicode="&#xf4;" horiz-adv-x="2277" 
d="M1212 82h17q114 0 205 53q94 53 159 164q70 111 103 233q33 123 33 259q0 204 -37 389q-37 180 -107 340q-74 159 -192 241q-119 78 -287 78q-148 0 -250 -53q-106 -57 -176 -164q-66 -106 -98 -238q-33 -135 -33 -290q0 -189 41 -361q41 -176 119 -336q82 -159 209 -237
q122 -82 294 -82v4zM1135 1966q233 -4 417 -74q181 -69 308 -204q131 -136 196 -320q66 -184 66 -418q0 -209 -70 -385q-74 -180 -217 -323q-139 -144 -315.5 -213.5t-384.5 -69.5q-213 0 -390 70q-180 69 -315 209q-139 143 -205 323q-69 176 -69 389q0 209 69 389
q70 177 209 324q144 147 320 225q172 74 381 74v4zM1409 2732q29 25 57 49q25 25 54 41q28 21 57 33q29 8 57 8q33 0 58 -8q24 -12 41 -33q20 -20 28 -45q8 -24 8 -53q0 -45 -28 -86q-33 -41 -90 -78l-639 -397h-164z" />
    <glyph glyph-name="odieresis" unicode="&#xf6;" 
d="M315 1585q-28 62 -57 111t-53 78q-25 32 -62 48.5t-86 16.5v86h881v-82q-123 -4 -180 -37q-62 -32 -62 -98q0 -16 4 -41q5 -25 13 -49q8 -29 20 -57q8 -33 25 -66l434 -1040l340 987q20 45 33 90q12 41 16 70q8 32 12 61q4 25 4 45q0 45 -20 74q-21 24 -57 37
q-41 8 -78 16q-37 4 -70 4v86h619v-82q-54 -12 -90 -33q-41 -24 -62 -57q-20 -37 -49 -98.5t-61 -155.5l-586 -1589q-86 -229 -164 -393q-82 -164 -156 -267q-73 -102 -172 -151q-98 -53 -217 -53q-61 0 -110 16q-50 12 -91 37q-40 29 -61 65q-20 37 -20 82q0 41 12 78
t41 62q24 28 61 40.5t78 12.5q33 0 74 -8q41 -13 82 -33q45 -21 78 -29q32 -12 57 -12q49 0 94 33q41 28 74 86q33 61 74 151t86 209l49 131zM1294 2732q29 25 58 49q24 25 53 41q29 21 57 33q29 8 58 8q32 0 57 -8q25 -12 41 -33q20 -20 29 -45q8 -24 8 -53q0 -45 -29 -86
q-33 -41 -90 -78l-639 -397h-164z" />
    <glyph glyph-name="otilde" unicode="&#xf5;" horiz-adv-x="2732" 
d="M1434 2732q28 25 57 49q25 25 53 41q29 21 58 33q28 8 57 8q33 0 57 -8q25 -12 41 -33q21 -20 29 -45q8 -24 8 -53q0 -45 -29 -86q-32 -41 -90 -78l-639 -397h-164zM1704 1843q-82 -4 -139 -16q-62 -12 -95 -37q-36 -25 -53 -70q-16 -49 -16 -123v-536h373
q184 -4 331 -37q148 -33 254 -94q107 -66 164 -164q53 -102 53 -246q0 -127 -49 -221q-53 -98 -155 -168q-103 -65 -230 -98t-278 -33h-1127v82h37q57 0 103 8q57 8 94 33q33 24 53 74q16 49 16 122v1360q0 29 -12 50q-16 20 -41 24q-24 8 -78 12q-57 4 -143 4
q-156 0 -258 -16q-107 -20 -156 -57t-90 -115t-74 -201l-73 4l32 541h1557v-82zM1401 238q0 -45 12 -70t37 -33t78 -12t139 -4q135 0 233.5 32.5t159.5 98.5q62 65 94 139q29 74 29 156q0 90 -37 160q-41 69 -114 122q-78 54 -185 82q-106 25 -241 25l-205 4v-700z" />
    <glyph glyph-name="uacute" unicode="&#xfa;" 
d="M315 1585q-28 62 -57 111t-53 78q-25 32 -62 48.5t-86 16.5v86h881v-82q-123 -4 -180 -37q-62 -32 -62 -98q0 -16 4 -41q5 -25 13 -49q8 -29 20 -57q8 -33 25 -66l434 -1040l340 987q20 45 33 90q12 41 16 70q8 32 12 61q4 25 4 45q0 45 -20 74q-21 24 -57 37
q-41 8 -78 16q-37 4 -70 4v86h619v-82q-54 -12 -90 -33q-41 -24 -62 -57q-20 -37 -49 -98.5t-61 -155.5l-586 -1589q-86 -229 -164 -393q-82 -164 -156 -267q-73 -102 -172 -151q-98 -53 -217 -53q-61 0 -110 16q-50 12 -91 37q-40 29 -61 65q-20 37 -20 82q0 41 12 78
t41 62q24 28 61 40.5t78 12.5q33 0 74 -8q41 -13 82 -33q45 -21 78 -29q32 -12 57 -12q49 0 94 33q41 28 74 86q33 61 74 151t86 209l49 131zM1294 2732q29 25 58 49q24 25 53 41q29 21 57 33q29 8 58 8q32 0 57 -8q25 -12 41 -33q20 -20 29 -45q8 -24 8 -53q0 -45 -29 -86
q-33 -41 -90 -78l-639 -397h-164z" />
    <glyph glyph-name="ugrave" unicode="&#xf9;" horiz-adv-x="3412" 
d="M1978 2732q29 25 58 49q24 25 53 41q29 21 57 33q29 8 58 8q32 0 57 -8q25 -12 41 -33q20 -20 29 -45q8 -24 8 -53q0 -45 -29 -86q-33 -41 -90 -78l-639 -397h-164zM2347 82h16q115 0 205 53q94 53 160 164q70 111 102 233q33 123 33 259q0 204 -37 389q-37 180 -106 340
q-74 159 -193 241q-119 78 -286 78q-148 0 -250 -53q-107 -57 -176 -164q-66 -106 -99 -238q-33 -135 -33 -290q0 -189 41 -361q41 -176 119 -336q82 -159 209 -237q123 -82 295 -82v4zM418 1602q0 69 -17 118q-20 45 -53 70q-37 25 -94 37t-139 12v86h966v-82
q-82 -4 -139 -16q-61 -12 -94 -37q-37 -25 -53 -70q-17 -49 -17 -123v-536h516q21 188 99 352q73 160 213 287q135 131 303 196q164 66 360 66q234 0 418 -70q180 -69 307 -204q131 -136 196.5 -320t65.5 -418q0 -209 -69 -385q-74 -180 -217 -323q-140 -144 -316 -213.5
t-385 -69.5t-381 66q-176 65 -319 200q-139 135 -209 307q-70 173 -70 373l-512 4v-585q0 -78 16.5 -127.5t53.5 -73.5q33 -25 94 -33q57 -12 139 -12v-78h-966v82h37q57 0 102 8q57 8 94 33q33 24 53 74q17 49 17 122v1283z" />
    <glyph glyph-name="ucircumflex" unicode="&#xfb;" horiz-adv-x="3412" 
d="M1978 2732q29 25 58 49q24 25 53 41q29 21 57 33q29 8 58 8q32 0 57 -8q25 -12 41 -33q20 -20 29 -45q8 -24 8 -53q0 -45 -29 -86q-33 -41 -90 -78l-639 -397h-164zM2347 82h16q115 0 205 53q94 53 160 164q70 111 102 233q33 123 33 259q0 204 -37 389q-37 180 -106 340
q-74 159 -193 241q-119 78 -286 78q-148 0 -250 -53q-107 -57 -176 -164q-66 -106 -99 -238q-33 -135 -33 -290q0 -189 41 -361q41 -176 119 -336q82 -159 209 -237q123 -82 295 -82v4zM418 1602q0 69 -17 118q-20 45 -53 70q-37 25 -94 37t-139 12v86h966v-82
q-82 -4 -139 -16q-61 -12 -94 -37q-37 -25 -53 -70q-17 -49 -17 -123v-536h516q21 188 99 352q73 160 213 287q135 131 303 196q164 66 360 66q234 0 418 -70q180 -69 307 -204q131 -136 196.5 -320t65.5 -418q0 -209 -69 -385q-74 -180 -217 -323q-140 -144 -316 -213.5
t-385 -69.5t-381 66q-176 65 -319 200q-139 135 -209 307q-70 173 -70 373l-512 4v-585q0 -78 16.5 -127.5t53.5 -73.5q33 -25 94 -33q57 -12 139 -12v-78h-966v82h37q57 0 102 8q57 8 94 33q33 24 53 74q17 49 17 122v1283z" />
    <glyph glyph-name="udieresis" unicode="&#xfc;" 
d="M1298 922h-114l-697 -922h-471v70q37 4 61.5 12t41.5 16q12 8 36.5 33t53.5 62l573 741q-123 8 -225 45q-102 33 -184 86q-82 57 -123 139t-41 197q0 131 49 229q45 94 139 160q95 65 238 98q139 33 323 33l1004 4v-82q-82 -4 -139 -16q-62 -12 -94 -37q-37 -25 -54 -70
q-16 -49 -16 -123v-1273q0 -78 16 -127q17 -50 54 -74q32 -25 94 -33q57 -12 139 -12v-78h-946v82h33q53 0 98 8q53 8 86 32.5t49 74t16 122.5v603zM1298 1737q0 12 -12 24q-12 13 -33 21q-20 8 -61 12q-45 4 -115 4q-123 0 -213 -24.5t-147.5 -73.5t-85.5 -111
q-29 -65 -29 -143q0 -111 37 -189q37 -77 111 -122q73 -50 163 -70q91 -25 197 -25l188 17v680zM1290 2732q29 25 58 49q24 25 53 41q29 21 57 33q29 8 58 8q32 0 57 -8q24 -12 41 -33q20 -20 28 -45q9 -24 9 -53q0 -45 -29 -86q-33 -41 -90 -78l-639 -397h-164z" />
    <glyph glyph-name="dagger" unicode="&#x2020;" horiz-adv-x="2732" 
d="M1704 1843q-82 -4 -139 -16q-62 -12 -95 -37q-36 -25 -53 -70q-16 -49 -16 -123v-536h373q184 -4 331 -37q148 -33 254 -94q107 -66 164 -164q53 -102 53 -246q0 -127 -49 -221q-53 -98 -155 -168q-103 -65 -230 -98t-278 -33h-1127v82h37q57 0 103 8q57 8 94 33
q33 24 53 74q16 49 16 122v1360q0 29 -12 50q-16 20 -41 24q-24 8 -78 12q-57 4 -143 4q-156 0 -258 -16q-107 -20 -156 -57t-90 -115t-74 -201l-73 4l32 541h1557v-82zM1401 238q0 -45 12 -70t37 -33t78 -12t139 -4q135 0 233.5 32.5t159.5 98.5q62 65 94 139q29 74 29 156
q0 90 -37 160q-41 69 -114 122q-78 54 -185 82q-106 25 -241 25l-205 4v-700z" />
    <glyph glyph-name="cent" unicode="&#xa2;" horiz-adv-x="2277" 
d="M389 1847h-295v172h295v414q0 57 -12 102q-17 41 -45.5 66t-73.5 41q-49 12 -119 12l-53 4v82q78 8 168 33q90 20 192 53q103 33 181 58q73 24 123 41v-906h958v-172h-958v-499q94 65 176 122q82 54 155 91q74 36 156 57q82 16 172 16q119 0 213 -37q90 -36 155.5 -110
t98.5 -164q33 -94 33 -205v-794q0 -78 16 -127q17 -50 53 -74q33 -25 95 -33q57 -12 139 -12v-78h-967v82h37q57 0 102 8q58 8 95 33q32 24 53 74q16 49 16 122v627q0 94 -20.5 172t-57.5 139q-40 62 -110 95q-70 28 -172 28q-53 0 -103 -8q-49 -8 -94 -20q-45 -17 -106 -54
q-62 -41 -135 -102v-872q0 -78 16 -127.5t53 -73.5q33 -25 94 -33q58 -12 140 -12v-78h-967v82h37q57 0 102 8q58 8 94 33q33 24 54 74q16 49 16 122v1528z" />
    <glyph glyph-name="sterling" unicode="&#xa3;" horiz-adv-x="2277" 
d="M86 1925h946v-82q-78 -4 -131 -16t-86 -37t-49 -70q-16 -49 -16 -123v-368q0 -90 24 -152q21 -65 62 -102q45 -41 127 -57q77 -21 200 -21q58 0 107 4t98 12q49 9 90 25q37 12 66 29v635q0 65 -17 114q-20 49 -53 74t-86 37t-127 12v86h946v-82q-82 -4 -139 -16
q-61 -12 -94 -37q-37 -25 -53 -70q-17 -49 -17 -123v-1273q0 -78 16.5 -127.5t53.5 -73.5q33 -25 94 -33q57 -12 139 -12v-78h-966v82h36q58 0 103 8q57 8 94 33q33 24 53 74q17 49 17 122v562q-62 -29 -127 -50q-66 -20 -140 -32q-73 -13 -143 -17q-70 -8 -139 -8
q-127 0 -234 29q-106 24 -188 78q-82 57 -123 126.5t-41 155.5v439q0 69 -16 118q-21 45 -54 70q-36 25 -94 37q-57 12 -139 12v86z" />
    <glyph glyph-name="section" unicode="&#xa7;" 
d="M1520 1020q0 41 -13 86q-12 41 -37 78q-24 37 -69 94q-49 53 -123 127t-139 131q-66 53 -123 94q-58 37 -111 57.5t-102 20.5q-58 0 -107 -20q-49 -25 -90 -70q-41 -41 -57 -94q-21 -54 -21 -115q0 -49 13 -90q8 -41 32 -78q25 -37 74 -90q49 -57 123 -131t139 -131
q66 -58 123 -94q58 -41 111 -58q53 -20 102 -20q58 0 107 24q45 21 86 62q41 45 61 98q21 53 21 115v4zM987 -475q-102 0 -196 29q-99 24 -189 77q-90 54 -135 127q-45 74 -45 168q0 49 16 86q17 37 45 74q33 33 74 53q37 17 86 17q37 0 70 -13q28 -12 53 -37q25 -24 37 -57
t12 -74q0 -36 -12 -69q-17 -37 -49 -66q-29 -33 -41 -53q-17 -20 -17 -33q0 -33 25 -57q20 -25 69.5 -45.5t102.5 -32.5q49 -12 102 -12q70 0 127 20q58 17 111 53.5t82 90.5q24 49 24 118q0 66 -12 111t-33 82q-20 33 -57 78q-41 45 -98 98l-545 463q-78 65 -135 135
q-58 66 -94.5 127t-53.5 139q-20 74 -20 164q0 103 28 193q29 86 91 159q57 74 139 115q78 37 176 37l106 -8l9 8q-95 74 -168 147q-74 70 -131 136q-54 65 -78 139q-29 74 -29 160q0 114 41 208q41 91 123 164q82 70 184 107q99 37 217 37q107 0 201 -25q94 -29 176 -86
q82 -53 127 -131q41 -82 41 -184q0 -37 -12 -70q-12 -37 -33 -70q-24 -28 -65 -45q-41 -16 -103 -16q-37 0 -69 12q-33 13 -58 41q-28 25 -41 62q-12 32 -12 73q0 25 8 54q8 24 24.5 53t33.5 57q16 25 32 53q13 21 13 37q0 13 -5 25q-16 25 -61 41q-41 20 -82 29
q-45 8 -86 8q-70 0 -131 -21q-61 -20 -119 -65q-53 -41 -78 -94q-28 -54 -28 -123q0 -66 37 -127q32 -66 102 -131.5t160 -139.5q90 -77 196 -172q107 -90 209 -180q103 -94 193 -188q94 -90 143 -193q45 -102 45 -213q0 -115 -28 -209q-33 -94 -95 -168q-61 -77 -147 -114
q-90 -37 -209 -37h-45q-21 0 -33 4l-8 -4q86 -70 155.5 -135.5t122.5 -135.5q54 -69 82 -151q25 -82 25 -176q0 -115 -41 -209q-45 -98 -131 -164q-86 -70 -188 -102q-107 -33 -230 -33z" />
    <glyph glyph-name="paragraph" unicode="&#xb6;" horiz-adv-x="1597" 
d="M578 2339q0 119 -25 201q-25 77 -74 118t-131 62q-86 20 -209 20v86h1319v-82q-127 -4 -213 -24q-90 -21 -135 -58q-45 -41 -66 -122q-24 -82 -24 -205v-1848q0 -127 24 -208q21 -82 70 -123t135 -58q86 -20 209 -20v-78h-1319v82h41q99 0 172 16q86 17 131 58
q45 37 70 118q25 82 25 209v1856z" />
    <glyph glyph-name="germandbls" unicode="&#xdf;" horiz-adv-x="1597" 
d="M578 2339q0 119 -25 201q-25 77 -74 118t-131 62q-86 20 -209 20v86h1319v-82q-127 -4 -213 -24q-90 -21 -135 -58q-45 -41 -66 -122q-24 -82 -24 -205v-1848q0 -127 24 -208q21 -82 70 -123t135 -58q86 -20 209 -20v-78h-1319v82h41q99 0 172 16q86 17 131 58
q45 37 70 118q25 82 25 209v1856zM1208 3490q45 -4 82 -17q37 -16 66 -49q33 -28 49 -65q12 -37 12 -82q0 -41 -12 -78q-16 -37 -49 -70q-29 -28 -66 -45q-37 -16 -82 -16q-41 0 -78 16q-36 17 -69 45q-29 33 -45.5 70t-16.5 78q0 45 16.5 82t45.5 65q33 33 69 49
q37 13 78 13v4zM389 3490q45 -4 82 -17q37 -16 66 -49q32 -28 49 -65q12 -37 12 -82q0 -41 -12 -78q-17 -37 -49 -70q-29 -28 -66 -45q-37 -16 -82 -16q-41 0 -78 16q-37 17 -69 45q-29 33 -45.5 70t-16.5 78q0 45 16.5 82t45.5 65q32 33 69 49q37 13 78 13v4z" />
    <glyph glyph-name="registered" unicode="&#xae;" 
d="M1298 922h-114l-697 -922h-471v70q37 4 61.5 12t41.5 16q12 8 36.5 33t53.5 62l573 741q-123 8 -225 45q-102 33 -184 86q-82 57 -123 139t-41 197q0 131 49 229q45 94 139 160q95 65 238 98q139 33 323 33l1004 4v-82q-82 -4 -139 -16q-62 -12 -94 -37q-37 -25 -54 -70
q-16 -49 -16 -123v-1273q0 -78 16 -127q17 -50 54 -74q32 -25 94 -33q57 -12 139 -12v-78h-946v82h33q53 0 98 8q53 8 86 32.5t49 74t16 122.5v603zM1298 1737q0 12 -12 24q-12 13 -33 21q-20 8 -61 12q-45 4 -115 4q-123 0 -213 -24.5t-147.5 -73.5t-85.5 -111
q-29 -65 -29 -143q0 -111 37 -189q37 -77 111 -122q73 -50 163 -70q91 -25 197 -25l188 17v680z" />
    <glyph glyph-name="copyright" unicode="&#xa9;" horiz-adv-x="4096" 
d="M553 2339q0 119 -25 201q-24 77 -73 118t-131 62q-86 20 -209 20v86h1196v-82q-94 -4 -156 -20q-65 -17 -98 -49q-29 -29 -45 -86q-17 -62 -17 -144v-1994q0 -86 25 -144q20 -61 65 -94t127 -49.5t201 -16.5t201 16.5t123 49.5q45 33 69 90q21 57 21 143v2003
q0 82 -12 144q-17 57 -50 86q-28 33 -94 49q-65 12 -160 12v86h1074v-82q-95 -4 -156 -20q-66 -17 -98 -49q-29 -29 -45 -86q-17 -62 -17 -144v-1994q0 -86 25 -144q20 -61 65 -94t127 -49.5t197 -16.5q119 0 201 16.5t127 49.5t69 90q21 57 21 143v2003q0 82 -13 144
q-16 57 -49 86q-28 33 -94 49q-66 12 -160 12v86h1196v-82q-127 -4 -213 -24q-90 -21 -135 -58q-45 -41 -65 -122q-25 -82 -25 -205v-1848q0 -127 25 -208q20 -82 69 -123t135 -58q86 -20 209 -20v-78h-3866v82h41q98 0 172 16q86 17 131 58q45 37 69 118q25 82 25 209v1856
z" />
    <glyph glyph-name="trademark" unicode="&#x2122;" horiz-adv-x="3416" 
d="M1081 2474q0 45 -4 86q-4 37 -12 61q-8 25 -53 37q-49 13 -131 13q-209 0 -344.5 -25t-201 -70t-114.5 -163q-53 -119 -90 -312l-70 4l25 721h2499l24 -721h-69q-37 189 -86 308q-54 114 -123 163q-66 45 -209 70q-148 25 -365 25q-82 0 -131 -9q-49 -8 -70 -28
q-16 -17 -24 -58t-8 -106v-950q90 20 176 45q86 20 164 37q82 16 172 24q86 8 176 8q242 0 426 -57t311 -176q127 -115 193 -275q61 -159 61 -356q0 -184 -49 -332q-53 -151 -156 -270q-102 -119 -237 -176.5t-303 -57.5q-99 0 -181 25t-147 66q-66 45 -98 114
q-33 66 -33 156q0 57 16 102q13 45 41 74q29 33 66 49q37 12 86 12q45 0 78 -12q32 -16 57 -41q24 -28 36.5 -61t12.5 -78q0 -25 -8 -57.5t-21 -69.5q-16 -41 -20 -61q-8 -25 -8 -33q0 -33 28 -49q29 -17 82 -17q58 0 107 37q49 33 90 98q45 70 65 197q21 123 21 307
q0 213 -41 365q-45 147 -131 233t-221 131q-140 41 -324 41q-61 0 -123 -4q-61 -8 -123 -16q-61 -8 -123 -21q-61 -16 -118 -37v-897q0 -127 24 -204q21 -82 62 -123q45 -41 119 -62q69 -20 172 -20v-78h-1258v82h41q98 0 172 16q86 17 131 58q45 37 70 118q24 82 24 209
v1991z" />
    <glyph glyph-name="acute" unicode="&#xb4;" horiz-adv-x="3641" 
d="M1081 2474q0 45 -4 86q-4 37 -12 61q-8 25 -53 37q-49 13 -131 13q-209 0 -344.5 -25t-201 -70t-114.5 -163q-53 -119 -90 -312l-70 4l25 721h2499l24 -721h-69q-37 189 -86 308q-54 114 -123 163q-66 45 -209 70q-148 25 -365 25q-82 0 -131 -9q-49 -8 -70 -28
q-16 -17 -24 -58t-8 -106v-1012q123 41 229 74q107 33 197 57q86 21 192 33q103 12 217 12q176 0 320 -37q139 -36 245.5 -106t163.5 -184q54 -119 54 -287v-533q0 -127 24 -208q21 -82 70 -123t135 -58q86 -20 209 -20v-78h-1258v82h33q82 0 144 16q73 21 114 62
q45 41 66 123q20 77 20 200v508q0 234 -131 352q-131 119 -389 119q-90 0 -168 -8q-82 -8 -147.5 -20.5t-147.5 -36.5q-86 -25 -192 -58v-852q0 -127 24 -204q21 -82 62 -123q45 -41 119 -62q69 -20 172 -20v-78h-1258v82h41q98 0 172 16q86 17 131 58q45 37 70 118
q24 82 24 209v1991z" />
    <glyph glyph-name="dieresis" unicode="&#xa8;" horiz-adv-x="3187" 
d="M553 2339q0 119 -25 201q-24 77 -73 118t-131 62q-86 20 -209 20v86h1319v-82q-127 -4 -213 -24q-91 -21 -136 -58q-45 -41 -65 -122q-25 -82 -25 -205v-865h66l864 869q49 45 86 86t57 69q21 29 33 54q8 24 8 49q0 45 -20.5 73.5t-65.5 41.5q-41 12 -90 20t-106 8v86
h1110v-82q-119 -4 -225 -37q-111 -32 -205 -94q-94 -65 -213 -172q-123 -106 -271 -258l-573 -581l1237 -1233q70 -74 131 -123q57 -53 106.5 -86t102.5 -54q53 -20 111 -28v-78h-1283v82h66q16 -2 31 -2q16 0 30 2q58 4 107 16q45 8 70 33q24 21 24 53q0 13 -4 29
q-8 16 -20.5 36.5t-28.5 45.5q-16 20 -37 41l-1016 1012h-82v-861q0 -127 25 -208q20 -82 69.5 -123t135.5 -58q86 -20 209 -20v-78h-1319v82h41q98 0 172 16q86 17 131 58q45 37 69 118q25 82 25 209v1856zM1864 3641q28 25 57 49q25 25 53 41q29 21 58 33q28 8 57 8
q33 0 57 -8q25 -12 41 -33q21 -20 29 -45q8 -24 8 -53q0 -45 -29 -86q-32 -41 -90 -78l-639 -397h-163z" />
    <glyph glyph-name="AE" unicode="&#xc6;" horiz-adv-x="4096" 
d="M1827 1393l-742 -889q-65 -86 -110 -139q-49 -58 -70 -91q-20 -28 -28 -53q-13 -24 -13 -45q0 -24 13 -41q12 -20 41 -33q24 -12 81 -16q58 -8 144 -8v-78h-1102v82h29q28 0 53 4q33 4 61 20q29 17 66 54q37 33 82 86l1118 1360l-758 766q-94 90 -176 159
q-82 66 -151 107q-66 45 -140 69q-73 25 -155 33v86h974v-82q-61 -8 -110 -16q-53 -12 -94 -21q-41 -12 -62 -32q-20 -25 -20 -62q0 -28 12 -57q12 -33 41 -66q29 -36 90 -102q62 -66 160 -160l766 -766v877q0 115 -21 196q-24 82 -69 123t-123 62q-82 20 -193 20v86h1254
v-82q-115 -4 -193 -24q-82 -21 -127 -62q-41 -41 -61 -118q-25 -82 -25 -205v-873l766 770q94 90 155.5 156t90.5 102q29 37 45 70q12 29 12 53q0 33 -24.5 57.5t-69.5 36.5q-25 9 -49.5 13t-44.5 8q-25 4 -49 8q-25 0 -49 4v86h974v-82q-139 -20 -295 -110
q-159 -94 -327 -267l-758 -761l1118 -1356q45 -57 82 -90q33 -37 62 -54q28 -16 65 -20q37 -8 82 -8v-78h-1102v82h58q53 0 90 4q57 4 82 16q24 13 36 33q13 17 13 41q0 17 -13 41q-12 25 -36.5 61.5t-65.5 94.5q-45 53 -106 127l-734 893l-8 -906q0 -127 25 -204
q20 -82 65 -123t123 -62q78 -20 193 -20v-78h-1254v82h37q90 0 160 16q78 17 119 58q45 41 69 123q21 81 21 204v910z" />
    <glyph glyph-name="Oslash" unicode="&#xd8;" horiz-adv-x="3416" 
d="M1511 0h-1396v82h41q98 0 172 16q86 17 131 58q45 37 69 118q25 82 25 209v1856q0 119 -25 201q-24 77 -73 118t-131 62q-86 20 -209 20v86h1319v-82q-127 -4 -213 -24q-91 -21 -136 -58q-45 -41 -65 -122q-25 -82 -25 -205v-1856q0 -94 21 -155q20 -66 61 -103t127 -53
q86 -21 213 -21l582 5h41q102 0 176 16q82 16 123 53t61 103q21 61 21 151v1864q0 119 -25 201q-24 77 -74 118q-49 41 -131 62q-86 20 -209 20v86h1319v-82q-127 -4 -213 -24q-90 -21 -135 -58q-45 -41 -65 -122q-25 -82 -25 -205v-1848q0 -127 25 -208q20 -82 69 -123
t135 -58q86 -20 209 -20v-78h-1396v-569h-394v569z" />
    <glyph glyph-name="plusminus" unicode="&#xb1;" horiz-adv-x="2957" 
d="M578 2339q0 119 -25 201q-25 77 -74 118t-131 62q-86 20 -209 20v86h2228l25 -708h-94q-49 180 -107 295q-57 114 -118 163q-62 45 -197 70q-139 25 -348 25q-185 0 -291 -5q-111 -8 -147.5 -20t-53.5 -49q-16 -41 -16 -103v-917h410q303 -4 532 -49q225 -45 377 -139
q155 -91 233 -238q74 -152 74 -356q0 -197 -74 -344q-73 -148 -217 -250q-147 -103 -323 -152q-181 -49 -398 -49h-1495v82h41q99 0 172 16q86 17 131 58q45 37 70 118q25 82 25 209v1856zM1020 393q0 -82 16 -131q13 -49 41 -69q33 -25 111 -33q78 -13 205 -13
q217 0 368 50q152 45 238 135q86 94 131 196q41 103 41 217q0 222 -74 365q-78 139 -229.5 196.5t-364.5 86t-483 28.5v-1028z" />
    <glyph glyph-name="yen" unicode="&#xa5;" horiz-adv-x="3412" 
d="M2347 82h16q115 0 205 53q94 53 160 164q70 111 102 233q33 123 33 259q0 204 -37 389q-37 180 -106 340q-74 159 -193 241q-119 78 -286 78q-148 0 -250 -53q-107 -57 -176 -164q-66 -106 -99 -238q-33 -135 -33 -290q0 -189 41 -361q41 -176 119 -336q82 -159 209 -237
q123 -82 295 -82v4zM418 1602q0 69 -17 118q-20 45 -53 70q-37 25 -94 37t-139 12v86h966v-82q-82 -4 -139 -16q-61 -12 -94 -37q-37 -25 -53 -70q-17 -49 -17 -123v-536h516q21 188 99 352q73 160 213 287q135 131 303 196q164 66 360 66q234 0 418 -70q180 -69 307 -204
q131 -136 196.5 -320t65.5 -418q0 -209 -69 -385q-74 -180 -217 -323q-140 -144 -316 -213.5t-385 -69.5t-381 66q-176 65 -319 200q-139 135 -209 307q-70 173 -70 373l-512 4v-585q0 -78 16.5 -127.5t53.5 -73.5q33 -25 94 -33q57 -12 139 -12v-78h-966v82h37q57 0 102 8
q57 8 94 33q33 24 53 74q17 49 17 122v1283z" />
    <glyph glyph-name="mu" unicode="&#xb5;" horiz-adv-x="2957" 
d="M528 2339q0 119 -24 201q-25 77 -74 118t-131 62q-86 20 -209 20v86h2450l32 -618h-73q-17 119 -58 209q-41 86 -106.5 135t-163.5 74q-103 24 -234 24l-782 4q-65 -4 -106 -16t-54 -37q-12 -25 -16 -82q-8 -61 -8 -156v-786h864h33q86 0 147 20q70 21 111 62
q41 45 69 119q25 73 37 184l82 4v-958h-82q-12 102 -37 180q-24 78 -69 123q-41 45 -115 69q-74 21 -176 21l-864 4v-889q0 -106 8 -176q8 -74 25 -107q20 -32 65 -49q41 -16 107 -16l860 4h24q119 0 217 33q111 33 201 106q86 74 156 176q65 103 106 230l78 -25l-221 -692
h-2507v82h41q98 0 172 16q86 17 131 58q45 37 70 118q24 82 24 209v1856z" />
    <glyph glyph-name="ordfeminine" unicode="&#xaa;" horiz-adv-x="2957" 
d="M1962 2335q0 82 -20 147q-25 66 -70 107t-135 61q-95 21 -230 21q-172 0 -274 -29q-107 -33 -143.5 -90.5t-53.5 -212.5q-20 -156 -20 -410q0 -610 -33 -1011q-33 -406 -94 -599q-66 -196 -176 -290q-115 -95 -279 -95q-98 0 -172 25t-123 66q-53 45 -78 102
q-24 57 -24 123q0 123 57 188q53 62 164 62q53 0 94 -13q41 -16 70 -49q29 -28 45 -69q12 -41 12 -86q0 -74 24.5 -111t74.5 -37q45 0 86 37q36 37 65 115t45 159q12 82 12 168q9 131 21 279q8 143 12 295q8 155 12 356v443q0 249 -20 405t-61 221q-41 62 -127 94
q-91 33 -230 33v86h2450v-82q-127 -4 -213 -24q-90 -21 -136 -58q-45 -41 -65 -122q-25 -82 -25 -205v-1848q0 -127 25 -208q20 -82 69.5 -123t135.5 -58q86 -20 209 -20v-78h-1319v82h41q98 0 172 16q86 17 131 58q45 37 69 118q25 82 25 209v1852z" />
    <glyph glyph-name="ordmasculine" unicode="&#xba;" horiz-adv-x="3867" 
d="M90 2826h840l1016 -2154l1011 2154h820v-82q-119 -4 -201 -24.5t-127 -65.5q-41 -41 -62 -119q-24 -81 -24 -200v-1848q0 -127 24 -204q21 -82 62 -123q45 -41 127 -62q78 -20 201 -20v-78h-1246v82h37q94 0 164 16q82 21 123 62q45 45 70 127q20 78 20 196v1905
l-1090 -2388h-69l-1090 2294l-8 -1807q0 -127 25 -204q20 -82 61 -123q45 -41 127 -62q78 -20 201 -20v-78h-1012v82h37q94 0 164 16q82 21 123 62q45 45 69 127q21 78 21 196v1856q0 115 -21 196q-20 82 -65 123q-41 41 -123 62q-86 20 -205 20v86z" />
    <glyph glyph-name="ae" unicode="&#xe6;" horiz-adv-x="3187" 
d="M1413 926q-16 -8 -33 -17q-16 -12 -37 -32q-20 -17 -45 -37q-24 -25 -49 -54l-454 -491q-29 -33 -50 -57l-36 -45q-17 -17 -25 -29q-8 -17 -8 -29q0 -16 12 -24q8 -13 25 -21q20 -4 57 -8t90 -4v-78h-840v82h33q29 0 49 4q29 4 45 16q17 13 41 37q25 21 58 58l819 884
l-754 664q-37 29 -61 49q-29 16 -49 25q-17 8 -49 16q-37 4 -86 4v86h786v-82h-139q-45 -4 -66 -20q-24 -21 -24 -58q0 -28 32 -77q29 -54 94.5 -123.5t233.5 -221.5q164 -155 430 -389v648q0 69 -16 118q-21 45 -54 70q-36 25 -94 37q-57 12 -139 12v86h967v-82
q-82 -4 -140 -16q-61 -12 -94 -37q-37 -25 -53 -70q-16 -49 -16 -123v-639q278 246 450 402q168 156 225 217q58 61 86 111q29 45 29 77q0 37 -20 58q-25 16 -70 16l-139 4v82h786v-82q-53 -4 -86 -4q-37 -4 -53 -12q-16 -4 -41 -25q-29 -24 -66 -61l-753 -660l819 -880
q33 -37 57 -62q21 -24 37 -37q17 -12 49 -16q33 -8 82 -8v-78h-839v82q49 -4 86 -4q32 0 52.5 4t33.5 16q12 13 12 37q0 12 -29 53q-33 37 -90 103l-455 500q-16 12 -36 32q-21 21 -50 45q-28 25 -45 37q-20 13 -32 17v-598q0 -78 16 -127.5t53 -73.5q33 -25 94 -33
q58 -12 140 -12v-78h-967v82h37q57 0 102 8q58 8 94 33q33 24 54 74q16 49 16 122v607z" />
    <glyph glyph-name="oslash" unicode="&#xf8;" horiz-adv-x="3416" 
d="M553 2339q0 119 -25 201q-24 77 -73 118t-131 62q-86 20 -209 20v86h3186v-82q-127 -4 -213 -24q-90 -21 -135 -58q-45 -41 -65 -122q-25 -82 -25 -205v-1848q0 -127 25 -208q20 -82 69 -123t135 -58q86 -20 209 -20v-78h-1319v82h41q99 0 172 16q86 17 132 58
q45 37 69 118q25 82 25 209v1868q0 78 -21 135q-24 58 -69 94q-45 33 -111 54q-70 16 -160 16l-700 4q-90 -4 -160 -20q-70 -21 -115 -54q-45 -32 -65 -90q-25 -61 -25 -143v-1860q0 -127 25 -208q20 -82 69.5 -123t135.5 -58q86 -20 209 -20v-78h-1319v82h41q98 0 172 16
q86 17 131 58q45 37 69 118q25 82 25 209v1856z" />
    <glyph glyph-name="questiondown" unicode="&#xbf;" horiz-adv-x="2503" 
d="M553 2339q0 119 -25 201q-24 77 -73 118t-131 62q-86 20 -209 20v86h2265l78 -741h-95q-36 143 -86 254q-49 110 -118 176q-66 70 -156 102q-94 33 -209 33l-614 4q-66 -4 -107 -16t-53 -37t-16 -82q-9 -61 -9 -156v-1876q0 -127 24.5 -208.5t74 -122.5t143.5 -58
q90 -20 225 -20v-78h-1347v82h41q98 0 172 16q86 17 131 58q45 37 69 118q25 82 25 209v1856zM1401 3641q29 25 57 49q25 25 53 41q29 21 58 33q28 8 57 8q33 0 57 -8q25 -12 41 -33q21 -20 29 -45q8 -24 8 -53q0 -45 -28 -86q-33 -41 -91 -78l-638 -397h-164z" />
    <glyph glyph-name="exclamdown" unicode="&#xa1;" horiz-adv-x="3416" 
d="M389 1602q0 69 -16 118q-21 45 -54 70q-36 25 -94 37q-57 12 -139 12v86h946v-82q-78 -4 -131 -16t-86 -37t-49 -70q-16 -49 -16 -123v-1232q0 -82 16 -132q12 -53 41 -73.5t111 -28.5q81 -12 221 -12q135 0 217 12q82 8 110 29q33 20 50 73q12 50 12 127v1242
q0 69 -17 118q-20 45 -53 70q-37 25 -94 37t-139 12v86h966v-82q-82 -4 -139 -16q-61 -12 -94 -37q-37 -25 -53 -70q-17 -49 -17 -123v-1232q0 -82 17 -132q12 -53 40.5 -73.5t110.5 -28.5q82 -12 221 -12q136 0 217 12q82 8 111 29q33 20 49 73q12 50 12 127v1242
q0 65 -16 114q-20 49 -53 74t-86 37t-127 12v86h946v-82q-82 -4 -139 -16q-62 -12 -94 -37q-37 -25 -54 -70q-16 -49 -16 -123v-1273q0 -78 16 -127q17 -50 54 -74q32 -25 94 -33q57 -12 139 -12v-78h-3244v82h37q57 0 102 8q58 8 94 33q33 24 54 74q16 49 16 122v1283z" />
    <glyph glyph-name="logicalnot" unicode="&#xac;" horiz-adv-x="2736" 
d="M1147 2474q0 57 -8.5 98t-28.5 58q-16 20 -66 32q-49 9 -131 9q-221 0 -360 -25q-143 -25 -213 -70q-66 -45 -119 -163.5t-90 -311.5l-70 4l25 721h2564l25 -721h-70q-37 189 -86 308q-53 114 -123 163q-65 45 -209 70q-147 25 -364 25q-82 0 -131 -9q-50 -8 -70 -28
q-16 -17 -25 -58q-8 -41 -8 -106v-1983q0 -127 25 -208q20 -82 69 -123q50 -41 136 -58q86 -20 209 -20v-78h-1319v82h41q98 0 172 16q86 17 131 58q45 37 69 118q25 82 25 209v1991z" />
    <glyph glyph-name="florin" unicode="&#x192;" 
d="M635 1126h823q0 172 -37 308q-41 131 -123 221q-77 94 -176 139q-102 45 -225 45q-86 0 -172 -29q-86 -32 -168 -94q-86 -61 -147 -151q-62 -95 -107 -213l-86 4l107 606h73q9 -41 21 -57q8 -21 20 -29q8 -4 29 -8q16 -4 45 -4q16 0 57 12q37 12 103 37q61 24 131 37
q65 12 139 12q176 0 332 -70q151 -69 282 -213q132 -139 197 -311q66 -176 66 -381q0 -201 -54 -381q-53 -180 -159 -336q-107 -159 -267 -233q-159 -78 -376 -78q-144 0 -271 45q-131 45 -241 143q-111 99 -201 218q-94 118 -164 258l66 32q81 -106 167 -180
q87 -78 173 -123q45 -20 90 -37q41 -16 86 -28q41 -8 86 -13q45 -8 86 -8q123 0 233 45q107 41 197 131q94 86 143 217q45 127 45 291l-823 4v172z" />
    <glyph glyph-name="guillemotleft" unicode="&#xab;" horiz-adv-x="3187" 
d="M2146 1348q-127 -50 -233 -82q-107 -37 -193 -58q-90 -24 -188 -32q-102 -13 -221 -13q-176 0 -320 37q-143 33 -250 103q-106 69 -159 192q-54 119 -54 283v561q0 119 -24 201q-25 77 -74 118t-131 62q-86 20 -209 20v86h1258v-82q-103 -4 -172 -24q-74 -21 -119 -62
q-41 -41 -62 -123q-24 -81 -24 -200v-520q0 -242 131 -361q127 -119 389 -119q94 0 172 8q74 5 139 17q66 12 152 36.5t192 61.5v881q0 115 -20 196q-21 82 -66 123q-41 41 -114.5 61.5t-176.5 20.5v86h1258v-82q-127 -4 -213 -24q-90 -21 -135 -58q-45 -41 -66 -122
q-24 -82 -24 -205v-1848q0 -127 24 -208q21 -82 70 -123t135 -58q86 -20 209 -20v-78h-1319v82h41q98 0 172 16q86 17 131 58q45 37 70 118q24 82 24 209v865z" />
    <glyph glyph-name="guillemotright" unicode="&#xbb;" horiz-adv-x="3187" 
d="M2146 1348q-127 -50 -233 -82q-107 -37 -193 -58q-90 -24 -188 -32q-102 -13 -221 -13q-176 0 -320 37q-143 33 -250 103q-106 69 -159 192q-54 119 -54 283v561q0 119 -24 201q-25 77 -74 118t-131 62q-86 20 -209 20v86h1258v-82q-103 -4 -172 -24q-74 -21 -119 -62
q-41 -41 -62 -123q-24 -81 -24 -200v-520q0 -242 131 -361q127 -119 389 -119q94 0 172 8q74 5 139 17q66 12 152 36.5t192 61.5v881q0 115 -20 196q-21 82 -66 123q-41 41 -114.5 61.5t-176.5 20.5v86h1258v-82q-127 -4 -213 -24q-90 -21 -135 -58q-45 -41 -66 -122
q-24 -82 -24 -205v-1848q0 -127 24 -208q21 -82 70 -123t135 -58q86 -20 209 -20v-78h-1319v82h41q98 0 172 16q86 17 131 58q45 37 70 118q24 82 24 209v865z" />
    <glyph glyph-name="ellipsis" unicode="&#x2026;" horiz-adv-x="4096" 
d="M553 2339q0 119 -25 201q-24 77 -73 118t-131 62q-86 20 -209 20v86h1196v-82q-94 -4 -156 -20q-65 -17 -98 -49q-29 -29 -45 -86q-17 -62 -17 -144v-1994q0 -86 25 -144q20 -61 65 -94t127 -49.5t201 -16.5t201 16.5t123 49.5q45 33 69 90q21 57 21 143v2003
q0 82 -12 144q-17 57 -50 86q-28 33 -94 49q-65 12 -160 12v86h1074v-82q-95 -4 -156 -20q-66 -17 -98 -49q-29 -29 -45 -86q-17 -62 -17 -144v-1994q0 -86 25 -144q20 -61 65 -94t127 -49.5t197 -16.5q119 0 201 16.5t127 49.5t69 90q21 57 21 143v2003q0 82 -13 144
q-16 57 -49 86q-28 33 -94 49q-66 12 -160 12v86h1196v-82q-127 -4 -213 -24q-90 -21 -135 -58q-45 -41 -65 -122q-25 -82 -25 -205v-1848q0 -127 25 -208q20 -82 69 -123t135 -58q86 -20 209 -20v-856h-82q-65 270 -131 434q-65 164 -123 225q-57 62 -151 90
q-98 29 -229 29h-3150v82h41q98 0 172 16q86 17 131 58q45 37 69 118q25 82 25 209v1856z" />
    <glyph glyph-name="Agrave" unicode="&#xc0;" horiz-adv-x="4096" 
d="M3125 2339q0 119 -24 201q-25 77 -74 118t-131 62q-86 20 -209 20v86h1319v-82q-127 -4 -213 -24q-90 -21 -135 -58q-45 -41 -66 -122q-24 -82 -24 -205v-1848q0 -127 24 -208q21 -82 70 -123t135 -58q86 -20 209 -20v-78h-1319v82h41q98 0 172 16q86 17 131 58
q45 37 70 118q24 82 24 209v1856zM553 2339q0 119 -25 201q-24 77 -73 118t-131 62q-86 20 -209 20v86h1319v-82q-127 -4 -213 -24q-91 -21 -136 -58q-45 -41 -65 -122q-25 -82 -25 -205v-758h410q303 -4 532 -49q226 -45 377 -139q156 -91 234 -238q73 -152 73 -356
q0 -197 -73.5 -344.5t-216.5 -249.5q-148 -103 -324 -152q-180 -49 -397 -49h-1495v82h41q98 0 172 16q86 17 131 58q45 37 69 118q25 82 25 209v1856zM995 393q0 -82 17 -131q12 -49 41 -69q32 -25 110 -33q78 -13 205 -13q217 0 369 50q147 45 233 139t131 196
q45 103 45 218q0 221 -73 360q-78 139 -234 197q-151 57 -360 86q-213 28 -484 28v-1028z" />
    <glyph glyph-name="Atilde" unicode="&#xc3;" horiz-adv-x="2957" 
d="M578 2339q0 119 -25 201q-25 77 -74 118t-131 62q-86 20 -209 20v86h1319v-82q-127 -4 -213 -24q-90 -21 -135 -58q-45 -41 -66 -122q-24 -82 -24 -205v-758h410q303 -4 532 -49q225 -45 377 -139q155 -91 233 -238q74 -152 74 -356q0 -197 -74 -344q-73 -148 -217 -250
q-147 -103 -323 -152q-181 -49 -398 -49h-1495v82h41q99 0 172 16q86 17 131 58q45 37 70 118q25 82 25 209v1856zM1020 393q0 -82 16 -131q13 -49 41 -69q33 -25 111 -33q78 -13 205 -13q217 0 368 50q148 45 234 139t131 196q45 103 45 218q0 221 -74 360
q-78 139 -233 197q-152 57 -361 86q-213 28 -483 28v-1028z" />
    <glyph glyph-name="Otilde" unicode="&#xd5;" horiz-adv-x="2957" 
d="M1020 1577h1225q0 233 -66 438q-70 205 -205 377t-319.5 258t-413.5 86q-197 0 -348 -53q-156 -57 -270 -164q-115 -106 -193 -258t-119 -344l-65 4l16 971h74q8 -45 20 -74q9 -29 25 -49q16 -16 41 -25q24 -12 53 -12q107 29 209 57q98 25 196.5 49.5t192.5 36.5
q90 13 176 13q328 0 598 -103q267 -106 475 -315q209 -209 315.5 -479.5t106.5 -606.5q0 -286 -86 -540t-254 -475.5t-438 -328t-643 -106.5q-184 0 -348 37q-168 37 -311.5 111t-270.5 184q-131 111 -250 254l86 74q107 -115 217 -197q107 -86 213 -143q107 -61 254 -90
q144 -29 328 -29q246 0 434 90q189 86 316 262q127 181 192 402q62 217 62 479l-1225 4v205z" />
    <glyph glyph-name="OE" unicode="&#x152;" horiz-adv-x="2957" 
d="M1483 3629q37 70 90 107q49 36 115 36q32 0 57 -8q24 -12 41 -33q20 -20 29 -45q8 -24 8 -53q0 -24 -4 -41q-9 -20 -17 -41q-12 -16 -28 -41q-21 -28 -54 -61l-368 -377h-164zM905 3490q45 -4 82 -17q37 -16 66 -49q32 -28 49 -65q12 -37 12 -82q0 -41 -12 -78
q-17 -37 -49 -70q-29 -28 -66 -45q-37 -16 -82 -16q-41 0 -78 16q-36 17 -69 45q-29 33 -45.5 70t-16.5 78q0 45 16.5 82t45.5 65q33 33 69 49q37 13 78 13v4zM528 2339q0 119 -24 201q-25 77 -74 118t-131 62q-86 20 -209 20v86h2450l32 -618h-73q-17 119 -58 209
q-41 86 -106.5 135t-163.5 74q-103 24 -234 24l-782 4q-65 -4 -106 -16t-54 -37q-12 -25 -16 -82q-8 -61 -8 -156v-786h864h33q86 0 147 20q70 21 111 62q41 45 69 119q25 73 37 184l82 4v-958h-82q-12 102 -37 180q-24 78 -69 123q-41 45 -115 69q-74 21 -176 21l-864 4
v-889q0 -106 8 -176q8 -74 25 -107q20 -32 65 -49q41 -16 107 -16l860 4h24q119 0 217 33q111 33 201 106q86 74 156 176q65 103 106 230l78 -25l-221 -692h-2507v82h41q98 0 172 16q86 17 131 58q45 37 70 118q24 82 24 209v1856zM2052 3490q45 -4 82 -17q37 -16 66 -49
q32 -28 49 -65q12 -37 12 -82q0 -41 -12 -78q-17 -37 -49 -70q-29 -28 -66 -45q-37 -16 -82 -16q-41 0 -78 16q-37 17 -69 45q-29 33 -45.5 70t-16.5 78q0 45 16.5 82t45.5 65q32 33 69 49q37 13 78 13v4z" />
    <glyph glyph-name="oe" unicode="&#x153;" 
d="M1409 1307q0 118 -25 217q-28 94 -77 168q-54 73 -136 110q-86 37 -204 37q-99 0 -185 -41q-86 -45 -159 -127q-74 -86 -111 -176q-37 -94 -37 -192zM467 1184v-17q-4 -8 -4 -12v-12v-17v-24v-21q0 -82 16 -168q17 -90 45 -184q33 -94 86 -176q54 -82 131 -152
q78 -65 177 -98q94 -37 208 -37q119 0 226 29q102 29 188 90t160 139t135 172l70 -41q-70 -151 -160 -274q-94 -127 -205 -225q-110 -103 -237 -148q-127 -49 -271 -49q-205 0 -364 66q-160 61 -279 188q-115 131 -172 299q-61 164 -61 373q0 221 61 409q57 189 176 348
q119 160 287 242q168 78 381 78q164 0 299 -57q131 -58 233 -168q107 -111 160 -250q49 -139 49 -307zM1090 2720q36 69 90 106q49 37 114 37q33 0 58 -8q24 -12 41 -33q20 -20 28 -45q9 -24 9 -53q0 -25 -5 -41q-8 -21 -16 -41q-12 -16 -29 -41q-20 -29 -53 -61l-369 -377
h-163zM512 2580q45 -4 82 -16q37 -16 65 -49q33 -29 50 -66q12 -36 12 -82q0 -40 -12 -77q-17 -37 -50 -70q-28 -29 -65 -45t-82 -16q-41 0 -78 16t-69 45q-29 33 -46 70q-16 37 -16 77q0 46 16 82q17 37 46 66q32 33 69 49q37 12 78 12v4zM1659 2580q45 -4 82 -16
q37 -16 65 -49q33 -29 49 -66q13 -36 13 -82q0 -40 -13 -77q-16 -37 -49 -70q-28 -29 -65 -45t-82 -16q-41 0 -78 16t-70 45q-28 33 -45 70q-16 37 -16 77q0 46 16 82q17 37 45 66q33 33 70 49q37 12 78 12v4z" />
    <glyph glyph-name="endash" unicode="&#x2014;" horiz-adv-x="2277" 
d="M2032 2892q0 -94 -21 -168q-20 -78 -61 -139.5t-90.5 -102.5t-106.5 -61.5t-147 -32.5q-95 -12 -226 -12q-127 -4 -241 -9q-115 -8 -213.5 -20t-192.5 -86t-184 -217q-90 -139 -135 -287q-45 -151 -45 -307l8 -4q82 115 164 209q77 94 163.5 163.5t196.5 106.5
q107 37 234 37q233 0 417 -70q181 -69 308 -204q131 -136 196 -320q66 -184 66 -418q0 -209 -70 -385q-74 -180 -217 -323q-139 -144 -315.5 -213.5t-384.5 -69.5q-172 0 -328 66q-160 65 -307 204q-148 136 -221.5 357t-73.5 520q0 311 61 586q62 274 184.5 511.5
t323.5 356.5q197 119 471 119l397 4h33q54 0 99 8q53 8 85.5 28.5t57.5 65.5q20 41 33 103zM1212 82h17q114 0 205 53q94 53 159 164q70 111 103 233q33 123 33 259q0 204 -37 389q-37 180 -107 340q-69 159 -184 241q-119 78 -287 78q-139 0 -242 -53q-106 -57 -176 -164
q-65 -111 -98 -242t-33 -286q0 -189 41 -361q41 -176 119 -336q82 -159 205 -237q119 -82 282 -82v4z" />
    <glyph glyph-name="quotedblleft" unicode="&#x201c;" 
d="M750 233q0 -40 8 -61q4 -25 20 -33q17 -12 53 -16q37 -4 91 -4q290 0 433.5 98t143.5 295q0 131 -41 217q-45 82 -131 123t-197 61q-110 21 -241 21h-25h-24q-13 -4 -21 -4h-24q-25 0 -33 -8q-12 -13 -12 -33v-656zM750 1118q0 -33 28 -45q29 -16 90 -16q131 0 234 20
q98 17 176 58q74 36 115 110q37 74 37 176q0 99 -33 172q-33 74 -99 115q-65 45 -155 70q-90 20 -209 20q-53 0 -90 -4q-37 -8 -58 -16q-16 -9 -24 -21q-12 -12 -12 -33v-606zM389 1602q0 69 -16 118q-21 45 -54 70q-36 25 -94 37q-57 12 -139 12v86h1065q152 -4 270 -33
q115 -28 201 -86q82 -57 127 -143q41 -90 41 -209q0 -86 -25 -156q-28 -69 -82 -122q-53 -54 -135 -91q-86 -41 -205 -65q156 -29 267 -74q106 -49 163.5 -110.5t90.5 -139.5q28 -82 28 -176q0 -131 -53 -229t-160 -164q-102 -66 -241 -94q-140 -33 -312 -33h-1040v82h37
q57 0 102 8q58 8 94 33q33 24 54 74q16 49 16 122v1283z" />
    <glyph glyph-name="quotedblright" unicode="&#x201d;" horiz-adv-x="1819" 
d="M389 1602q0 69 -16 118q-21 45 -54 70q-36 25 -94 37q-57 12 -139 12v86h1622l25 -631h-70q-37 140 -78 234q-45 94 -98 143t-168 73.5t-295 24.5q-98 0 -156 -4q-57 -4 -77 -12q-21 -4 -29 -24q-12 -21 -12 -54v-1351q0 -78 20 -127q16 -50 57 -74.5t115 -32.5
q70 -12 172 -12v-78h-1028v82h37q57 0 102 8q58 8 94 33q33 24 54 74q16 49 16 122v1283z" />
    <glyph glyph-name="quoteleft" unicode="&#x2018;" 
d="M1008 123h24q58 0 103 16q49 17 77 54q29 36 45 90q13 49 13 114v1184q0 53 -13 98q-12 41 -36.5 65.5t-73.5 41.5q-53 12 -127 12q-107 0 -176 -12q-74 -17 -107 -41q-32 -25 -49 -78q-16 -57 -16 -143q0 -291 -8.5 -512t-28.5 -377q-17 -152 -53 -279
q-37 -131 -95 -237zM86 82h25q53 0 98 16q53 17 94 58t74 110q29 66 49 156q20 94 33 188q12 95 16 197q8 102 12 291v454q0 90 -12 148q-16 57 -45 86q-29 24 -98 41q-70 12 -176 12v86h1777v-82q-82 -4 -139 -16q-61 -12 -94 -37q-37 -25 -53 -70q-17 -49 -17 -123v-1306
q0 -70 12 -111q13 -41 41 -61q25 -21 74 -29q49 -12 123 -12v-725h-102q-41 192 -86 323q-50 127 -99 192.5t-114.5 98.5t-147.5 33h-700q-78 0 -144 -29q-69 -32 -118.5 -98t-94.5 -192q-45 -132 -86 -328h-102v729z" />
    <glyph glyph-name="quoteright" unicode="&#x2019;" 
d="M1409 1307q0 118 -25 217q-28 94 -77 168q-54 73 -136 110q-86 37 -204 37q-99 0 -185 -41q-86 -45 -159 -127q-74 -86 -111 -176q-37 -94 -37 -192zM467 1184v-17q-4 -8 -4 -12v-12v-17v-24v-21q0 -82 16 -168q17 -90 45 -184q33 -94 86 -176q54 -82 131 -152
q78 -65 177 -98q94 -37 208 -37q119 0 226 29q102 29 188 90t160 139t135 172l70 -41q-70 -151 -160 -274q-94 -127 -205 -225q-110 -103 -237 -148q-127 -49 -271 -49q-205 0 -364 66q-160 61 -279 188q-115 131 -172 299q-61 164 -61 373q0 221 61 409q57 189 176 348
q119 160 287 242q168 78 381 78q164 0 299 -57q131 -58 233 -168q107 -111 160 -250q49 -139 49 -307z" />
    <glyph glyph-name="divide" unicode="&#xf7;" horiz-adv-x="1819" 
d="M1090 2732q28 25 57 49q24 25 53 41q29 21 57 33q29 8 58 8q33 0 57 -8q25 -12 41 -33q21 -20 29 -45q8 -24 8 -53q0 -45 -29 -86q-32 -41 -90 -78l-639 -397h-164zM389 1602q0 69 -16 118q-21 45 -54 70q-36 25 -94 37q-57 12 -139 12v86h1622l25 -631h-70
q-37 140 -78 234q-45 94 -98 143t-168 73.5t-295 24.5q-98 0 -156 -4q-57 -4 -77 -12q-21 -4 -29 -24q-12 -21 -12 -54v-1351q0 -78 20 -127q16 -50 57 -74.5t115 -32.5q70 -12 172 -12v-78h-1028v82h37q57 0 102 8q58 8 94 33q33 24 54 74q16 49 16 122v1283z" />
    <glyph glyph-name="ydieresis" unicode="&#xff;" horiz-adv-x="2277" 
d="M389 1602q0 69 -16 118q-21 45 -54 70q-36 25 -94 37q-57 12 -139 12v86h967v-82q-82 -4 -140 -16q-61 -12 -94 -37q-37 -25 -53 -70q-16 -49 -16 -123v-1077l778 1114q0 58 -17 99q-20 41 -57 61q-37 21 -90 33q-57 12 -139 12v86h966v-82q-82 -4 -139 -16
q-61 -12 -94 -37q-37 -25 -53 -70q-17 -49 -17 -123v-1273q0 -78 16.5 -127.5t53.5 -73.5q33 -25 94 -33q57 -12 139 -12v-78h-966v82h37q57 0 102 8q57 8 94 33q33 24 53 74q17 49 17 122v1086l-778 -1114q0 -66 16 -107q16 -45 53 -65.5t99 -28.5q57 -12 135 -12v-78h-967
v82h37q57 0 102 8q58 8 94 33q33 24 54 74q16 49 16 122v1283z" />
    <glyph glyph-name="Ydieresis" unicode="&#x178;" horiz-adv-x="2277" 
d="M815 2822q57 -4 86 -29q25 -28 25 -77q0 -37 -25 -62q-24 -24 -70 -37q-45 -16 -65 -32q-25 -17 -25 -37q0 -37 25 -66q20 -33 65 -53q46 -21 123 -29q78 -12 185 -12q106 0 180 12q74 8 123 29q45 20 69 53q25 29 25 66q0 20 -25 41q-24 16 -69 28q-45 13 -66 37
q-24 25 -24 62q0 49 28 77q29 25 82 25q37 0 70 -16q29 -21 53 -58q25 -37 41 -86q12 -49 12 -114q0 -86 -36 -156q-41 -70 -123 -123q-78 -53 -160 -78q-86 -28 -180 -28q-90 0 -176 24q-86 25 -168 78q-78 53 -115 123q-41 70 -41 160q0 65 12 114q13 49 37 86
q25 37 57 58q33 16 70 16v4zM389 1602q0 69 -16 118q-21 45 -54 70q-36 25 -94 37q-57 12 -139 12v86h967v-82q-82 -4 -140 -16q-61 -12 -94 -37q-37 -25 -53 -70q-16 -49 -16 -123v-1077l778 1114q0 58 -17 99q-20 41 -57 61q-37 21 -90 33q-57 12 -139 12v86h966v-82
q-82 -4 -139 -16q-61 -12 -94 -37q-37 -25 -53 -70q-17 -49 -17 -123v-1273q0 -78 16.5 -127.5t53.5 -73.5q33 -25 94 -33q57 -12 139 -12v-78h-966v82h37q57 0 102 8q57 8 94 33q33 24 53 74q17 49 17 122v1086l-778 -1114q0 -66 16 -107q16 -45 53 -65.5t99 -28.5
q57 -12 135 -12v-78h-967v82h37q57 0 102 8q58 8 94 33q33 24 54 74q16 49 16 122v1283z" />
    <glyph glyph-name="currency" unicode="&#xa4;" horiz-adv-x="4096" 
d="M1827 1393l-742 -889q-65 -86 -110 -139q-49 -58 -70 -91q-20 -28 -28 -53q-13 -24 -13 -45q0 -24 13 -41q12 -20 41 -33q24 -12 81 -16q58 -8 144 -8v-78h-1102v82h29q28 0 53 4q33 4 61 20q29 17 66 54q37 33 82 86l1118 1360l-758 766q-94 90 -176 159
q-82 66 -151 107q-66 45 -140 69q-73 25 -155 33v86h974v-82q-61 -8 -110 -16q-53 -12 -94 -21q-41 -12 -62 -32q-20 -25 -20 -62q0 -28 12 -57q12 -33 41 -66q29 -36 90 -102q62 -66 160 -160l766 -766v877q0 115 -21 196q-24 82 -69 123t-123 62q-82 20 -193 20v86h1254
v-82q-115 -4 -193 -24q-82 -21 -127 -62q-41 -41 -61 -118q-25 -82 -25 -205v-873l766 770q94 90 155.5 156t90.5 102q29 37 45 70q12 29 12 53q0 33 -24.5 57.5t-69.5 36.5q-25 9 -49.5 13t-44.5 8q-25 4 -49 8q-25 0 -49 4v86h974v-82q-139 -20 -295 -110
q-159 -94 -327 -267l-758 -761l1118 -1356q45 -57 82 -90q33 -37 62 -54q28 -16 65 -20q37 -8 82 -8v-78h-1102v82h58q53 0 90 4q57 4 82 16q24 13 36 33q13 17 13 41q0 17 -13 41q-12 25 -36.5 61.5t-65.5 94.5q-45 53 -106 127l-734 893l-8 -906q0 -127 25 -204
q20 -82 65 -123t123 -62q78 -20 193 -20v-78h-1254v82h37q90 0 160 16q78 17 119 58q45 41 69 123q21 81 21 204v910z" />
    <glyph glyph-name="guilsinglleft" unicode="&#x2039;" horiz-adv-x="3187" 
d="M2146 1348q-127 -50 -233 -82q-107 -37 -193 -58q-90 -24 -188 -32q-102 -13 -221 -13q-176 0 -320 37q-143 33 -250 103q-106 69 -159 192q-54 119 -54 283v561q0 119 -24 201q-25 77 -74 118t-131 62q-86 20 -209 20v86h1258v-82q-103 -4 -172 -24q-74 -21 -119 -62
q-41 -41 -62 -123q-24 -81 -24 -200v-520q0 -242 131 -361q127 -119 389 -119q94 0 172 8q74 5 139 17q66 12 152 36.5t192 61.5v881q0 115 -20 196q-21 82 -66 123q-41 41 -114.5 61.5t-176.5 20.5v86h1258v-82q-127 -4 -213 -24q-90 -21 -135 -58q-45 -41 -66 -122
q-24 -82 -24 -205v-1848q0 -127 24 -208q21 -82 70 -123t135 -58q86 -20 209 -20v-78h-1319v82h41q98 0 172 16q86 17 131 58q45 37 70 118q24 82 24 209v865z" />
    <glyph glyph-name="guilsinglright" unicode="&#x203a;" horiz-adv-x="3641" 
d="M1081 2474q0 45 -4 86q-4 37 -12 61q-8 25 -53 37q-49 13 -131 13q-209 0 -344.5 -25t-201 -70t-114.5 -163q-53 -119 -90 -312l-70 4l25 721h2499l24 -721h-69q-37 189 -86 308q-54 114 -123 163q-66 45 -209 70q-148 25 -365 25q-82 0 -131 -9q-49 -8 -70 -28
q-16 -17 -24 -58t-8 -106v-1012q123 41 229 74q107 33 197 57q86 21 192 33q103 12 217 12q176 0 320 -37q139 -36 245.5 -106t163.5 -184q54 -119 54 -287v-533q0 -127 24 -208q21 -82 70 -123t135 -58q86 -20 209 -20v-78h-1258v82h33q82 0 144 16q73 21 114 62
q45 41 66 123q20 77 20 200v508q0 234 -131 352q-131 119 -389 119q-90 0 -168 -8q-82 -8 -147.5 -20.5t-147.5 -36.5q-86 -25 -192 -58v-852q0 -127 24 -204q21 -82 62 -123q45 -41 119 -62q69 -20 172 -20v-78h-1258v82h41q98 0 172 16q86 17 131 58q45 37 70 118
q24 82 24 209v1991z" />
    <glyph glyph-name="daggerdbl" unicode="&#x2021;" horiz-adv-x="2458" 
d="M193 934v205h2072v-205h-2072z" />
    <glyph glyph-name="quotesinglbase" unicode="&#x201a;" 
d="M508 82h45q65 0 115 8q65 8 102 32.5t57 74.5q17 49 17 122v1393q0 21 -4 41q-9 16 -21 24.5t-33 16.5q-24 4 -61 4q-127 0 -225 -37q-99 -41 -168 -119q-74 -77 -107 -176q-37 -98 -37 -217l-98 4l33 672h1802l33 -672h-98q0 115 -37 213q-37 95 -107 172
q-74 82 -172 123q-98 37 -221 37q-41 0 -66 -4q-24 -4 -32 -12q-13 -8 -17 -25q-4 -20 -4 -49v-1384q0 -78 21 -127q16 -50 53 -74.5t106 -32.5q66 -12 156 -12v-78h-1032v82z" />
    <glyph glyph-name="quotedblbase" unicode="&#x201e;" horiz-adv-x="1597" 
d="M578 2339q0 119 -25 201q-25 77 -74 118t-131 62q-86 20 -209 20v86h1319v-82q-127 -4 -213 -24q-90 -21 -135 -58q-45 -41 -66 -122q-24 -82 -24 -205v-1848q0 -127 24 -208q21 -82 70 -123t135 -58q86 -20 209 -20v-78h-1319v82h41q99 0 172 16q86 17 131 58
q45 37 70 118q25 82 25 209v1856z" />
    <glyph glyph-name="perthousand" unicode="&#x2030;" horiz-adv-x="3187" 
d="M1413 201q-57 -70 -110.5 -115t-102.5 -74q-49 -24 -106 -37q-62 -16 -131 -16q-205 0 -357 86q-155 82 -254 258q-98 176 -147 348t-49 344q0 217 49 393.5t147 307.5q99 131 234 200q131 66 295 66q94 0 172 -16q73 -21 135 -58q57 -37 115 -82q57 -49 110 -110v737
q0 57 -12 102q-17 41 -45.5 66t-73.5 41q-49 12 -119 12l-53 4v82q78 8 168 33q90 20 192 53q103 33 181 58q73 24 123 41v-1225q57 57 114 106q54 49 107 86q57 33 135 54q78 16 176 16q160 0 291 -66q127 -69 229 -200q103 -135 156 -307q49 -177 49 -394q0 -172 -49 -344
t-148 -348q-98 -176 -249 -258q-156 -86 -361 -86q-70 0 -127 16q-61 13 -110 37q-50 29 -103 74t-110 111v-828q0 -74 16 -119q16 -49 53 -73q33 -25 94 -37q58 -12 140 -12v-82h-967v82q82 0 139 12q58 12 94 37q33 24 54 73q16 45 16 119v832zM1413 1389q0 86 -29 155
q-28 66 -86 115q-57 49 -122 74q-70 24 -144 24q-114 0 -205 -57q-90 -58 -151 -176q-66 -115 -94 -271q-33 -159 -33 -352q0 -201 33 -348q32 -152 97.5 -250t147.5 -147q78 -50 172 -50q99 0 177 33q73 29 127 94q57 66 86 160q24 90 24 213v783zM1774 610q0 -127 28 -221
q25 -94 78 -156q53 -65 131 -94q74 -33 176 -33q94 0 176 50q78 45 143.5 143t98.5 249.5t33 352.5q0 193 -33 352q-33 156 -94 271q-62 118 -148 176q-90 57 -209 57q-77 0 -143 -24q-65 -25 -123 -74q-57 -49 -86 -115q-28 -69 -28 -160v-774z" />
    <glyph glyph-name="Acircumflex" unicode="&#xc2;" horiz-adv-x="2957" 
d="M1962 1319h-217l-1036 -1319h-643v82h32q29 0 54 4q36 4 61 20q25 17 61 54q33 37 78 94l893 1098q-168 20 -307 78q-143 53 -262 139q-115 86 -172 217q-62 127 -62 295t61.5 303t188.5 237q123 99 303 152q176 49 410 49l1438 4v-82q-127 -4 -213 -24q-90 -21 -136 -58
q-45 -41 -65 -122q-25 -82 -25 -205v-1848q0 -127 25 -208q20 -82 69.5 -123t135.5 -58q86 -20 209 -20v-78h-1319v82h41q98 0 172 16q86 17 131 58q45 37 69 118q25 82 25 209v836zM1962 2392q0 90 -12 148q-17 57 -41 81q-25 25 -94 37q-70 13 -181 13q-184 0 -319 -41
q-135 -45 -221 -131q-90 -86 -131 -189q-45 -106 -45 -225q0 -156 61 -270q57 -119 172 -197q119 -78 262 -115t320 -37l229 4v922z" />
    <glyph glyph-name="Ecircumflex" unicode="&#xca;" horiz-adv-x="2277" 
d="M389 1847h-295v172h295v414q0 57 -12 102q-17 41 -45.5 66t-73.5 41q-49 12 -119 12l-53 4v82q78 8 168 33q90 20 192 53q103 33 181 58q73 24 123 41v-906h958v-172h-958v-499q94 65 176 122q82 54 155 91q74 36 156 57q82 16 172 16q119 0 213 -37q90 -36 155.5 -110
t98.5 -164q33 -94 33 -205v-794q0 -78 16 -127q17 -50 53 -74q33 -25 95 -33q57 -12 139 -12v-78h-967v82h37q57 0 102 8q58 8 95 33q32 24 53 74q16 49 16 122v627q0 94 -20.5 172t-57.5 139q-40 62 -110 95q-70 28 -172 28q-53 0 -103 -8q-49 -8 -94 -20q-45 -17 -106 -54
q-62 -41 -135 -102v-872q0 -78 16 -127.5t53 -73.5q33 -25 94 -33q58 -12 140 -12v-78h-967v82h37q57 0 102 8q58 8 94 33q33 24 54 74q16 49 16 122v1528z" />
    <glyph glyph-name="Aacute" unicode="&#xc1;" horiz-adv-x="4096" 
d="M528 2339q0 119 -24 201q-25 77 -74 118t-131 62q-86 20 -209 20v86h1319v-82q-127 -4 -213 -24q-90 -21 -135 -58q-45 -41 -66 -122q-24 -82 -24 -205v-799h422q0 254 82 487q77 234 241 443t398 315q233 107 540 107q291 0 524 -107q230 -106 402 -315t258 -471
q86 -266 86 -586q0 -319 -86 -582q-86 -266 -258 -475q-172 -213 -402 -315q-233 -103 -524 -103q-266 0 -491 86q-226 82 -406 254q-184 172 -274 447q-90 270 -90 639l-422 4v-877q0 -127 24 -208q21 -82 70 -123t135 -58q86 -20 209 -20v-78h-1319v82h41q98 0 172 16
q86 17 131 58q45 37 70 118q24 82 24 209v1856zM2658 86h17q204 0 352 94q151 94 241.5 286.5t135.5 430.5t45 512q0 279 -45 516q-45 234 -135 426q-91 193 -242 291q-152 94 -369 94q-213 0 -364 -98q-156 -98 -246 -291t-135 -426t-45 -512t45 -512q41 -238 131 -430.5
t246 -286.5q151 -98 368 -98v4z" />
    <glyph glyph-name="Edieresis" unicode="&#xcb;" horiz-adv-x="2277" 
d="M86 1925h946v-82q-78 -4 -131 -16t-86 -37t-49 -70q-16 -49 -16 -123v-368q0 -90 24 -152q21 -65 62 -102q45 -41 127 -57q77 -21 200 -21q58 0 107 4t98 12q49 9 90 25q37 12 66 29v635q0 65 -17 114q-20 49 -53 74t-86 37t-127 12v86h946v-82q-82 -4 -139 -16
q-61 -12 -94 -37q-37 -25 -53 -70q-17 -49 -17 -123v-1273q0 -78 16.5 -127.5t53.5 -73.5q33 -25 94 -33q57 -12 139 -12v-78h-966v82h36q58 0 103 8q57 8 94 33q33 24 53 74q17 49 17 122v562q-62 -29 -127 -50q-66 -20 -140 -32q-73 -13 -143 -17q-70 -8 -139 -8
q-127 0 -234 29q-106 24 -188 78q-82 57 -123 126.5t-41 155.5v439q0 69 -16 118q-21 45 -54 70q-36 25 -94 37q-57 12 -139 12v86z" />
    <glyph glyph-name="Egrave" unicode="&#xc8;" horiz-adv-x="3416" 
d="M389 1602q0 69 -16 118q-21 45 -54 70q-36 25 -94 37q-57 12 -139 12v86h946v-82q-78 -4 -131 -16t-86 -37t-49 -70q-16 -49 -16 -123v-1232q0 -82 16 -132q12 -53 41 -73.5t111 -28.5q81 -12 221 -12q135 0 217 12q82 8 110 29q33 20 50 73q12 50 12 127v1242
q0 69 -17 118q-20 45 -53 70q-37 25 -94 37t-139 12v86h966v-82q-82 -4 -139 -16q-61 -12 -94 -37q-37 -25 -53 -70q-17 -49 -17 -123v-1232q0 -82 17 -132q12 -53 40.5 -73.5t110.5 -28.5q82 -12 221 -12q136 0 217 12q82 8 111 29q33 20 49 73q12 50 12 127v1242
q0 65 -16 114q-20 49 -53 74t-86 37t-127 12v86h946v-82q-82 -4 -139 -16q-62 -12 -94 -37q-37 -25 -54 -70q-16 -49 -16 -123v-1273q0 -78 16 -127q17 -50 54 -74q32 -25 94 -33q57 -12 139 -12v-721h-102q-74 233 -123 373q-49 135 -82 180q-29 45 -82 70q-57 20 -135 20
h-2720v82h37q57 0 102 8q58 8 94 33q33 24 54 74q16 49 16 122v1283z" />
    <glyph glyph-name="Iacute" unicode="&#xcd;" horiz-adv-x="2732" 
d="M1704 1843q-82 -4 -139 -16q-62 -12 -95 -37q-36 -25 -53 -70q-16 -49 -16 -123v-536h373q184 -4 331 -37q148 -33 254 -94q107 -66 164 -164q53 -102 53 -246q0 -127 -49 -221q-53 -98 -155 -168q-103 -65 -230 -98t-278 -33h-1127v82h37q57 0 103 8q57 8 94 33
q33 24 53 74q16 49 16 122v1360q0 29 -12 50q-16 20 -41 24q-24 8 -78 12q-57 4 -143 4q-156 0 -258 -16q-107 -20 -156 -57t-90 -115t-74 -201l-73 4l32 541h1557v-82zM1401 238q0 -45 12 -70t37 -33t78 -12t139 -4q135 0 233.5 32.5t159.5 98.5q62 65 94 139q29 74 29 156
q0 90 -37 160q-41 69 -114 122q-78 54 -185 82q-106 25 -241 25l-205 4v-700z" />
    <glyph glyph-name="Icircumflex" unicode="&#xce;" horiz-adv-x="3641" 
d="M1282 2499q0 57 -12.5 94t-37 49t-85.5 20q-66 9 -172 9q-217 0 -357 -25q-143 -25 -212 -70q-66 -49 -127 -163q-62 -119 -115 -304l-78 5l49 712h2028v-82q-127 -4 -213 -24q-90 -21 -135 -58q-46 -41 -66 -122q-25 -82 -25 -205v-758h410q303 -4 532 -49
q226 -45 377 -139q156 -91 234 -238q74 -152 74 -356q0 -197 -74 -344.5t-217 -249.5q-148 -103 -324 -152q-180 -49 -397 -49h-1495v82h41q98 0 172 16q86 17 131 58q45 37 69 118q25 82 25 209v2016zM1724 393q0 -82 17 -131q12 -49 41 -69q33 -25 110 -33q78 -13 205 -13
q217 0 369 50q147 45 233 139t131 196q45 103 45 218q0 221 -73 360q-78 139 -234 197q-151 57 -360 86q-213 28 -484 28v-1028z" />
    <glyph glyph-name="Idieresis" unicode="&#xcf;" horiz-adv-x="2957" 
d="M1020 1577h1225q0 233 -66 438q-70 205 -205 377t-319.5 258t-413.5 86q-197 0 -348 -53q-156 -57 -270 -164q-115 -106 -193 -258t-119 -344l-65 4l16 971h74q8 -45 20 -74q9 -29 25 -49q16 -16 41 -25q24 -12 53 -12q107 29 209 57q98 25 196.5 49.5t192.5 36.5
q90 13 176 13q328 0 598 -103q267 -106 475 -315q209 -209 315.5 -479.5t106.5 -606.5q0 -286 -86 -540t-254 -475.5t-438 -328t-643 -106.5q-184 0 -348 37q-168 37 -311.5 111t-270.5 184q-131 111 -250 254l86 74q107 -115 217 -197q107 -86 213 -143q107 -61 254 -90
q144 -29 328 -29q246 0 434 90q189 86 316 262q127 181 192 402q62 217 62 479l-1225 4v205z" />
    <glyph glyph-name="Igrave" unicode="&#xcc;" 
d="M635 1126h823q0 172 -37 308q-41 131 -123 221q-77 94 -176 139q-102 45 -225 45q-86 0 -172 -29q-86 -32 -168 -94q-86 -61 -147 -151q-62 -95 -107 -213l-86 4l107 606h73q9 -41 21 -57q8 -21 20 -29q8 -4 29 -8q16 -4 45 -4q16 0 57 12q37 12 103 37q61 24 131 37
q65 12 139 12q176 0 332 -70q151 -69 282 -213q132 -139 197 -311q66 -176 66 -381q0 -201 -54 -381q-53 -180 -159 -336q-107 -159 -267 -233q-159 -78 -376 -78q-144 0 -271 45q-131 45 -241 143q-111 99 -201 218q-94 118 -164 258l66 32q81 -106 167 -180
q87 -78 173 -123q45 -20 90 -37q41 -16 86 -28q41 -8 86 -13q45 -8 86 -8q123 0 233 45q107 41 197 131q94 86 143 217q45 127 45 291l-823 4v172z" />
    <glyph glyph-name="Oacute" unicode="&#xd3;" horiz-adv-x="3412" 
d="M2347 82h16q115 0 205 53q94 53 160 164q70 111 102 233q33 123 33 259q0 204 -37 389q-37 180 -106 340q-74 159 -193 241q-119 78 -286 78q-148 0 -250 -53q-107 -57 -176 -164q-66 -106 -99 -238q-33 -135 -33 -290q0 -189 41 -361q41 -176 119 -336q82 -159 209 -237
q123 -82 295 -82v4zM418 1602q0 69 -17 118q-20 45 -53 70q-37 25 -94 37t-139 12v86h966v-82q-82 -4 -139 -16q-61 -12 -94 -37q-37 -25 -53 -70q-17 -49 -17 -123v-536h516q21 188 99 352q73 160 213 287q135 131 303 196q164 66 360 66q234 0 418 -70q180 -69 307 -204
q131 -136 196.5 -320t65.5 -418q0 -209 -69 -385q-74 -180 -217 -323q-140 -144 -316 -213.5t-385 -69.5t-381 66q-176 65 -319 200q-139 135 -209 307q-70 173 -70 373l-512 4v-585q0 -78 16.5 -127.5t53.5 -73.5q33 -25 94 -33q57 -12 139 -12v-78h-966v82h37q57 0 102 8
q57 8 94 33q33 24 53 74q17 49 17 122v1283z" />
    <glyph glyph-name="Ocircumflex" unicode="&#xd4;" 
d="M1298 922h-114l-697 -922h-471v70q37 4 61.5 12t41.5 16q12 8 36.5 33t53.5 62l573 741q-123 8 -225 45q-102 33 -184 86q-82 57 -123 139t-41 197q0 131 49 229q45 94 139 160q95 65 238 98q139 33 323 33l1004 4v-82q-82 -4 -139 -16q-62 -12 -94 -37q-37 -25 -54 -70
q-16 -49 -16 -123v-1273q0 -78 16 -127q17 -50 54 -74q32 -25 94 -33q57 -12 139 -12v-78h-946v82h33q53 0 98 8q53 8 86 32.5t49 74t16 122.5v603zM1298 1737q0 12 -12 24q-12 13 -33 21q-20 8 -61 12q-45 4 -115 4q-123 0 -213 -24.5t-147.5 -73.5t-85.5 -111
q-29 -65 -29 -143q0 -111 37 -189q37 -77 111 -122q73 -50 163 -70q91 -25 197 -25l188 17v680z" />
    <glyph glyph-name="Ograve" unicode="&#xd2;" 
d="M1409 1307q0 118 -25 217q-28 94 -77 168q-54 73 -136 110q-86 37 -204 37q-99 0 -185 -41q-86 -45 -159 -127q-74 -86 -111 -176q-37 -94 -37 -192zM467 1184v-17q-4 -8 -4 -12v-12v-17v-24v-21q0 -82 16 -168q17 -90 45 -184q33 -94 86 -176q54 -82 131 -152
q78 -65 177 -98q94 -37 208 -37q119 0 226 29q102 29 188 90t160 139t135 172l70 -41q-70 -151 -160 -274q-94 -127 -205 -225q-110 -103 -237 -148q-127 -49 -271 -49q-205 0 -364 66q-160 61 -279 188q-115 131 -172 299q-61 164 -61 373q0 221 61 409q57 189 176 348
q119 160 287 242q168 78 381 78q164 0 299 -57q131 -58 233 -168q107 -111 160 -250q49 -139 49 -307zM1495 2580q45 -4 82 -16q37 -16 65 -49q33 -29 50 -66q12 -36 12 -82q0 -40 -12 -77q-17 -37 -50 -70q-28 -29 -65 -45t-82 -16q-41 0 -78 16t-69 45q-29 33 -45.5 70
t-16.5 77q0 46 17 82q16 37 45 66q32 33 69 49q37 12 78 12v4zM676 2580q45 -4 82 -16q37 -16 65 -49q33 -29 49 -66q13 -36 13 -82q0 -40 -13 -77q-16 -37 -49 -70q-28 -29 -65 -45t-82 -16q-41 0 -78 16t-70 45q-28 33 -45 70q-16 37 -16 77q0 46 16 82q17 37 45 66
q33 33 70 49q37 12 78 12v4z" />
    <glyph glyph-name="Uacute" unicode="&#xda;" horiz-adv-x="2277" 
d="M418 1847h-303v172h303v414q0 57 -12 102q-17 41 -46 66q-28 25 -73 41q-49 12 -119 12l-53 4v82q82 8 155 25q74 16 148 36.5t164 53.5q90 29 196 70v-906h959v-172h-959v-508q99 78 180 140q78 57 139.5 90t135.5 49t151 16q132 0 254 -49q119 -49 222 -143
q106 -99 159 -250q54 -156 54 -365q0 -245 -86 -499q-91 -254 -271 -508q-176 -258 -442 -451q-270 -196 -631 -323l-37 102q193 66 381 205q189 139 365 344q180 205 270 455q90 245 90 544q0 168 -33 295q-32 123 -102 213q-66 86 -156 131t-200 45q-58 0 -111 -12
q-57 -16 -115 -45q-28 -12 -53 -29q-29 -16 -53 -37q-29 -16 -53 -36l-58 -50v-847q0 -78 16.5 -127.5t53.5 -73.5q33 -25 94 -33q57 -12 139 -12v-78h-966v82h37q57 0 102 8q57 8 94 33q33 24 53 74q17 49 17 122v1528z" />
    <glyph glyph-name="Ucircumflex" unicode="&#xdb;" horiz-adv-x="2277" 
d="M184 836h82q74 -168 164 -299q90 -136 193 -242q106 -107 233 -160t279 -53q114 0 213 33q94 28 172 94q77 61 118 147q37 86 37 189q0 106 -28 192q-33 86 -91 152q-61 61 -188 147t-319 197q-197 110 -340 217q-148 102 -246 200.5t-144 217.5q-49 119 -49 254
q0 172 62 315q57 139 172 242q119 106 266 160q148 49 324 49q86 0 180 -17q90 -16 180 -49q94 -33 155.5 -49t98.5 -16t57 16q17 16 17 49v12v9q-4 4 -4 8v8l82 4l94 -844h-90q-45 148 -115 279q-74 127 -172 229q-98 107 -221 160q-123 49 -266 49q-99 0 -177 -33
q-82 -32 -151 -94q-66 -61 -98 -139q-33 -82 -33 -176q0 -111 53 -201q53 -94 160 -168q106 -78 245.5 -164t307.5 -184t299 -193q127 -98 217 -192q90 -98 135 -213t45 -250q0 -172 -61 -311q-66 -144 -189 -258q-127 -115 -282 -168q-156 -58 -340 -58q-70 0 -148 13
q-82 8 -176 28q-90 17 -180 37q-90 17 -180 37q-21 0 -37 -4q-21 -8 -37.5 -20.5t-24.5 -24.5q-12 -16 -12 -41h-78z" />
    <glyph glyph-name="Ugrave" unicode="&#xd9;" 
d="M1413 954h-823q0 -168 49 -295q45 -127 139 -217t201 -131q106 -45 229 -45q107 0 205 29t184 82q86 57 160 126.5t139 147.5l66 -24q-70 -144 -160 -262q-94 -119 -205 -218q-114 -98 -241 -143t-271 -45q-213 0 -372 78q-164 74 -271 229q-106 156 -159 340
q-54 180 -54 381q0 205 66 381q65 172 197 311q131 144 286 213q152 70 328 70q70 0 135 -12q66 -13 131 -37q62 -25 107 -37q41 -12 57 -12q29 0 49 4q17 4 29 16q8 12 20 33q8 16 17 41l73 4l107 -606h-86q-41 114 -107 209q-65 90 -147 151q-82 62 -168 94
q-86 29 -172 29q-119 0 -217 -45q-103 -45 -184 -139q-78 -90 -119 -225.5t-41 -307.5l823 4v-172z" />
    <glyph glyph-name="circumflex" unicode="&#x2dc;" horiz-adv-x="1139" 
d="M389 1470q0 58 -12 103q-17 41 -45 65q-29 25 -74 41q-49 13 -119 13l-53 4v82q78 8 168 32q90 21 192 54q103 32 181 57q73 25 123 41v-1638q0 -78 16 -127.5t53 -73.5q33 -25 94 -33q58 -12 140 -12v-78h-967v82h37q57 0 102 8q58 8 94 33q33 24 54 74q16 49 16 122
v1151zM569 2929q45 -4 86 -21q41 -16 70 -49q33 -29 49 -70q17 -41 17 -86q0 -49 -17 -86q-16 -41 -49 -73q-29 -29 -70 -45.5t-86 -16.5q-49 0 -86 17q-41 16 -73 45q-29 32 -45 73q-17 37 -17 86q0 45 16.5 86t45.5 70q32 33 73 49q37 17 86 17v4z" />
    <glyph glyph-name="tilde" unicode="&#x2c6;" horiz-adv-x="1139" 
d="M979 2580q45 -4 82 -16q37 -16 65 -49q33 -29 50 -66q12 -36 12 -82q0 -40 -12 -77q-17 -37 -50 -70q-28 -29 -65 -45t-82 -16q-41 0 -78 16t-70 45q-28 33 -45 70q-16 37 -16 77q0 46 16 82q17 37 45 66q33 33 70 49q37 12 78 12v4zM160 2580q45 -4 82 -16
q37 -16 65 -49q33 -29 49 -66q13 -36 13 -82q0 -40 -13 -77q-16 -37 -49 -70q-28 -29 -65 -45t-82 -16q-41 0 -78 16t-70 45q-28 33 -41 70q-16 37 -16 77q0 46 16 82q13 37 41 66q33 33 70 49q37 12 78 12v4zM389 1470q0 58 -12 103q-17 41 -45 65q-29 25 -74 41
q-49 13 -119 13l-53 4v82q78 8 168 32q90 21 192 54q103 32 181 57q73 25 123 41v-1638q0 -78 16 -127.5t53 -73.5q33 -25 94 -33q58 -12 140 -12v-78h-967v82h37q57 0 102 8q58 8 94 33q33 24 54 74q16 49 16 122v1151z" />
    <glyph glyph-name="cedilla" unicode="&#xb8;" horiz-adv-x="2277" 
d="M418 1602q0 69 -17 118q-20 45 -53 70q-37 25 -94 37t-139 12v86h966v-82q-82 -4 -139 -16q-61 -12 -94 -37q-37 -25 -53 -70q-17 -49 -17 -123v-626q37 8 139.5 98t266.5 254l258 258q86 90 98 107l16 32q5 13 5 25q0 33 -17 53q-20 17 -57 25t-78 12t-90 4v86h827v-82
q-65 -4 -118 -16q-58 -12 -99 -33q-41 -20 -110 -78q-70 -61 -177 -155l-520 -471l828 -861q37 -45 69 -73q33 -29 57.5 -41.5t65.5 -24.5t99 -24v-66h-930v70h61q14 -2 27 -2q14 0 26 2q41 0 58 4q20 8 28 16q9 8 9 25q0 8 -25 45q-29 37 -78 102q-53 62 -139 160
q-86 94 -205 221t-192.5 192.5t-102.5 69.5v-581q0 -78 16.5 -127.5t53.5 -73.5q33 -25 94 -33q57 -12 139 -12v-78h-966v82h37q57 0 102 8q57 8 94 33q33 24 53 74q17 49 17 122v1283zM1413 2732q29 25 57 49q25 25 54 41q28 21 57 33q29 8 57 8q33 0 58 -8q24 -12 41 -33
q20 -20 28 -45q9 -24 9 -53q0 -45 -29 -86q-33 -41 -90 -78l-639 -397h-164z" />
    <glyph glyph-name="Scaron" unicode="&#x160;" horiz-adv-x="3277" 
 />
    <glyph glyph-name="scaron" unicode="&#x161;" horiz-adv-x="3277" 
 />
    <glyph glyph-name="Zcaron" unicode="&#x17d;" horiz-adv-x="3277" 
 />
    <glyph glyph-name="zcaron" unicode="&#x17e;" horiz-adv-x="3277" 
 />
    <glyph glyph-name="brokenbar" unicode="&#xa6;" horiz-adv-x="3277" 
 />
    <glyph glyph-name="Eth" unicode="&#xd0;" horiz-adv-x="3277" 
 />
    <glyph glyph-name="eth" unicode="&#xf0;" horiz-adv-x="3277" 
 />
    <glyph glyph-name="Yacute" unicode="&#xdd;" horiz-adv-x="2212" 
d="M418 1602q0 69 -17 118q-20 45 -53 70q-37 25 -94 37t-139 12v86h966v-82q-82 -4 -139 -16q-61 -12 -94 -37q-37 -25 -53 -70q-17 -49 -17 -123v-536h373q184 -4 331.5 -37t254.5 -94q106 -66 164 -164q53 -102 53 -246q0 -127 -49 -221q-54 -98 -156 -168
q-102 -65 -229 -98t-279 -33h-1126v82h37q57 0 102 8q57 8 94 33q33 24 53 74q17 49 17 122v1283zM778 238q0 -45 12.5 -70t36.5 -33q25 -8 78 -12t139 -4q136 0 234 32.5t159.5 98t94.5 139.5q29 74 29 156q0 90 -37 160q-41 69 -115 122q-78 54 -184 82q-107 25 -242 25
l-205 4v-700z" />
    <glyph glyph-name="yacute" unicode="&#xfd;" horiz-adv-x="3277" 
 />
    <glyph glyph-name="Thorn" unicode="&#xde;" horiz-adv-x="3277" 
 />
    <glyph glyph-name="thorn" unicode="&#xfe;" horiz-adv-x="3277" 
 />
    <glyph glyph-name="multiply" unicode="&#xd7;" horiz-adv-x="3277" 
 />
    <glyph glyph-name="onesuperior" unicode="&#xb9;" horiz-adv-x="3277" 
 />
    <glyph glyph-name="twosuperior" unicode="&#xb2;" horiz-adv-x="3277" 
 />
    <glyph glyph-name="threesuperior" unicode="&#xb3;" horiz-adv-x="3277" 
 />
    <glyph glyph-name="onehalf" unicode="&#xbd;" horiz-adv-x="3277" 
 />
    <glyph glyph-name="onequarter" unicode="&#xbc;" horiz-adv-x="3277" 
 />
    <glyph glyph-name="threequarters" unicode="&#xbe;" horiz-adv-x="3277" 
 />
    <glyph glyph-name="endash.0" unicode="&#x2013;" horiz-adv-x="3416" 
d="M1081 2474q0 45 -4 86q-4 37 -12 61q-8 25 -53 37q-49 13 -131 13q-209 0 -344.5 -25t-201 -70t-114.5 -163q-53 -119 -90 -312l-70 4l25 721h2499l24 -721h-69q-37 189 -86 308q-54 114 -123 163q-66 45 -209 70q-148 25 -365 25q-82 0 -131 -9q-49 -8 -70 -28
q-16 -17 -24 -58t-8 -106v-950q90 20 176 45q86 20 164 37q82 16 172 24q86 8 176 8q242 0 426 -57t311 -176q127 -115 193 -275q61 -159 61 -356q0 -184 -49 -332q-53 -151 -156 -270q-102 -119 -237 -176.5t-303 -57.5q-99 0 -181 25t-147 66q-66 45 -98 114
q-33 66 -33 156q0 57 16 102q13 45 41 74q29 33 66 49q37 12 86 12q45 0 78 -12q32 -16 57 -41q24 -28 36.5 -61t12.5 -78q0 -25 -8 -57.5t-21 -69.5q-16 -41 -20 -61q-8 -25 -8 -33q0 -33 28 -49q29 -17 82 -17q58 0 107 37q49 33 90 98q45 70 65 197q21 123 21 307
q0 213 -41 365q-45 147 -131 233t-221 131q-140 41 -324 41q-61 0 -123 -4q-61 -8 -123 -16q-61 -8 -123 -21q-61 -16 -118 -37v-897q0 -127 24 -204q21 -82 62 -123q45 -41 119 -62q69 -20 172 -20v-78h-1258v82h41q98 0 172 16q86 17 131 58q45 37 70 118q24 82 24 209
v1991z" />
    <glyph glyph-name="sfthyphen" unicode="&#xad;" horiz-adv-x="3277" 
 />
    <glyph glyph-name="filledbox" unicode="&#x25a0;" horiz-adv-x="3277" 
 />
    <glyph glyph-name="bullet.0" unicode="&#x2022;" horiz-adv-x="2277" 
d="M184 836h82q74 -168 164 -299q90 -136 193 -242q106 -107 233 -160t279 -53q114 0 213 33q94 28 172 94q77 61 118 147q37 86 37 189q0 106 -28 192q-33 86 -91 152q-61 61 -188 147t-319 197q-197 110 -340 217q-148 102 -246 200.5t-144 217.5q-49 119 -49 254
q0 172 62 315q57 139 172 242q119 106 266 160q148 49 324 49q86 0 180 -17q90 -16 180 -49q94 -33 155.5 -49t98.5 -16t57 16q17 16 17 49v12v9q-4 4 -4 8v8l82 4l94 -844h-90q-45 148 -115 279q-74 127 -172 229q-98 107 -221 160q-123 49 -266 49q-99 0 -177 -33
q-82 -32 -151 -94q-66 -61 -98 -139q-33 -82 -33 -176q0 -111 53 -201q53 -94 160 -168q106 -78 245.5 -164t307.5 -184t299 -193q127 -98 217 -192q90 -98 135 -213t45 -250q0 -172 -61 -311q-66 -144 -189 -258q-127 -115 -282 -168q-156 -58 -340 -58q-70 0 -148 13
q-82 8 -176 28q-90 17 -180 37q-90 17 -180 37q-21 0 -37 -4q-21 -8 -37.5 -20.5t-24.5 -24.5q-12 -16 -12 -41h-78z" />
    <glyph glyph-name="overstore" unicode="&#xaf;" horiz-adv-x="3277" 
 />
    <glyph glyph-name="degree.0" unicode="&#xb0;" horiz-adv-x="2957" 
d="M528 2339q0 119 -24 201q-25 77 -74 118t-131 62q-86 20 -209 20v86h2450l32 -618h-73q-17 119 -58 209q-41 86 -106.5 135t-163.5 74q-103 24 -234 24l-782 4q-65 -4 -106 -16t-54 -37q-12 -25 -16 -82q-8 -61 -8 -156v-786h864h33q86 0 147 20q70 21 111 62
q41 45 69 119q25 73 37 184l82 4v-958h-82q-12 102 -37 180q-24 78 -69 123q-41 45 -115 69q-74 21 -176 21l-864 4v-889q0 -106 8 -176q8 -74 25 -107q20 -32 65 -49q41 -16 107 -16l860 4h24q119 0 217 33q111 33 201 106q86 74 156 176q65 103 106 230l78 -25l-221 -692
h-2507v82h41q98 0 172 16q86 17 131 58q45 37 70 118q24 82 24 209v1856zM1888 3490q45 -4 82 -17q37 -16 66 -49q32 -28 49 -65q12 -37 12 -82q0 -41 -12 -78q-17 -37 -49 -70q-29 -28 -66 -45q-37 -16 -82 -16q-41 0 -78 16q-36 17 -69 45q-29 33 -45.5 70t-16.5 78
q0 45 16.5 82t45.5 65q33 33 69 49q37 13 78 13v4zM1069 3490q45 -4 82 -17q37 -16 66 -49q32 -28 49 -65q12 -37 12 -82q0 -41 -12 -78q-17 -37 -49 -70q-29 -28 -66 -45q-37 -16 -82 -16q-41 0 -78 16q-37 17 -69 45q-29 33 -45.5 70t-16.5 78q0 45 16.5 82t45.5 65
q32 33 69 49q37 13 78 13v4z" />
    <glyph glyph-name="middot" unicode="&#xb7;" horiz-adv-x="3277" 
 />
    <glyph glyph-name="invcircle" unicode="&#x25d9;" horiz-adv-x="3277" 
 />
    <glyph glyph-name="Rcaron" unicode="&#x158;" horiz-adv-x="3277" 
 />
    <glyph glyph-name="Ncaron" unicode="&#x147;" horiz-adv-x="3277" 
 />
    <glyph glyph-name="2510" unicode="&#x2510;" horiz-adv-x="3277" 
 />
    <glyph glyph-name="nonbreakingspace" unicode="&#xa0;" horiz-adv-x="1024" 
 />
  </font>
</defs>
</svg>
